<svg xmlns="http://www.w3.org/2000/svg" viewBox="0 0 1085.92 1184.61"><title>yld_illiustration_sept_2018</title><g style="isolation:isolate"><g id="Layer_1" data-name="Layer 1"><rect width="1085.92" height="1184.61" style="fill:#090329"/><polyline points="517.46 256.88 412.11 425.14 180.36 549.58 36.69 530.26 362.03 1011.02 1102 1010.79" style="fill:#65ffcd"/><rect x="447.47" y="778.48" width="42.86" height="211.11" style="fill:#2e1196"/><rect x="473.86" y="778.48" width="26.39" height="211.11" style="fill:#1a0970"/><rect x="597.01" y="690.51" width="95.64" height="299.08" style="fill:#2e1196"/><rect x="535.44" y="778.48" width="218.79" height="211.11" style="fill:#2e1196"/><rect x="834.52" y="708.11" width="52.78" height="281.49" transform="translate(1721.81 1697.7) rotate(-180)" style="fill:#2e1196"/><rect x="834.52" y="708.11" width="26.39" height="281.49" transform="translate(1695.42 1697.7) rotate(-180)" style="fill:#1a0970"/><rect x="772.94" y="778.48" width="17.59" height="211.12" transform="translate(1563.47 1768.07) rotate(-180)" style="fill:#1a0970"/><rect x="428.76" y="857.65" width="70.37" height="131.94" transform="translate(927.89 1847.25) rotate(-180)" style="fill:#1a0970"/><polygon points="781.52 988.56 868.8 990.13 868.8 777.94 781.52 777.94 781.52 988.56" style="fill:#2e1196"/><polygon points="859.78 980.8 982.93 973.83 982.94 857.65 859.78 857.65 859.78 980.8" style="fill:#2e1196"/><rect x="350.71" y="857.65" width="79.17" height="131.95" transform="translate(780.59 1847.24) rotate(-180)" style="fill:#2e1196"/><rect x="860.9" y="857.65" width="61.58" height="131.94" transform="translate(1783.38 1847.25) rotate(-180)" style="fill:#0b29ff"/><rect x="419.96" y="954.41" width="26.39" height="35.19" style="fill:#0a0837"/><rect x="472.74" y="822.46" width="123.15" height="167.13" style="fill:#0a0837"/><rect x="465.06" y="822.46" width="114.35" height="167.13" style="fill:#8b00dd"/><rect x="808.13" y="848.85" width="34.06" height="140.74" style="fill:#0a0837"/><rect x="834.52" y="822.46" width="17.59" height="26.39" style="fill:#0a0837"/><rect x="852.11" y="822.46" width="43.98" height="26.39" style="fill:#8b00dd"/><rect x="947.75" y="954.41" width="61.58" height="35.19" style="fill:#f94b7d"/><rect x="623.4" y="866.44" width="157.21" height="123.15" style="fill:#8b00dd"/><rect x="825.72" y="848.85" width="96.76" height="140.74" style="fill:#8b00dd"/><rect x="324.32" y="954.41" width="96.76" height="35.19" style="fill:#8b00dd"/><rect x="922.48" y="928.02" width="26.39" height="61.58" style="fill:#0a0837"/><rect x="948.87" y="901.63" width="51.66" height="87.96" style="fill:#0a0837"/><rect x="975.26" y="901.63" width="52.78" height="87.96" style="fill:#8b00dd"/><rect x="472.74" y="831.26" width="8.8" height="158.34" style="fill:#fff"/><rect x="490.33" y="831.26" width="8.8" height="158.34" style="fill:#fff"/><polyline points="507.92 831.26 516.72 831.26 516.72 989.59 507.92 989.59 507.92 831.26" style="fill:#fff"/><rect x="525.52" y="831.26" width="8.8" height="158.34" style="fill:#fff"/><rect x="543.11" y="831.26" width="8.8" height="158.34" style="fill:#fff"/><rect x="560.7" y="831.26" width="8.8" height="158.34" style="fill:#fff"/><rect x="640.99" y="884.03" width="8.8" height="43.98" style="fill:#fff"/><rect x="658.59" y="884.03" width="8.8" height="43.98" style="fill:#fff"/><rect x="676.18" y="884.03" width="8.8" height="43.98" style="fill:#fff"/><rect x="755.35" y="884.03" width="8.8" height="43.98" style="fill:#fff"/><rect x="737.75" y="884.03" width="8.8" height="43.98" style="fill:#fff"/><rect x="720.16" y="884.03" width="8.8" height="43.98" style="fill:#fff"/><rect x="834.52" y="866.44" width="8.8" height="61.58" style="fill:#fff"/><rect x="852.11" y="866.44" width="8.8" height="61.58" style="fill:#fff"/><rect x="904.89" y="866.44" width="8.8" height="61.58" style="fill:#fff"/><rect x="887.29" y="866.44" width="8.8" height="61.58" style="fill:#fff"/><rect x="984.05" y="919.22" width="8.8" height="17.59" style="fill:#fff"/><rect x="1010.44" y="910.13" width="8.8" height="17.59" style="fill:#fff"/><rect x="957.67" y="919.22" width="8.8" height="17.59" style="fill:#fff;opacity:0.5"/><rect x="957.67" y="963.2" width="8.8" height="17.59" style="fill:#fff;opacity:0.5"/><rect x="834.52" y="936.81" width="8.8" height="17.59" style="fill:#fff"/><rect x="904.89" y="936.81" width="8.8" height="17.59" style="fill:#fff"/><rect x="333.12" y="963.2" width="8.8" height="17.59" style="fill:#fff"/><rect x="350.71" y="963.2" width="8.8" height="17.59" style="fill:#fff"/><rect x="394.69" y="963.2" width="8.8" height="17.59" style="fill:#fff"/><rect x="429.88" y="963.2" width="8.8" height="17.59" style="fill:#fff;opacity:0.5"/><rect x="640.99" y="936.81" width="8.8" height="8.8" style="fill:#fff"/><rect x="640.99" y="954.41" width="8.8" height="8.8" style="fill:#fff"/><rect x="755.35" y="936.81" width="8.8" height="8.8" style="fill:#fff"/><rect x="755.35" y="954.41" width="8.8" height="8.8" style="fill:#fff"/><rect x="359.51" y="866.44" width="61.58" height="8.8" style="fill:#fff"/><rect x="438.68" y="866.44" width="26.39" height="8.8" style="fill:#fff;opacity:0.5"/><rect x="438.68" y="884.03" width="26.39" height="8.8" style="fill:#fff;opacity:0.5"/><polyline points="465.06 901.63 465.06 910.42 438.68 910.42 438.68 901.63 465.06 901.63" style="fill:#fff;opacity:0.5"/><rect x="359.51" y="884.03" width="61.58" height="8.8" style="fill:#fff"/><rect x="359.51" y="901.63" width="61.58" height="8.8" style="fill:#fff"/><rect x="456.27" y="787.27" width="8.8" height="8.8" style="fill:#fff"/><rect x="456.27" y="804.87" width="8.8" height="8.8" style="fill:#fff"/><rect x="482.66" y="804.87" width="8.8" height="8.8" style="fill:#fff;opacity:0.5"/><rect x="482.66" y="787.27" width="8.8" height="8.8" style="fill:#fff;opacity:0.5"/><rect x="640.43" y="717.46" width="8.8" height="60.45" transform="translate(-102.86 1392.52) rotate(-90)" style="fill:#fff"/><rect x="640.43" y="699.87" width="8.8" height="60.45" transform="translate(-85.27 1374.93) rotate(-90)" style="fill:#fff"/><rect x="790.53" y="796.07" width="26.39" height="8.8" style="fill:#fff"/><rect x="825.72" y="796.07" width="26.39" height="8.8" style="fill:#fff"/><rect x="790.53" y="822.46" width="26.39" height="8.8" style="fill:#fff"/><rect x="825.72" y="822.46" width="8.8" height="8.8" style="fill:#fff"/><rect x="869.7" y="716.9" width="8.8" height="8.8" style="fill:#fff"/><rect x="869.7" y="734.5" width="8.8" height="8.8" style="fill:#fff"/><rect x="869.7" y="752.09" width="8.8" height="8.8" style="fill:#fff"/><rect x="843.31" y="716.9" width="8.8" height="8.8" style="fill:#fff;opacity:0.5"/><rect x="843.31" y="734.5" width="8.8" height="8.8" style="fill:#fff;opacity:0.5"/><rect x="843.31" y="752.09" width="8.8" height="8.8" style="fill:#fff;opacity:0.5"/><rect x="640.43" y="682.28" width="8.8" height="60.45" transform="translate(-67.67 1357.33) rotate(-90)" style="fill:#fff"/><rect x="711.37" y="813.66" width="8.8" height="43.98" transform="translate(-119.89 1551.42) rotate(-90)" style="fill:#fff"/><rect x="711.37" y="796.07" width="8.8" height="43.98" transform="translate(-102.3 1533.82) rotate(-90)" style="fill:#fff"/><rect x="711.37" y="778.48" width="8.8" height="43.98" transform="translate(-84.71 1516.23) rotate(-90)" style="fill:#fff"/><rect x="570.62" y="796.07" width="8.8" height="43.98" transform="translate(-243.04 1393.08) rotate(-90)" style="fill:#fff"/><rect x="570.62" y="778.48" width="8.8" height="43.98" transform="translate(-225.45 1375.49) rotate(-90)" style="fill:#fff"/><rect x="296.04" y="989.41" width="805.96" height="40.46" style="fill:#0b0425"/><path d="M539.8,255.59,515.08,230a35.57,35.57,0,0,0-25.59-10.86H294.1c-76.86,0-82.43,9.5-104.31,37.26L15.86,483.14c-16.76,24.25,5.61,69.09,27.25,68l240.89-33A88.26,88.26,0,0,0,353.67,484l186.15-219.8c1.65-2.13.71.17,1.65-2.13Z" style="fill:#8b00dd"/><path d="M539.8,255.59,515.08,230a34.77,34.77,0,0,0-5.47-4.62,35.61,35.61,0,0,0-20.12-6.24H294.1c-21.11,0-36.71.75-48.89,2.37l27.21,27.37,2.42,2.5,1.9,7.3c-1.07,2.6,0,0-1.88,2.41L64.57,509.44a99.4,99.4,0,0,1-41,30.93,41.33,41.33,0,0,0,4.34,4.42c.23.21.48.37.72.57A30.43,30.43,0,0,0,32.29,548c.44.26.89.5,1.33.74a21.51,21.51,0,0,0,3.4,1.42c.46.15.91.34,1.37.45a16.14,16.14,0,0,0,4.72.52l240.89-33A88.26,88.26,0,0,0,353.67,484l186.15-219.8c1.65-2.13.71.17,1.65-2.13Z" style="fill:#1a0970"/><path d="M284,552.23H45.41c-20.88,0-32.62-24-19.8-40.49L209.42,275.41A79.3,79.3,0,0,1,272,244.79H517.8c23.21,0,36.27,26.7,22,45L353.67,518.15A88.26,88.26,0,0,1,284,552.23Z" style="fill:#2a066b"/><polygon points="342.76 504.64 37.28 504.64 50.91 488.56 356.39 488.56 342.76 504.64" style="fill:#00dba0;mix-blend-mode:darken"/><polygon points="520.05 295.62 214.57 295.62 228.21 279.54 533.69 279.54 520.05 295.62" style="fill:#65ffcd"/><polygon points="492.78 327.77 187.3 327.77 200.93 311.7 506.42 311.7 492.78 327.77" style="fill:#65ffcd"/><polygon points="465.5 359.93 160.02 359.93 173.66 343.85 479.14 343.85 465.5 359.93" style="fill:#65ffcd"/><polygon points="438.22 392.09 132.74 392.09 146.38 376.01 451.86 376.01 438.22 392.09" style="fill:#65ffcd"/><polygon points="410.95 424.25 105.47 424.25 119.11 408.17 424.59 408.17 410.95 424.25" style="fill:#65ffcd"/><polygon points="383.67 456.4 78.19 456.4 91.83 440.32 397.31 440.32 383.67 456.4" style="fill:#65ffcd"/><polygon points="356.39 488.56 50.91 488.56 64.55 472.48 370.03 472.48 356.39 488.56" style="fill:#65ffcd"/><polygon points="329.12 520.72 23.64 520.72 37.28 504.64 342.76 504.64 329.12 520.72" style="fill:#65ffcd"/><polygon points="533.69 279.54 228.21 279.54 241.85 263.46 537.9 263.46 537.9 263.46 537.9 266.31 533.69 279.54" style="fill:#1a0970"/><polygon points="506.42 311.7 200.93 311.7 214.57 295.62 520.05 295.62 506.42 311.7" style="fill:#1a0970"/><polygon points="479.14 343.85 173.66 343.85 187.3 327.77 492.78 327.77 479.14 343.85" style="fill:#1a0970"/><polygon points="451.86 376.01 146.38 376.01 160.02 359.93 465.5 359.93 451.86 376.01" style="fill:#1a0970"/><polygon points="424.59 408.17 119.11 408.17 132.74 392.09 438.22 392.09 424.59 408.17" style="fill:#1a0970"/><polygon points="397.31 440.32 91.83 440.32 105.47 424.25 410.95 424.25 397.31 440.32" style="fill:#1a0970"/><polygon points="370.03 472.48 64.55 472.48 78.19 456.4 383.67 456.4 370.03 472.48" style="fill:#1a0970"/><polygon points="342.36 504.78 36.88 504.78 50.52 488.7 356 488.7 342.36 504.78" style="fill:#1a0970"/><polygon points="315.48 536.79 28.85 536.79 28.85 536.79 28.85 525.68 23.64 520.72 329.12 520.72 315.48 536.79" style="fill:#1a0970"/><path d="M517.8,261.87a10.53,10.53,0,0,1,9.71,6.06,10.39,10.39,0,0,1-.93,11.09L340.19,507.67A70.73,70.73,0,0,1,284,535.15H45.41a8,8,0,0,1-6.32-12.93L222.9,285.9a61.82,61.82,0,0,1,49.12-24H517.8m0-17.08H272a79.3,79.3,0,0,0-62.6,30.62L25.61,511.74c-12.82,16.48-1.08,40.49,19.8,40.49H284a88.26,88.26,0,0,0,69.67-34.08L539.82,289.81c14.25-18.32,1.19-45-22-45Z" style="fill:#2e1196"/><line x1="522.82" y1="282.17" x2="336.24" y2="510.89" style="fill:none;stroke:#65ffcd;stroke-miterlimit:10;stroke-width:2px"/></g></g></svg>