<?xml version="1.0" encoding="UTF-8"?>
<svg width="25px" height="24px" viewBox="0 0 25 24" version="1.1" xmlns="http://www.w3.org/2000/svg" xmlns:xlink="http://www.w3.org/1999/xlink">
    <!-- Generator: Sketch 52.1 (67048) - http://www.bohemiancoding.com/sketch -->
    <title>behance-icon</title>
    <desc>Created with Sketch.</desc>
    <g id="Progress" stroke="none" stroke-width="1" fill="none" fill-rule="evenodd">
        <g id="Homepage--/-Layout" transform="translate(-371.000000, -7818.000000)">
            <g id="footer-bottom" transform="translate(0.000000, 7782.000000)">
                <g id="social" transform="translate(123.000000, 36.000000)">
                    <g id="behance-icon" transform="translate(248.800000, 0.000000)">
                        <rect id="Rectangle-12" fill="#0056FE" x="0" y="0" width="24" height="24"></rect>
                        <path d="M14.6892857,8.22217354 L19.077543,8.22217354 L19.077543,7.13741548 L14.6892857,7.13741548 L14.6892857,8.22217354 Z M15.1300277,12.5620519 C15.139609,12.4072073 15.1729355,12.2316322 15.2279241,12.0374419 C15.2833293,11.8390209 15.3774764,11.6524459 15.5166143,11.4764477 C15.6565852,11.303411 15.8386309,11.1566048 16.0619179,11.0381445 C16.2902039,10.918415 16.5747283,10.8591848 16.9188237,10.8591848 C17.4474641,10.8591848 17.8802911,11.0152986 18.136488,11.3025649 C18.3935181,11.5923696 18.5813958,12.0044423 18.6326352,12.5620519 L15.1300277,12.5620519 Z M20.6363866,12.1677483 C20.4943327,11.6021003 20.2664633,11.0977978 19.9473627,10.6573792 C19.6278456,10.2152684 19.2208466,9.86242587 18.725116,9.60223624 C18.2268859,9.33823896 17.6465895,9.20835568 16.9833936,9.20835568 C16.3826848,9.20835568 15.8402972,9.31708533 15.3483158,9.53242927 C14.856751,9.74861935 14.4347551,10.0451932 14.0785789,10.4200355 C13.7232359,10.7931855 13.4528753,11.2382578 13.2574991,11.7539833 C13.0658721,12.2680165 12.9679757,12.8239338 12.9679757,13.41962 C12.9679757,14.0351906 13.0621229,14.602954 13.2491675,15.116141 C13.4382949,15.6322895 13.7036566,16.0714388 14.0452525,16.4428965 C14.3960131,16.812662 14.8125935,17.0965436 15.3112401,17.2987723 C15.8103034,17.4988857 16.3660216,17.6 16.9833936,17.6 C17.86946,17.6 18.6293025,17.3943867 19.2529233,16.9806218 C19.8840425,16.5685491 20.3460301,15.8844408 20.6509669,14.9266045 L18.7546932,14.9266045 C18.6813751,15.1728327 18.4914144,15.4101764 18.1793958,15.6322895 C17.864461,15.8544026 17.4895387,15.9660938 17.055462,15.9660938 C16.4514205,15.9660938 15.9852671,15.8053262 15.6624174,15.4854833 C15.339151,15.1656405 15.1300277,14.5695312 15.1300277,13.9404223 L20.7863555,13.9404223 C20.8267638,13.3227364 20.7776073,12.7325501 20.6363866,12.1677483 Z M9.74489368,14.7810675 C9.64949678,14.9663733 9.51660765,15.1127564 9.35747397,15.2193707 C9.1979237,15.3306388 9.0092128,15.4055226 8.79592367,15.4529067 C8.58596718,15.5002909 8.36268012,15.5218676 8.12772881,15.5218676 L5.58367269,15.5218676 L5.58367269,12.4943603 L8.17521897,12.4943603 C8.68802936,12.4943603 9.10502628,12.6140898 9.41829469,12.8548181 C9.73031337,13.098931 9.88778073,13.501273 9.88778073,14.0681902 C9.88778073,14.3575719 9.84154032,14.5966079 9.74489368,14.7810675 Z M5.58367269,8.27251917 L7.81362724,8.27251917 C8.02483347,8.27251917 8.23020757,8.28774978 8.42683349,8.32709553 C8.62679205,8.36178748 8.79925631,8.42609451 8.95172472,8.51959355 C9.10502628,8.609708 9.22708432,8.73832206 9.31914857,8.90205115 C9.40788019,9.06662637 9.45162112,9.27773958 9.45162112,9.53369849 C9.45162112,9.99442451 9.31914857,10.3299211 9.04462213,10.533419 C8.76759621,10.7398784 8.4180853,10.8414158 7.99608942,10.8414158 L5.58367269,10.8414158 L5.58367269,8.27251917 Z M10.2889476,11.4134099 C10.7775963,11.1786046 11.144187,10.8756847 11.3928855,10.5067654 C11.6407508,10.137 11.7640586,9.67500472 11.7640586,9.12120273 C11.7640586,8.609708 11.6815757,8.17690477 11.5166099,7.83125449 C11.3474782,7.48052733 11.1112772,7.20256865 10.809673,6.99272466 C10.5030699,6.78372682 10.1410616,6.63057455 9.71656622,6.5387678 C9.28915479,6.44526876 8.82175165,6.4 8.30394229,6.4 L3.2,6.4 L3.2,17.3943867 L8.44682935,17.3943867 C8.93256202,17.3943867 9.40621386,17.3321951 9.86195275,17.209081 C10.3235238,17.0859668 10.7346886,16.8968534 11.0933642,16.6392022 C11.4491238,16.3832433 11.737814,16.0524006 11.9498534,15.6432894 C12.1602265,15.2396782 12.2652047,14.7599139 12.2652047,14.2023042 C12.2652047,13.5143882 12.1039881,12.9275866 11.7753062,12.4372455 C11.4482907,11.950289 10.9542264,11.6080233 10.2889476,11.4134099 Z" id="Fill-1" fill="#FFFFFF"></path>
                    </g>
                </g>
            </g>
        </g>
    </g>
</svg>