<svg width="25" height="24" xmlns="http://www.w3.org/2000/svg"><g fill="none" fill-rule="evenodd"><path fill="#0056FE" d="M.8 0h24v24H.8z"/><path d="M15.49 8.222h4.388V7.137h-4.389v1.085zm.44 4.34c.01-.155.043-.33.098-.525.055-.198.15-.385.289-.56.14-.174.322-.32.545-.439.228-.12.513-.179.857-.179.528 0 .961.156 1.217.444.258.29.445.701.497 1.26H15.93zm5.506-.394a4.35 4.35 0 0 0-.689-1.51 3.484 3.484 0 0 0-1.222-1.056c-.498-.264-1.078-.394-1.742-.394-.6 0-1.143.11-1.635.324a3.892 3.892 0 0 0-1.27.888 3.915 3.915 0 0 0-.82 1.334 4.734 4.734 0 0 0-.29 1.666c0 .615.094 1.183.281 1.696.19.516.455.955.796 1.327.351.37.768.654 1.266.856.5.2 1.055.301 1.672.301.886 0 1.646-.206 2.27-.62.631-.411 1.093-1.096 1.398-2.053h-1.896c-.074.246-.264.483-.576.705-.315.222-.69.334-1.124.334-.604 0-1.07-.16-1.393-.48-.323-.32-.532-.916-.532-1.546h5.656a5.722 5.722 0 0 0-.15-1.772zM10.545 14.78a1.16 1.16 0 0 1-.388.438c-.16.112-.348.187-.561.234-.21.047-.433.069-.668.069H6.384v-3.028h2.591c.513 0 .93.12 1.243.36.312.245.47.647.47 1.214 0 .29-.046.529-.143.713zM6.384 8.273h2.23c.21 0 .416.015.613.054.2.035.372.1.525.193.153.09.275.218.367.382.089.165.133.376.133.632 0 .46-.133.796-.407 1-.277.206-.627.307-1.049.307H6.384V8.273zm4.705 3.14c.489-.234.855-.537 1.104-.906.248-.37.371-.832.371-1.386 0-.511-.082-.944-.247-1.29a2.123 2.123 0 0 0-.707-.838 3.067 3.067 0 0 0-1.093-.454A6.599 6.599 0 0 0 9.104 6.4H4v10.994h5.247c.486 0 .96-.062 1.415-.185a3.742 3.742 0 0 0 1.231-.57c.356-.256.645-.587.857-.996.21-.403.315-.883.315-1.44 0-.689-.161-1.275-.49-1.766-.327-.487-.82-.829-1.486-1.024z" fill="#FFF"/></g></svg>