<?xml version="1.0" encoding="utf-8"?>
<!-- Generator: Adobe Illustrator 23.0.1, SVG Export Plug-In . SVG Version: 6.00 Build 0)  -->
<svg version="1.1" id="Layer_1" xmlns="http://www.w3.org/2000/svg" xmlns:xlink="http://www.w3.org/1999/xlink" x="0px" y="0px"
	 viewBox="0 0 156 54" style="enable-background:new 0 0 156 54;" xml:space="preserve">
<style type="text/css">
	.st0{enable-background:new    ;}
	.st1{fill:#333333;}
	.st2{fill-rule:evenodd;clip-rule:evenodd;fill:#333333;}
	.st3{fill-rule:evenodd;clip-rule:evenodd;fill:#FFFFFF;}
</style>
<title>Group 2</title>
<desc>Created with Sketch.</desc>
<g>
	<g class="st0">
		<path class="st1" d="M68.5,35.3V14h6c1.9,0,3.5,0.4,4.9,1.2s2.5,2,3.3,3.5c0.8,1.5,1.2,3.3,1.2,5.2v1.4c0,2-0.4,3.8-1.2,5.3
			c-0.8,1.5-1.9,2.7-3.3,3.5c-1.4,0.8-3.1,1.2-5,1.2H68.5z M71.3,16.3V33h3c2.2,0,3.9-0.7,5.1-2c1.2-1.3,1.8-3.3,1.8-5.8V24
			c0-2.4-0.6-4.3-1.7-5.7c-1.1-1.3-2.8-2-4.8-2H71.3z"/>
		<path class="st1" d="M94.3,35.6c-2.1,0-3.9-0.7-5.2-2.1c-1.3-1.4-2-3.3-2-5.7v-0.5c0-1.6,0.3-3,0.9-4.2c0.6-1.2,1.4-2.2,2.5-2.9
			c1.1-0.7,2.2-1,3.5-1c2.1,0,3.7,0.7,4.8,2s1.7,3.3,1.7,5.8v1.1H89.7c0,1.6,0.5,2.8,1.4,3.8c0.9,1,2,1.4,3.3,1.4
			c1,0,1.8-0.2,2.4-0.6s1.2-0.9,1.7-1.6l1.7,1.3C98.9,34.6,97,35.6,94.3,35.6z M94,21.4c-1.1,0-2,0.4-2.8,1.2
			c-0.7,0.8-1.2,1.9-1.4,3.3h7.9v-0.2c-0.1-1.4-0.4-2.4-1.1-3.2C96,21.8,95.1,21.4,94,21.4z"/>
		<path class="st1" d="M112.8,31.1c0-0.7-0.3-1.3-0.8-1.7c-0.6-0.4-1.5-0.8-2.9-1c-1.4-0.3-2.5-0.6-3.3-1.1
			c-0.8-0.4-1.4-0.9-1.8-1.5c-0.4-0.6-0.6-1.2-0.6-2c0-1.3,0.5-2.4,1.6-3.3c1.1-0.9,2.5-1.3,4.2-1.3c1.8,0,3.3,0.5,4.4,1.4
			c1.1,0.9,1.7,2.1,1.7,3.6h-2.7c0-0.7-0.3-1.4-0.9-1.9c-0.6-0.5-1.4-0.8-2.4-0.8c-1,0-1.8,0.2-2.3,0.6s-0.8,1-0.8,1.7
			c0,0.7,0.3,1.1,0.8,1.5s1.5,0.6,2.8,1c1.4,0.3,2.4,0.7,3.3,1.1c0.8,0.4,1.5,0.9,1.9,1.5c0.4,0.6,0.6,1.3,0.6,2.2
			c0,1.4-0.6,2.6-1.7,3.4c-1.1,0.9-2.6,1.3-4.4,1.3c-1.3,0-2.4-0.2-3.4-0.7s-1.7-1.1-2.3-1.9c-0.6-0.8-0.8-1.7-0.8-2.6h2.7
			c0,0.9,0.4,1.6,1.1,2.2c0.7,0.5,1.6,0.8,2.7,0.8c1,0,1.8-0.2,2.5-0.6C112.5,32.4,112.8,31.8,112.8,31.1z"/>
		<path class="st1" d="M119.1,15.3c0-0.4,0.1-0.8,0.4-1.1c0.3-0.3,0.7-0.5,1.2-0.5s0.9,0.2,1.2,0.5s0.4,0.7,0.4,1.1
			s-0.1,0.8-0.4,1.1s-0.7,0.4-1.2,0.4s-0.9-0.1-1.2-0.4C119.2,16.1,119.1,15.7,119.1,15.3z M122,35.3h-2.7V19.5h2.7V35.3z"/>
		<path class="st1" d="M125.7,27.3c0-2.5,0.6-4.4,1.7-5.9c1.1-1.5,2.7-2.2,4.5-2.2c1.9,0,3.4,0.7,4.5,2.1l0.1-1.8h2.5V35
			c0,2.1-0.6,3.7-1.8,4.8c-1.2,1.2-2.8,1.8-4.9,1.8c-1.1,0-2.3-0.2-3.4-0.7s-1.9-1.2-2.5-2l1.4-1.6c1.2,1.4,2.6,2.2,4.3,2.2
			c1.3,0,2.3-0.4,3.1-1.1c0.7-0.7,1.1-1.8,1.1-3.1v-1.4c-1.1,1.2-2.6,1.9-4.4,1.9c-1.9,0-3.4-0.7-4.5-2.2
			C126.3,31.9,125.7,29.9,125.7,27.3z M128.4,27.6c0,1.8,0.4,3.2,1.1,4.2c0.7,1,1.8,1.5,3.1,1.5c1.7,0,3-0.8,3.8-2.3v-7.2
			c-0.8-1.5-2.1-2.3-3.7-2.3c-1.3,0-2.3,0.5-3.1,1.5S128.4,25.6,128.4,27.6z"/>
		<path class="st1" d="M145.8,19.5l0.1,2c1.2-1.5,2.8-2.3,4.7-2.3c3.3,0,5,1.9,5.1,5.7v10.5H153V24.9c0-1.1-0.3-2-0.8-2.5
			c-0.5-0.5-1.3-0.8-2.4-0.8c-0.9,0-1.7,0.2-2.3,0.7s-1.2,1.1-1.6,1.8v11.3h-2.7V19.5H145.8z"/>
	</g>
	<g>
		<rect id="Rectangle-7" y="0" class="st2" width="54" height="54"/>
		<path id="Fill-1" class="st3" d="M16.8,23.3c1.7,0,3-1.4,3-3c0-1.7-1.4-3-3-3s-3,1.4-3,3C13.8,21.9,15.1,23.3,16.8,23.3z
			 M38.5,28.3c0-1.7-1.4-3-3-3c-1.7,0-3,1.4-3,3c0,1.7,1.4,3,3,3S38.5,29.9,38.5,28.3z M42.6,16v19.2h-4.1v-0.6
			c-0.9,0.4-2,0.7-3.1,0.7c-3.9,0-7.1-3.2-7.1-7.1s3.2-7.1,7.1-7.1c1.1,0,2.1,0.3,3.1,0.7V16H42.6z M28.4,16v12.3v6.9h-4.1V23.8
			l-7.5,16.8h-4.4l2.2-5L9,23.3h4.5l3.4,7.4l3.3-7.4h4.2V16H28.4z"/>
	</g>
</g>
</svg>
