<svg viewBox="0 0 156 54" xmlns="http://www.w3.org/2000/svg"><path d="m68.5 35.3v-21.3h6c1.9 0 3.5.4 4.9 1.2s2.5 2 3.3 3.5 1.2 3.3 1.2 5.2v1.4c0 2-.4 3.8-1.2 5.3s-1.9 2.7-3.3 3.5-3.1 1.2-5 1.2zm2.8-19v16.7h3c2.2 0 3.9-.7 5.1-2s1.8-3.3 1.8-5.8v-1.2c0-2.4-.6-4.3-1.7-5.7-1.1-1.3-2.8-2-4.8-2zm23 19.3c-2.1 0-3.9-.7-5.2-2.1s-2-3.3-2-5.7v-.5c0-1.6.3-3 .9-4.2s1.4-2.2 2.5-2.9 2.2-1 3.5-1c2.1 0 3.7.7 4.8 2s1.7 3.3 1.7 5.8v1.1h-10.8c0 1.6.5 2.8 1.4 3.8s2 1.4 3.3 1.4c1 0 1.8-.2 2.4-.6s1.2-.9 1.7-1.6l1.7 1.3c-1.3 2.2-3.2 3.2-5.9 3.2zm-.3-14.2c-1.1 0-2 .4-2.8 1.2-.7.8-1.2 1.9-1.4 3.3h7.9v-.2c-.1-1.4-.4-2.4-1.1-3.2-.6-.7-1.5-1.1-2.6-1.1zm18.8 9.7c0-.7-.3-1.3-.8-1.7-.6-.4-1.5-.8-2.9-1-1.4-.3-2.5-.6-3.3-1.1-.8-.4-1.4-.9-1.8-1.5s-.6-1.2-.6-2c0-1.3.5-2.4 1.6-3.3s2.5-1.3 4.2-1.3c1.8 0 3.3.5 4.4 1.4s1.7 2.1 1.7 3.6h-2.7c0-.7-.3-1.4-.9-1.9s-1.4-.8-2.4-.8-1.8.2-2.3.6-.8 1-.8 1.7.3 1.1.8 1.5 1.5.6 2.8 1c1.4.3 2.4.7 3.3 1.1.8.4 1.5.9 1.9 1.5s.6 1.3.6 2.2c0 1.4-.6 2.6-1.7 3.4-1.1.9-2.6 1.3-4.4 1.3-1.3 0-2.4-.2-3.4-.7s-1.7-1.1-2.3-1.9-.8-1.7-.8-2.6h2.7c0 .9.4 1.6 1.1 2.2.7.5 1.6.8 2.7.8 1 0 1.8-.2 2.5-.6.5-.6.8-1.2.8-1.9zm6.3-15.8c0-.4.1-.8.4-1.1s.7-.5 1.2-.5.9.2 1.2.5.4.7.4 1.1-.1.8-.4 1.1-.7.4-1.2.4-.9-.1-1.2-.4-.4-.7-.4-1.1zm2.9 20h-2.7v-15.8h2.7zm3.7-8c0-2.5.6-4.4 1.7-5.9s2.7-2.2 4.5-2.2c1.9 0 3.4.7 4.5 2.1l.1-1.8h2.5v15.5c0 2.1-.6 3.7-1.8 4.8-1.2 1.2-2.8 1.8-4.9 1.8-1.1 0-2.3-.2-3.4-.7s-1.9-1.2-2.5-2l1.4-1.6c1.2 1.4 2.6 2.2 4.3 2.2 1.3 0 2.3-.4 3.1-1.1.7-.7 1.1-1.8 1.1-3.1v-1.4c-1.1 1.2-2.6 1.9-4.4 1.9-1.9 0-3.4-.7-4.5-2.2-1.1-1.7-1.7-3.7-1.7-6.3zm2.7.3c0 1.8.4 3.2 1.1 4.2s1.8 1.5 3.1 1.5c1.7 0 3-.8 3.8-2.3v-7.2c-.8-1.5-2.1-2.3-3.7-2.3-1.3 0-2.3.5-3.1 1.5s-1.2 2.6-1.2 4.6zm17.4-8.1.1 2c1.2-1.5 2.8-2.3 4.7-2.3 3.3 0 5 1.9 5.1 5.7v10.5h-2.7v-10.5c0-1.1-.3-2-.8-2.5s-1.3-.8-2.4-.8c-.9 0-1.7.2-2.3.7s-1.2 1.1-1.6 1.8v11.3h-2.7v-15.9z" fill="#333"/><g clip-rule="evenodd" fill-rule="evenodd"><path d="m0 0h54v54h-54z" fill="#333"/><path d="m16.8 23.3c1.7 0 3-1.4 3-3 0-1.7-1.4-3-3-3s-3 1.4-3 3 1.3 3 3 3zm21.7 5c0-1.7-1.4-3-3-3-1.7 0-3 1.4-3 3 0 1.7 1.4 3 3 3s3-1.4 3-3zm4.1-12.3v19.2h-4.1v-.6c-.9.4-2 .7-3.1.7-3.9 0-7.1-3.2-7.1-7.1s3.2-7.1 7.1-7.1c1.1 0 2.1.3 3.1.7v-5.8zm-14.2 0v19.2h-4.1v-11.4l-7.5 16.8h-4.4l2.2-5-5.6-12.3h4.5l3.4 7.4 3.3-7.4h4.2v-7.3z" fill="#fff"/></g></svg>