<svg id="Layer_1" xmlns="http://www.w3.org/2000/svg" viewBox="0 0 156 54"><style>.st1{fill:#333}</style><path class="st1" d="M68.5 35.3V14h6c1.9 0 3.5.4 4.9 1.2s2.5 2 3.3 3.5c.8 1.5 1.2 3.3 1.2 5.2v1.4c0 2-.4 3.8-1.2 5.3-.8 1.5-1.9 2.7-3.3 3.5-1.4.8-3.1 1.2-5 1.2h-5.9zm2.8-19V33h3c2.2 0 3.9-.7 5.1-2 1.2-1.3 1.8-3.3 1.8-5.8V24c0-2.4-.6-4.3-1.7-5.7-1.1-1.3-2.8-2-4.8-2h-3.4zM94.3 35.6c-2.1 0-3.9-.7-5.2-2.1-1.3-1.4-2-3.3-2-5.7v-.5c0-1.6.3-3 .9-4.2.6-1.2 1.4-2.2 2.5-2.9 1.1-.7 2.2-1 3.5-1 2.1 0 3.7.7 4.8 2s1.7 3.3 1.7 5.8v1.1H89.7c0 1.6.5 2.8 1.4 3.8.9 1 2 1.4 3.3 1.4 1 0 1.8-.2 2.4-.6s1.2-.9 1.7-1.6l1.7 1.3c-1.3 2.2-3.2 3.2-5.9 3.2zM94 21.4c-1.1 0-2 .4-2.8 1.2-.7.8-1.2 1.9-1.4 3.3h7.9v-.2c-.1-1.4-.4-2.4-1.1-3.2-.6-.7-1.5-1.1-2.6-1.1zM112.8 31.1c0-.7-.3-1.3-.8-1.7-.6-.4-1.5-.8-2.9-1-1.4-.3-2.5-.6-3.3-1.1-.8-.4-1.4-.9-1.8-1.5-.4-.6-.6-1.2-.6-2 0-1.3.5-2.4 1.6-3.3 1.1-.9 2.5-1.3 4.2-1.3 1.8 0 3.3.5 4.4 1.4 1.1.9 1.7 2.1 1.7 3.6h-2.7c0-.7-.3-1.4-.9-1.9-.6-.5-1.4-.8-2.4-.8s-1.8.2-2.3.6-.8 1-.8 1.7.3 1.1.8 1.5 1.5.6 2.8 1c1.4.3 2.4.7 3.3 1.1.8.4 1.5.9 1.9 1.5.4.6.6 1.3.6 2.2 0 1.4-.6 2.6-1.7 3.4-1.1.9-2.6 1.3-4.4 1.3-1.3 0-2.4-.2-3.4-.7s-1.7-1.1-2.3-1.9c-.6-.8-.8-1.7-.8-2.6h2.7c0 .9.4 1.6 1.1 2.2.7.5 1.6.8 2.7.8 1 0 1.8-.2 2.5-.6.5-.6.8-1.2.8-1.9zM119.1 15.3c0-.4.1-.8.4-1.1.3-.3.7-.5 1.2-.5s.9.2 1.2.5.4.7.4 1.1-.1.8-.4 1.1-.7.4-1.2.4-.9-.1-1.2-.4c-.3-.3-.4-.7-.4-1.1zm2.9 20h-2.7V19.5h2.7v15.8zM125.7 27.3c0-2.5.6-4.4 1.7-5.9s2.7-2.2 4.5-2.2c1.9 0 3.4.7 4.5 2.1l.1-1.8h2.5V35c0 2.1-.6 3.7-1.8 4.8-1.2 1.2-2.8 1.8-4.9 1.8-1.1 0-2.3-.2-3.4-.7s-1.9-1.2-2.5-2l1.4-1.6c1.2 1.4 2.6 2.2 4.3 2.2 1.3 0 2.3-.4 3.1-1.1.7-.7 1.1-1.8 1.1-3.1v-1.4c-1.1 1.2-2.6 1.9-4.4 1.9-1.9 0-3.4-.7-4.5-2.2-1.1-1.7-1.7-3.7-1.7-6.3zm2.7.3c0 1.8.4 3.2 1.1 4.2.7 1 1.8 1.5 3.1 1.5 1.7 0 3-.8 3.8-2.3v-7.2c-.8-1.5-2.1-2.3-3.7-2.3-1.3 0-2.3.5-3.1 1.5s-1.2 2.6-1.2 4.6zM145.8 19.5l.1 2c1.2-1.5 2.8-2.3 4.7-2.3 3.3 0 5 1.9 5.1 5.7v10.5H153V24.9c0-1.1-.3-2-.8-2.5s-1.3-.8-2.4-.8c-.9 0-1.7.2-2.3.7s-1.2 1.1-1.6 1.8v11.3h-2.7V19.5h2.6z"/><g fill-rule="evenodd" clip-rule="evenodd"><path id="Rectangle-7" fill="#333" d="M0 0h54v54H0z"/><path id="Fill-1" d="M16.8 23.3c1.7 0 3-1.4 3-3 0-1.7-1.4-3-3-3s-3 1.4-3 3 1.3 3 3 3zm21.7 5c0-1.7-1.4-3-3-3-1.7 0-3 1.4-3 3 0 1.7 1.4 3 3 3s3-1.4 3-3zM42.6 16v19.2h-4.1v-.6c-.9.4-2 .7-3.1.7-3.9 0-7.1-3.2-7.1-7.1s3.2-7.1 7.1-7.1c1.1 0 2.1.3 3.1.7V16h4.1zm-14.2 0V35.2h-4.1V23.8l-7.5 16.8h-4.4l2.2-5L9 23.3h4.5l3.4 7.4 3.3-7.4h4.2V16h4z" fill="#fff"/></g></svg>