<svg width="25" height="24" xmlns="http://www.w3.org/2000/svg" xmlns:xlink="http://www.w3.org/1999/xlink"><defs><path id="a" d="M0 .069h23.963V24H0z"/></defs><g fill="none" fill-rule="evenodd"><path d="M23.537 12c0 5.93-4.807 10.737-10.737 10.737S2.063 17.93 2.063 12 6.87 1.263 12.8 1.263 23.537 6.07 23.537 12" fill="#EA4C89"/><g transform="translate(.8)"><mask id="b" fill="#fff"><use xlink:href="#a"/></mask><path d="M19.903 5.587c-.215.291-1.93 2.487-5.714 4.03a31.465 31.465 0 0 1 .9 2.007c3.405-.427 6.788.258 7.126.33a10.164 10.164 0 0 0-2.312-6.367M9.583 2.114a54.542 54.542 0 0 1 3.819 5.983c3.64-1.362 5.18-3.43 5.364-3.692a10.239 10.239 0 0 0-9.182-2.291m-7.62 7.843c.457.006 4.674.024 9.46-1.245A65.214 65.214 0 0 0 7.632 2.8a10.26 10.26 0 0 0-5.667 7.156m2.414 8.927c.232-.397 3.04-5.04 8.32-6.745.132-.043.267-.083.402-.121a34.257 34.257 0 0 0-.83-1.735C7.16 11.811 2.2 11.747 1.754 11.738a10.172 10.172 0 0 0 2.626 7.146m11.6 2.574c-.152-.896-.746-4.022-2.183-7.75l-.067.022c-5.773 2.01-7.845 6.007-8.03 6.383a10.191 10.191 0 0 0 6.283 2.158c1.417 0 2.768-.29 3.997-.813m6.107-7.786c-.35-.11-3.167-.95-6.374-.437 1.338 3.674 1.883 6.666 1.988 7.288a10.237 10.237 0 0 0 4.386-6.85M11.982 24C5.375 24 0 18.632 0 12.034 0 5.437 5.375.07 11.982.07c6.606 0 11.981 5.368 11.981 11.965C23.963 18.632 18.588 24 11.982 24" fill="#C32361" mask="url(#b)"/></g></g></svg>