<svg xmlns="http://www.w3.org/2000/svg" width="221" height="54"><g fill="none" fill-rule="evenodd"><path fill="#52FFAC" d="M0 0h54v54H0z"/><path fill="#090329" d="M16.82 23.29a3.038 3.038 0 1 0 0-6.075 3.038 3.038 0 0 0 0 6.076zm21.659 4.962a3.04 3.04 0 0 0-3.037-3.038 3.041 3.041 0 0 0-3.038 3.038 3.041 3.041 0 0 0 3.038 3.038 3.04 3.04 0 0 0 3.037-3.038zM42.558 16v19.188h-4.05v-.555a7.03 7.03 0 0 1-3.066.707 7.096 7.096 0 0 1-7.088-7.088 7.096 7.096 0 0 1 7.088-7.088c1.099 0 2.136.259 3.065.708V16h4.05zm-14.204 0v19.188h-4.05V23.793L16.82 40.632h-4.433l2.236-5.032L9 23.29h4.453l3.367 7.37 3.275-7.37h4.208V16h4.05z"/><text fill="#FFF" font-family="Roboto-Regular, Roboto" font-size="30" transform="translate(0 -15)"><tspan x="66" y="28">Engineering</tspan></text></g></svg>