<?xml version="1.0" encoding="UTF-8"?>
<svg width="680px" height="326px" viewBox="0 0 680 326" version="1.1" xmlns="http://www.w3.org/2000/svg" xmlns:xlink="http://www.w3.org/1999/xlink">
    <!-- Generator: Sketch 52.3 (67297) - http://www.bohemiancoding.com/sketch -->
    <title>graphic</title>
    <desc>Created with Sketch.</desc>
    <g id="Egnineering-Layout" stroke="none" stroke-width="1" fill="none" fill-rule="evenodd">
        <g id="Engineering" transform="translate(-301.000000, -1206.000000)">
            <g id="background" transform="translate(0.000000, 1206.000000)">
                <g id="graphic" transform="translate(299.000000, -322.000000)">
                    <path d="M339.428571,1.31440162 C302.480194,1.31440162 274.981636,15.6821258 250.721597,28.3569006 C245.173301,31.2564706 239.93369,33.9943692 234.797423,36.441785 C197.391385,54.2676998 165.339036,71.7755294 151.962194,105.596398 C144.38328,124.764316 145.573735,147.657249 146.833979,171.894815 C147.572141,186.091667 148.334462,200.772219 147.397667,215.538207 C146.430003,230.766864 142.736507,246.182166 138.825589,262.503091 C134.06914,282.35187 129.151637,302.87888 129.151637,324 C129.151637,345.115862 134.059745,365.640243 138.808142,385.487708 C142.715033,401.824406 146.405845,417.255481 147.365456,432.497282 C148.294198,447.268527 147.523825,461.950394 146.776268,476.149874 C145.502603,500.391383 144.298727,523.28826 151.873614,542.458807 C165.251799,576.31385 197.322937,593.800649 234.753133,611.596333 C239.900138,614.043748 245.151827,616.782961 250.71086,619.683846 C274.976267,632.340219 302.47751,646.685598 339.428571,646.685598 C376.376949,646.685598 403.875507,632.317874 428.135546,619.643099 C433.683842,616.743529 438.923452,614.005631 444.05972,611.558215 C481.465758,593.7323 513.518106,576.224471 526.894949,542.403602 C534.473863,523.235684 533.283408,500.342751 532.023164,476.105185 C531.285002,461.908333 530.522681,447.227781 531.459476,432.461793 C532.42714,417.233136 536.120636,401.817834 540.031554,385.496909 C544.788003,365.64813 549.705506,345.12112 549.705506,324 C549.705506,302.877566 544.786661,282.349241 540.030211,262.497834 C536.120636,246.176909 532.42714,230.761606 531.459476,215.534264 C530.522681,200.766961 531.285002,186.087724 532.023164,171.890872 C533.283408,147.655935 534.473863,124.765631 526.896291,105.600341 C513.518106,71.7755294 481.465758,54.2676998 444.05972,36.441785 C438.923452,33.9943692 433.683842,31.2564706 428.135546,28.3569006 C403.875507,15.6821258 376.376949,1.31440162 339.428571,1.31440162 M339.428571,648 C302.143323,648 274.483712,633.571813 250.081409,620.844462 C244.53177,617.95015 239.290818,615.216195 234.165288,612.779294 C196.476064,594.857428 164.176766,577.233931 150.622765,542.933306 C142.944535,523.501193 144.155121,500.467619 145.436839,476.08284 C146.181712,461.920162 146.950743,447.275099 146.024685,432.578775 C145.073126,417.447383 141.394394,402.070199 137.500924,385.787391 C132.736422,365.867635 127.809524,345.269647 127.809524,324 C127.809524,302.72641 132.745816,282.125793 137.519713,262.202093 C141.41721,245.936373 145.097284,230.574961 146.058238,215.456714 C146.991006,200.764333 146.230028,186.121899 145.493208,171.96185 C144.226253,147.5797 143.027746,124.551383 150.712686,105.121899 C164.262662,70.8554483 196.544511,53.2096065 234.21092,35.2601379 C239.324371,32.8232373 244.554586,30.0905963 250.090803,27.1975984 C274.48908,14.449217 302.143323,0 339.428571,0 C376.713819,0 404.368063,14.449217 428.766339,27.1975984 C434.302557,30.0905963 439.532772,32.8232373 444.646223,35.2601379 C482.312631,53.2082921 514.594481,70.8554483 528.145799,105.124527 C535.829397,124.552698 534.63089,147.578385 533.363935,171.957907 C532.627115,186.117955 531.866137,200.759075 532.798905,215.451456 C533.759858,230.569704 537.439933,245.931116 541.336088,262.196836 C546.111327,282.12185 551.047619,302.723781 551.047619,324 C551.047619,345.27359 546.111327,365.874207 541.33743,385.797907 C537.439933,402.063627 533.759858,417.425039 532.798905,432.543286 C531.866137,447.235667 532.627115,461.878101 533.363935,476.03815 C534.63089,500.4203 535.829397,523.448617 528.144457,542.878101 C514.594481,577.144552 482.312631,594.790394 444.646223,612.739862 C439.532772,615.176763 434.302557,617.909404 428.766339,620.802402 C404.368063,633.550783 376.713819,648 339.428571,648" id="Fill-1" fill="#A533FF"></path>
                    <path d="M216.67806,535.508942 C222.4738,535.508942 228.303057,535.658418 234.132314,536.074066 C248.643785,537.108597 263.337589,540.69864 278.893446,544.499786 C298.242075,549.229256 318.247634,554.117379 338.904762,554.117379 C359.555186,554.117379 379.555383,549.239745 398.898649,544.522076 C414.471935,540.723553 429.183167,537.13482 443.708045,536.108157 C457.301154,535.150987 470.895603,535.630883 484.044948,536.093734 C508.323241,536.951254 531.262198,537.764193 549.927082,529.296514 C581.040138,515.180221 594.904063,481.966416 609.581778,446.802869 L609.640768,446.66126 C612.241678,440.431787 615.424442,434.004323 618.793559,427.199237 C629.623536,405.329865 641.89742,380.54178 641.89742,348.68637 C641.89742,316.832271 629.604766,292.045497 618.758702,270.178748 C615.390925,263.388084 612.209502,256.972422 609.608592,250.754749 L609.516085,250.533158 C594.833007,215.432547 580.966401,182.279057 549.870774,168.164075 C531.213934,159.695086 508.284361,160.490979 484.00875,161.335387 C470.859405,161.791682 457.263615,162.266333 443.67721,161.298674 C429.165738,160.262832 414.471935,156.672788 398.916078,152.871643 C379.567449,148.142173 359.56189,143.254049 338.904762,143.254049 C318.248975,143.254049 298.244756,148.142173 278.897468,152.870331 C263.341611,156.671477 248.646467,160.262832 234.134995,161.297363 C220.541887,162.263711 206.947437,161.790371 193.799433,161.335387 C169.531866,160.488357 146.602293,159.692463 127.945454,168.160142 C96.8471452,182.276435 82.9765167,215.432547 68.2920982,250.534469 L68.2022729,250.750816 C65.6000218,256.968488 62.4185989,263.38284 59.0521628,270.173503 C48.2060982,292.041563 35.912104,316.828337 35.912104,348.68637 C35.912104,380.540469 48.2047575,405.325932 59.0508221,427.193992 C62.4172582,433.983344 65.6000218,440.399007 68.2009322,446.616679 L68.2934389,446.838271 C82.975176,481.940192 96.8431231,515.093683 127.93875,529.207353 C146.59559,537.676343 169.525163,536.88176 193.800774,536.036041 C201.308556,535.775114 208.963813,535.508942 216.67806,535.508942 M338.904762,555.428571 C318.082731,555.428571 297.99405,550.519469 278.569003,545.772953 C263.070794,541.98492 248.430618,538.407988 234.034445,537.382636 C220.516414,536.41891 206.958163,536.889627 193.849038,537.345922 C169.405843,538.195575 146.322092,538.998024 127.372985,530.396605 C95.802759,516.066587 81.8369425,482.681016 67.053314,447.335213 L66.9594668,447.113621 C64.3733038,440.933973 61.2012656,434.536667 57.8428735,427.765672 C46.9351378,405.771737 34.5714286,380.842043 34.5714286,348.68637 C34.5714286,316.526763 46.9364785,291.597069 57.8442142,269.600512 C61.2039469,262.829516 64.3746444,256.433522 66.9608074,250.253874 L67.0519734,250.038838 C81.8382832,214.690413 95.8054403,181.302219 127.381029,166.972202 C146.327455,158.372093 169.407183,159.169298 193.846357,160.024195 C206.956822,160.48049 220.517755,160.95383 234.037126,159.988793 C248.433299,158.963441 263.072135,155.386509 278.573025,151.597164 C297.998072,146.850649 318.084072,141.942857 338.904762,141.942857 C359.726793,141.942857 379.815474,146.85196 399.240521,151.598475 C414.73873,155.386509 429.378906,158.963441 443.775079,159.988793 C457.29311,160.951208 470.85002,160.481801 483.960486,160.025506 C508.401,159.173231 531.48475,158.370782 550.436539,166.976135 C582.006765,181.304842 595.972581,214.690413 610.75621,250.036216 L610.850057,250.257807 C613.434879,256.437455 616.608258,262.834761 619.96665,269.605757 C630.874386,291.599692 643.238095,316.529386 643.238095,348.68637 C643.238095,380.842043 630.891815,405.774359 620.000167,427.772228 C616.639094,434.557646 613.467056,440.966753 610.882233,447.15689 L610.823244,447.298499 C596.043637,482.70724 582.083183,516.151815 550.490166,530.484454 C531.535696,539.083252 508.446583,538.265068 483.996684,537.403615 C470.882197,536.940764 457.322605,536.46349 443.804574,537.416727 C429.394994,538.434212 414.73873,542.009832 399.221752,545.793932 C379.802067,550.531269 359.720089,555.428571 338.904762,555.428571" id="Fill-3" fill="#33CAFF"></path>
                    <path d="M271.159046,19.8380678 C248.677554,19.8380678 225.61298,26.0447239 202.173089,33.206655 C177.195739,40.8396446 159.047819,59.0569761 133.929724,84.2717631 C129.211453,89.0073482 124.33099,93.9060933 119.097998,99.0429992 C113.870368,104.174642 108.873289,108.97207 104.039741,113.612917 C78.1308004,138.484279 59.411862,156.455555 51.6347563,180.978228 C39.6929716,218.630011 30.3583001,255.306783 47.0759944,290.084846 C56.1238164,308.906133 73.7355695,324.352377 92.3821254,340.702581 C103.630914,350.568493 115.260381,360.767304 125.716983,372.300342 C136.369285,384.047856 145.2013,397.848027 154.553397,412.460051 C165.831674,430.081323 177.493312,448.303917 193.023396,463.548844 C208.548118,478.788507 227.100844,490.238649 245.04234,501.313787 C259.935726,510.506006 274.003413,519.189009 285.976028,529.660191 C297.720771,539.934003 308.10767,551.359145 318.154104,562.409282 C334.806118,580.726615 350.535924,598.02683 369.709264,606.916414 C405.157961,623.352145 442.520774,614.159925 480.868795,602.4032 C485.447663,601.000551 490.034574,599.709746 494.471358,598.463678 C519.574707,591.407011 543.286703,584.739823 571.211633,557.328956 C604.348108,524.80092 622.240009,483.493828 631.41383,454.571101 C643.354274,416.918001 652.688946,380.24123 635.971252,345.464482 C626.92343,326.64188 609.311676,311.196951 590.665121,294.845432 C579.417672,284.980836 567.786865,274.782025 557.330263,263.247671 C546.677961,251.501472 537.845946,237.699985 528.493849,223.089277 C517.215572,205.46669 505.553934,187.245411 490.02385,172.000485 C474.493767,156.755558 455.931657,145.306732 437.979438,134.235542 C423.096776,125.057796 409.038471,116.387952 397.073899,105.933874 C385.323794,95.6692731 374.932873,84.2507102 364.883759,73.2084678 C348.226384,54.904293 332.493897,37.6172361 313.319216,28.7355468 C299.541059,22.3525728 285.466669,19.8380678 271.159046,19.8380678 M411.845306,617.142857 C397.372812,617.142857 383.124168,614.59151 369.136906,608.105903 C349.715588,599.101844 333.899995,581.704259 317.152812,563.284293 C307.133187,552.263104 296.771755,540.865594 285.083309,530.641782 C273.196482,520.245601 259.174368,511.59023 244.327897,502.426958 C226.324742,491.313662 207.706335,479.82273 192.07572,464.479118 C176.438403,449.130243 164.735212,430.843174 153.418063,413.16006 C144.098136,398.596721 135.29427,384.839971 124.717031,373.174037 C114.310025,361.698894 102.708706,351.523768 91.489407,341.685488 C72.7382985,325.241862 55.0273544,309.71009 45.8642564,290.64538 C28.9414782,255.440995 38.3324473,218.497115 50.3533166,180.587433 C58.232294,155.747651 77.0531043,137.679006 103.102789,112.672116 C107.933656,108.0339 112.928054,103.239104 118.150323,98.1127245 C123.377953,92.9810818 128.254394,88.0849684 132.971325,83.3520148 C158.227483,57.9990683 176.474594,39.6817354 201.774985,31.9500604 C240.39377,20.1472822 278.026008,10.9313782 313.892915,27.5447425 C333.311552,36.5395911 349.132506,53.9253334 365.883711,72.3321411 C375.907357,83.3467516 386.27281,94.7363668 397.963937,104.952283 C409.846743,115.332675 423.858133,123.974888 438.69254,133.12237 C456.707759,144.231719 475.335549,155.720019 490.971526,171.07021 C506.608843,186.420401 518.312033,204.704838 529.629183,222.389269 C538.94911,236.952607 547.754317,250.708041 558.330215,262.373976 C568.737221,273.850434 580.33854,284.024245 591.557839,293.863841 C610.310288,310.307466 628.019892,325.839238 637.182989,344.903949 C654.105768,380.108333 644.716139,417.052213 632.693929,454.960579 C623.474534,484.02673 605.488804,525.541719 572.159309,558.259231 C543.989082,585.912206 520.114896,592.624131 494.839973,599.728167 C490.411231,600.972919 485.832363,602.261093 481.26958,603.659795 C457.706371,610.882253 434.503734,617.142857 411.845306,617.142857" id="Fill-5" fill="#FFE133"></path>
                    <path d="M424.789678,516.089605 C427.442935,516.089605 430.07878,516.150176 432.703911,516.283168 C448.402459,517.079807 463.775545,519.610616 478.642356,522.05847 C503.289117,526.115402 526.5684,529.948485 547.172996,525.098865 C585.272212,516.126474 608.530065,485.984561 630.924036,453.230199 C633.754087,449.092944 636.781024,444.91487 639.988772,440.491879 C656.665048,417.486796 675.567327,391.412349 679.819771,353.255328 C684.073554,315.103574 671.337653,285.629257 660.101826,259.623281 C657.946808,254.632767 655.910993,249.920089 654.060008,245.290367 C639.379367,208.562029 623.288388,174.198589 588.103603,157.332232 C569.060692,148.204464 545.496127,146.978562 520.548011,145.680238 C505.497709,144.898084 489.935775,144.086961 474.438129,141.515332 C458.653862,138.8963 442.979422,133.554211 426.384846,127.901368 C406.368226,121.081877 385.671215,114.02932 363.855844,111.680223 C342.039134,109.331126 320.278677,111.807949 299.236113,114.205765 C281.787031,116.19407 265.30764,118.074401 249.32247,117.265912 C233.627939,116.479807 218.256193,113.956898 203.390721,111.515628 C178.750657,107.471864 155.476731,103.650631 134.877493,108.509469 C96.8130997,117.483177 73.533817,147.605339 51.1117199,180.335999 C48.2856865,184.460086 45.2600896,188.627626 42.0576982,193.036132 C25.3586535,216.035949 6.43226582,242.102496 2.17982221,280.259517 C-2.07262141,318.409954 10.6606011,347.885587 21.8964277,373.891563 C24.0527849,378.882077 26.0872611,383.594755 27.9395854,388.22711 C42.6202262,424.954132 58.7125443,459.317572 93.8959904,476.182612 C112.938902,485.31038 136.503466,486.537599 161.451582,487.834606 C176.501884,488.618077 192.063819,489.427883 207.561464,491.999512 C223.345731,494.618544 239.020172,499.959316 255.614747,505.613476 C275.631367,512.434284 296.328379,519.485524 318.143749,521.834621 C339.956441,524.185035 361.710202,521.713479 382.748748,519.326197 C397.346349,517.669715 411.268916,516.089605 424.789678,516.089605 M525.715232,528.685714 C510.786811,528.685714 494.90879,526.071949 478.421363,523.35811 C463.592054,520.915524 448.25647,518.391298 432.635604,517.59861 C416.746867,516.79407 400.308996,518.6586 382.902773,520.635054 C361.790563,523.030238 339.95778,525.51101 317.99776,523.143479 C296.032382,520.778581 275.261706,513.702322 255.175439,506.857813 C238.635777,501.222087 223.012233,495.89975 207.339132,493.297836 C191.917829,490.738058 176.393396,489.930885 161.380596,489.150047 C136.293188,487.84514 112.596027,486.611337 93.3106934,477.366378 C57.6919578,460.29329 41.4750799,425.687566 26.6926484,388.707727 C24.8483602,384.093806 22.8152234,379.389029 20.6642236,374.406416 C9.36410805,348.251646 -3.44143948,318.608784 0.848506004,280.11599 C5.13845148,241.617929 24.174666,215.402588 40.9688047,192.271096 C44.1644994,187.867856 47.1833995,183.709534 50.0000574,179.599931 C72.5761801,146.645422 96.0322573,116.313895 134.566763,107.228263 C155.427175,102.311488 178.833696,106.151155 203.611714,110.217305 C218.441023,112.650674 233.772589,115.166999 249.390777,115.951787 C265.26478,116.747109 281.690597,114.878629 299.082087,112.896908 C320.198316,110.49119 342.037795,108.005151 364.001833,110.371365 C385.967211,112.73758 406.736548,119.813839 426.824154,126.657032 C443.363816,132.292757 458.98736,137.615094 474.660461,140.217008 C490.081764,142.776786 505.606197,143.583959 520.618997,144.364797 C545.706405,145.669704 569.403566,146.903507 588.6889,156.148466 C624.307635,173.221554 640.525853,207.829911 655.306945,244.809751 C657.149894,249.422355 659.18437,254.127132 661.33537,259.108429 C672.635485,285.261881 685.442372,314.90606 681.151087,353.398854 C676.861142,391.898232 657.851714,418.120156 641.079005,441.255599 C637.877953,445.672006 634.855035,449.84218 632.035698,453.96495 C609.486363,486.943161 586.053054,517.297072 547.483726,526.378754 C540.499003,528.023385 533.22632,528.685714 525.715232,528.685714" id="Fill-7" fill="#FF5A5A"></path>
                    <path d="M370.790022,38.3495496 C362.222363,38.3495496 353.772471,39.6335071 345.425627,42.6337886 C326.143708,49.5647936 310.535365,66.0223164 294.008962,83.4457642 C285.057216,92.8842317 275.801681,102.64336 265.511656,111.376111 C254.52305,120.702873 241.559145,128.343537 227.835097,136.432338 C210.76803,146.489786 193.121487,156.888922 178.543618,171.205639 C163.964411,185.521043 153.373273,202.851183 143.131427,219.610968 C134.894322,233.089237 127.114908,245.81842 117.617144,256.609183 C108.724283,266.715256 98.7862256,275.802836 89.1760466,284.590783 C71.4331483,300.819638 54.6725465,316.146962 47.614465,335.081722 C35.8523339,366.637901 49.9885713,399.747446 64.9558797,434.801983 L65.0508975,435.025394 C67.7020275,441.234912 70.0881783,447.987188 72.6108335,455.136348 C80.739538,478.150333 89.9495717,504.23688 112.941199,526.814556 C135.931488,549.390919 162.494981,558.436445 185.932255,566.417483 C193.21249,568.896033 200.087228,571.237909 206.411933,573.842621 L206.642117,573.937242 C242.336685,588.633759 276.047924,602.516796 308.186686,590.965121 C327.469943,584.03543 343.079625,567.575279 359.606028,550.150517 C368.555097,540.714678 377.809294,530.955549 388.100657,522.221484 C399.089263,512.896037 412.053168,505.255372 425.777216,497.167886 C442.844283,487.110438 460.490825,476.709988 475.070033,462.39327 C489.645226,448.080495 500.240378,430.760868 510.487577,414.01291 C518.738065,400.525443 526.530862,387.785746 536.042008,376.992355 C544.944238,366.88891 554.887648,357.805272 564.504518,349.019954 C582.266153,332.796356 599.040137,317.472974 606.102234,298.534272 C617.877747,266.964951 603.691994,233.81598 588.673831,198.722018 L588.613608,198.580086 C585.95311,192.363997 583.561606,185.60515 581.030921,178.448106 C572.890172,155.440691 563.664079,129.363344 540.671114,106.784353 C517.682163,84.209305 491.117332,75.1637784 467.680058,67.1814264 C460.401161,64.7041901 453.525085,62.3623147 447.20038,59.7576025 L446.968858,59.6629813 C420.547223,48.7828542 395.20424,38.3495496 370.790022,38.3495496 M282.806231,596.571429 C258.152462,596.571429 232.686357,586.084242 206.124203,575.14892 L205.894019,575.054298 C199.609462,572.465356 192.753461,570.130052 185.494637,567.659387 C161.920859,559.631038 135.202126,550.532944 111.995036,527.743684 C88.7866076,504.95311 79.5217045,478.715432 71.3474985,455.5674 C68.8301964,448.439267 66.4534135,441.706704 63.8170045,435.533983 L63.7219868,435.310572 C48.6502926,400.010283 34.4136844,366.669442 46.356483,334.629642 C53.5256417,315.399192 70.3999972,299.966732 88.2646789,283.630115 C97.8480923,274.864509 107.758046,265.800584 116.605406,255.749707 C126.025549,245.044366 133.776859,232.362493 141.983184,218.934164 C152.267855,202.106041 162.900479,184.706249 177.597455,170.276511 C192.291755,155.84546 210.009226,145.402956 227.145884,135.304768 C240.820415,127.246194 253.734804,119.634441 264.636422,110.383902 C274.872915,101.694519 284.103023,91.9629889 293.03068,82.5508051 C309.666822,65.0077665 325.382228,48.4385381 344.965259,41.3984559 C377.591155,29.6746229 411.543284,43.6509668 447.486772,58.4513039 L447.716956,58.5459251 C454.004189,61.1348671 460.86019,63.4688574 468.119014,65.940837 C491.691454,73.9691854 518.410187,83.0659651 541.617277,105.855225 C564.827044,128.647113 574.106668,154.875592 582.294256,178.017054 C584.819588,185.153071 587.203063,191.89352 589.847501,198.071497 L589.906385,198.213429 C605.030272,233.551829 619.315059,266.93341 607.358877,298.986351 C600.185704,318.21943 583.296627,333.647947 565.417224,349.983251 C555.825781,358.7436 545.909137,367.802268 537.053747,377.851831 C527.618882,388.5598 519.85419,401.252186 511.634482,414.688401 C501.345796,431.50601 490.706481,448.895289 476.016196,463.322398 C461.320558,477.753449 443.601749,488.195953 426.466429,498.294141 C412.791898,506.352716 399.876171,513.964468 388.975891,523.215007 C378.739398,531.90439 369.510628,541.634606 360.584309,551.04679 C343.945491,568.589829 328.230085,585.160371 308.645715,592.199139 C300.12891,595.261187 291.517087,596.571429 282.806231,596.571429" id="Fill-9" fill="#33FFB1"></path>
                </g>
            </g>
        </g>
    </g>
</svg>