<?xml version="1.0" encoding="utf-8"?>
<!-- Generator: Adobe Illustrator 23.0.1, SVG Export Plug-In . SVG Version: 6.00 Build 0)  -->
<svg version="1.1" id="Layer_1" xmlns="http://www.w3.org/2000/svg" xmlns:xlink="http://www.w3.org/1999/xlink" x="0px" y="0px"
	 viewBox="0 0 222.4 54" style="enable-background:new 0 0 222.4 54;" xml:space="preserve">
<style type="text/css">
	.st0{fill-rule:evenodd;clip-rule:evenodd;fill:#333333;}
	.st1{fill-rule:evenodd;clip-rule:evenodd;fill:#FFFFFF;}
	.st2{enable-background:new    ;}
	.st3{fill:#333333;}
</style>
<title>engineering logo</title>
<desc>Created with Sketch.</desc>
<g>
	<g>
		<rect id="Rectangle-7" y="0" class="st0" width="54" height="54"/>
		<path id="Fill-1" class="st1" d="M16.8,23.3c1.7,0,3-1.4,3-3s-1.4-3-3-3s-3,1.4-3,3S15.1,23.3,16.8,23.3z M38.5,28.3
			c0-1.7-1.4-3-3-3c-1.7,0-3,1.4-3,3c0,1.7,1.4,3,3,3S38.5,29.9,38.5,28.3z M42.6,16v19.2h-4.1v-0.6c-0.9,0.4-2,0.7-3.1,0.7
			c-3.9,0-7.1-3.2-7.1-7.1s3.2-7.1,7.1-7.1c1.1,0,2.1,0.3,3.1,0.7V16H42.6z M28.4,16v12.3v6.9h-4.1V23.8l-7.5,16.8h-4.4l2.2-5
			L9,23.3h4.5l3.4,7.4l3.3-7.4h4.2V16H28.4z"/>
	</g>
	<g class="st2">
		<path class="st3" d="M80.5,25.5h-9.2V33H82v2.3H68.5V14h13.4v2.3H71.3v6.9h9.2V25.5z"/>
		<path class="st3" d="M87.7,19.5l0.1,2c1.2-1.5,2.8-2.3,4.7-2.3c3.3,0,5,1.9,5.1,5.7v10.5h-2.7V24.9c0-1.1-0.3-2-0.8-2.5
			s-1.3-0.8-2.4-0.8c-0.9,0-1.7,0.2-2.3,0.7s-1.2,1.1-1.6,1.8v11.3h-2.7V19.5H87.7z"/>
		<path class="st3" d="M101,27.3c0-2.5,0.6-4.4,1.7-5.9c1.1-1.5,2.7-2.2,4.5-2.2c1.9,0,3.4,0.7,4.5,2.1l0.1-1.8h2.5V35
			c0,2.1-0.6,3.7-1.8,4.8c-1.2,1.2-2.8,1.8-4.9,1.8c-1.1,0-2.3-0.2-3.4-0.7s-1.9-1.2-2.5-2l1.4-1.6c1.2,1.4,2.6,2.2,4.3,2.2
			c1.3,0,2.3-0.4,3.1-1.1s1.1-1.8,1.1-3.1v-1.4c-1.1,1.2-2.6,1.9-4.4,1.9c-1.9,0-3.4-0.7-4.5-2.2S101,29.9,101,27.3z M103.7,27.6
			c0,1.8,0.4,3.2,1.1,4.2c0.7,1,1.8,1.5,3.1,1.5c1.7,0,3-0.8,3.8-2.3v-7.2c-0.8-1.5-2.1-2.3-3.7-2.3c-1.3,0-2.3,0.5-3.1,1.5
			S103.7,25.6,103.7,27.6z"/>
		<path class="st3" d="M118.5,15.3c0-0.4,0.1-0.8,0.4-1.1c0.3-0.3,0.7-0.5,1.2-0.5s0.9,0.2,1.2,0.5s0.4,0.7,0.4,1.1
			s-0.1,0.8-0.4,1.1s-0.7,0.4-1.2,0.4s-0.9-0.1-1.2-0.4C118.6,16.1,118.5,15.7,118.5,15.3z M121.4,35.3h-2.7V19.5h2.7V35.3z"/>
		<path class="st3" d="M128.3,19.5l0.1,2c1.2-1.5,2.8-2.3,4.7-2.3c3.3,0,5,1.9,5.1,5.7v10.5h-2.7V24.9c0-1.1-0.3-2-0.8-2.5
			c-0.5-0.5-1.3-0.8-2.4-0.8c-0.9,0-1.7,0.2-2.3,0.7s-1.2,1.1-1.6,1.8v11.3h-2.7V19.5H128.3z"/>
		<path class="st3" d="M148.9,35.6c-2.1,0-3.9-0.7-5.2-2.1c-1.3-1.4-2-3.3-2-5.7v-0.5c0-1.6,0.3-3,0.9-4.2c0.6-1.2,1.4-2.2,2.5-2.9
			c1.1-0.7,2.2-1,3.5-1c2.1,0,3.7,0.7,4.8,2s1.7,3.3,1.7,5.8v1.1h-10.7c0,1.6,0.5,2.8,1.4,3.8c0.9,1,2,1.4,3.3,1.4
			c1,0,1.8-0.2,2.4-0.6s1.2-0.9,1.7-1.6l1.7,1.3C153.5,34.6,151.6,35.6,148.9,35.6z M148.6,21.4c-1.1,0-2,0.4-2.8,1.2
			c-0.7,0.8-1.2,1.9-1.4,3.3h7.9v-0.2c-0.1-1.4-0.4-2.4-1.1-3.2C150.6,21.8,149.7,21.4,148.6,21.4z"/>
		<path class="st3" d="M164.8,35.6c-2.1,0-3.9-0.7-5.2-2.1c-1.3-1.4-2-3.3-2-5.7v-0.5c0-1.6,0.3-3,0.9-4.2c0.6-1.2,1.4-2.2,2.5-2.9
			c1.1-0.7,2.2-1,3.5-1c2.1,0,3.7,0.7,4.8,2s1.7,3.3,1.7,5.8v1.1h-10.7c0,1.6,0.5,2.8,1.4,3.8c0.9,1,2,1.4,3.3,1.4
			c1,0,1.8-0.2,2.4-0.6s1.2-0.9,1.7-1.6l1.7,1.3C169.4,34.6,167.4,35.6,164.8,35.6z M164.5,21.4c-1.1,0-2,0.4-2.8,1.2
			c-0.7,0.8-1.2,1.9-1.4,3.3h7.9v-0.2c-0.1-1.4-0.4-2.4-1.1-3.2C166.5,21.8,165.6,21.4,164.5,21.4z"/>
		<path class="st3" d="M181.8,21.9c-0.4-0.1-0.9-0.1-1.3-0.1c-1.8,0-3,0.8-3.6,2.3v11.2h-2.7V19.5h2.6l0,1.8
			c0.9-1.4,2.1-2.1,3.8-2.1c0.5,0,0.9,0.1,1.2,0.2V21.9z"/>
		<path class="st3" d="M184.3,15.3c0-0.4,0.1-0.8,0.4-1.1c0.3-0.3,0.7-0.5,1.2-0.5s0.9,0.2,1.2,0.5s0.4,0.7,0.4,1.1
			s-0.1,0.8-0.4,1.1s-0.7,0.4-1.2,0.4s-0.9-0.1-1.2-0.4C184.4,16.1,184.3,15.7,184.3,15.3z M187.2,35.3h-2.7V19.5h2.7V35.3z"/>
		<path class="st3" d="M194.1,19.5l0.1,2c1.2-1.5,2.8-2.3,4.7-2.3c3.3,0,5,1.9,5.1,5.7v10.5h-2.7V24.9c0-1.1-0.3-2-0.8-2.5
			c-0.5-0.5-1.3-0.8-2.4-0.8c-0.9,0-1.7,0.2-2.3,0.7s-1.2,1.1-1.6,1.8v11.3h-2.7V19.5H194.1z"/>
		<path class="st3" d="M207.4,27.3c0-2.5,0.6-4.4,1.7-5.9c1.1-1.5,2.7-2.2,4.5-2.2c1.9,0,3.4,0.7,4.5,2.1l0.1-1.8h2.5V35
			c0,2.1-0.6,3.7-1.8,4.8c-1.2,1.2-2.8,1.8-4.9,1.8c-1.1,0-2.3-0.2-3.4-0.7s-1.9-1.2-2.5-2l1.4-1.6c1.2,1.4,2.6,2.2,4.3,2.2
			c1.3,0,2.3-0.4,3.1-1.1c0.7-0.7,1.1-1.8,1.1-3.1v-1.4c-1.1,1.2-2.6,1.9-4.4,1.9c-1.9,0-3.4-0.7-4.5-2.2
			C208,31.9,207.4,29.9,207.4,27.3z M210.2,27.6c0,1.8,0.4,3.2,1.1,4.2c0.7,1,1.8,1.5,3.1,1.5c1.7,0,3-0.8,3.8-2.3v-7.2
			c-0.8-1.5-2.1-2.3-3.7-2.3c-1.3,0-2.3,0.5-3.1,1.5S210.2,25.6,210.2,27.6z"/>
	</g>
</g>
</svg>
