<svg width="680" height="326" xmlns="http://www.w3.org/2000/svg"><g fill="none" fill-rule="evenodd"><path d="M337.429-320.686c-36.949 0-64.447 14.368-88.707 27.043-5.549 2.9-10.788 5.637-15.925 8.085-37.406 17.826-69.458 35.334-82.835 69.154-7.579 19.168-6.388 42.061-5.128 66.299.738 14.197 1.5 28.877.564 43.643-.968 15.229-4.661 30.644-8.572 46.965-4.757 19.849-9.674 40.376-9.674 61.497 0 21.116 4.908 41.64 9.656 61.488 3.907 16.336 7.598 31.767 8.557 47.01.93 14.77.159 29.452-.589 43.652-1.273 24.241-2.477 47.138 5.098 66.309 13.378 33.855 45.449 51.342 82.88 69.137 5.146 2.448 10.398 5.187 15.957 8.088 24.265 12.656 51.767 27.002 88.718 27.002 36.948 0 64.447-14.368 88.707-27.043 5.548-2.9 10.787-5.637 15.924-8.085 37.406-17.826 69.458-35.334 82.835-69.154 7.579-19.168 6.388-42.061 5.128-66.299-.738-14.197-1.5-28.877-.564-43.643.968-15.229 4.662-30.644 8.573-46.965 4.756-19.849 9.674-40.376 9.674-61.497 0-21.122-4.92-41.65-9.676-61.502-3.91-16.321-7.603-31.736-8.57-46.964-.937-14.767-.175-29.446.563-43.643 1.26-24.235 2.45-47.125-5.127-66.29-13.378-33.825-45.43-51.333-82.836-69.16-5.137-2.447-10.376-5.185-15.924-8.084-24.26-12.675-51.76-27.043-88.707-27.043m0 646.686c-37.286 0-64.945-14.428-89.348-27.156-5.55-2.894-10.79-5.628-15.916-8.065-37.689-17.922-69.988-35.545-83.542-69.846-7.678-19.432-6.468-42.465-5.186-66.85.745-14.163 1.514-28.808.588-43.504-.952-15.132-4.63-30.509-8.524-46.792C130.736 43.867 125.81 23.27 125.81 2c0-21.274 4.936-41.874 9.71-61.798 3.897-16.266 7.577-31.627 8.538-46.745.933-14.693.172-29.335-.565-43.495-1.267-24.382-2.465-47.41 5.22-66.84 13.55-34.267 45.832-51.912 83.498-69.862 5.113-2.437 10.344-5.17 15.88-8.062C272.489-307.551 300.143-322 337.429-322c37.285 0 64.94 14.45 89.337 27.198 5.537 2.893 10.767 5.625 15.88 8.062 37.667 17.948 69.948 35.595 83.5 69.865 7.683 19.428 6.485 42.453 5.218 66.833-.737 14.16-1.498 28.801-.565 43.493.96 15.119 4.64 30.48 8.537 46.746 4.775 19.925 9.712 40.527 9.712 61.803 0 21.274-4.937 41.874-9.71 61.798-3.898 16.266-7.578 31.627-8.54 46.745-.932 14.693-.17 29.335.566 43.495 1.267 24.382 2.465 47.41-5.22 66.84-13.55 34.267-45.831 51.912-83.498 69.862-5.113 2.437-10.343 5.17-15.88 8.062C402.368 311.551 374.714 326 337.43 326" fill="#A533FF"/><path d="M214.678 213.509c5.796 0 11.625.15 17.454.565 14.512 1.035 29.206 4.625 44.761 8.426 19.35 4.73 39.355 9.617 60.012 9.617 20.65 0 40.65-4.877 59.994-9.595 15.573-3.798 30.284-7.387 44.809-8.414 13.593-.957 27.188-.477 40.337-.014 24.278.857 47.217 1.67 65.882-6.797 31.113-14.117 44.977-47.33 59.655-82.494l.059-.142c2.6-6.23 5.783-12.657 9.153-19.462 10.83-21.87 23.103-46.657 23.103-78.513 0-31.854-12.292-56.64-23.138-78.507-3.368-6.79-6.55-13.207-9.15-19.424l-.093-.222c-14.683-35.1-28.55-68.254-59.645-82.369-18.657-8.469-41.587-7.673-65.862-6.829-13.15.457-26.745.931-40.332-.036-14.511-1.036-29.205-4.626-44.76-8.427-19.35-4.73-39.355-9.618-60.012-9.618-20.656 0-40.66 4.888-60.008 9.616-15.555 3.801-30.25 7.393-44.762 8.427-13.593.967-27.188.493-40.336.038-24.267-.847-47.197-1.643-65.854 6.825-31.098 14.116-44.968 47.273-59.653 82.374l-.09.217c-2.602 6.217-5.783 12.632-9.15 19.423-10.846 21.868-23.14 46.654-23.14 78.512 0 31.854 12.293 56.64 23.139 78.508 3.366 6.79 6.549 13.205 9.15 19.423l.092.221c14.682 35.102 28.55 68.256 59.646 82.37 18.657 8.468 41.586 7.674 65.862 6.828 7.508-.26 15.163-.527 22.877-.527m122.227 19.92c-20.822 0-40.91-4.91-60.336-9.656-15.498-3.788-30.138-7.365-44.535-8.39-13.518-.964-27.076-.493-40.185-.037-24.443.85-47.527 1.652-66.476-6.95-31.57-14.33-45.536-47.715-60.32-83.06l-.094-.222c-2.586-6.18-5.758-12.577-9.116-19.348C44.935 83.772 32.57 58.842 32.57 26.686c0-32.16 12.365-57.089 23.273-79.085 3.36-6.771 6.53-13.167 9.117-19.347l.091-.215c14.786-35.349 28.753-68.737 60.329-83.067 18.946-8.6 42.026-7.803 66.465-6.948 13.11.456 26.672.93 40.191-.035 14.396-1.026 29.035-4.602 44.536-8.392 19.425-4.746 39.511-9.654 60.332-9.654 20.822 0 40.91 4.909 60.336 9.655 15.498 3.789 30.138 7.365 44.534 8.39 13.518.963 27.075.494 40.185.038 24.441-.853 47.525-1.655 66.477 6.95 31.57 14.329 45.536 47.714 60.32 83.06l.093.222c2.585 6.18 5.758 12.577 9.117 19.348 10.907 21.994 23.271 46.923 23.271 79.08 0 32.156-12.346 57.088-23.238 79.086-3.36 6.786-6.533 13.195-9.118 19.385l-.059.141c-14.78 35.41-28.74 68.854-60.333 83.186-18.954 8.6-42.043 7.781-66.493 6.92-13.115-.463-26.674-.94-40.192.013-14.41 1.017-29.066 4.593-44.583 8.377-19.42 4.737-39.502 9.635-60.317 9.635" fill="#33CAFF"/><path d="M269.159-302.162c-22.481 0-45.546 6.207-68.986 13.369-24.977 7.633-43.125 25.85-68.243 51.065-4.719 4.735-9.599 9.634-14.832 14.771-5.228 5.132-10.225 9.93-15.058 14.57-25.91 24.871-44.628 42.843-52.405 67.365-11.942 37.652-21.277 74.329-4.559 109.107 9.048 18.821 26.66 34.267 45.306 50.618 11.249 9.865 22.878 20.064 33.335 31.597 10.652 11.748 19.484 25.548 28.836 40.16 11.279 17.621 22.94 35.844 38.47 51.089 15.525 15.24 34.078 26.69 52.02 37.765 14.893 9.192 28.96 17.875 40.933 28.346 11.745 10.274 22.132 21.7 32.178 32.75 16.652 18.317 32.382 35.617 51.555 44.506 35.449 16.436 72.812 7.244 111.16-4.513 4.579-1.402 9.166-2.693 13.602-3.94 25.104-7.056 48.816-13.723 76.74-41.134 33.137-32.528 51.029-73.835 60.203-102.758 11.94-37.653 21.275-74.33 4.557-109.107-9.048-18.822-26.66-34.267-45.306-50.619-11.247-9.864-22.878-20.063-33.335-31.597C544.678-70.5 535.846-84.3 526.494-98.911c-11.278-17.622-22.94-35.844-38.47-51.089-15.53-15.244-34.092-26.693-52.045-37.764-14.882-9.178-28.94-17.848-40.905-28.302-11.75-10.265-22.141-21.683-32.19-32.726-16.658-18.304-32.39-35.59-51.565-44.472-13.778-6.383-27.852-8.898-42.16-8.898m140.686 597.305c-14.472 0-28.72-2.551-42.708-9.037-19.421-9.004-35.237-26.402-51.984-44.822-10.02-11.02-20.381-22.418-32.07-32.642-11.887-10.396-25.909-19.052-40.755-28.215-18.003-11.113-36.622-22.604-52.252-37.948-15.638-15.349-27.34-33.636-38.658-51.319-9.32-14.563-18.124-28.32-28.701-39.986-10.407-11.475-22.008-21.65-33.228-31.489C70.74 3.242 53.027-12.29 43.864-31.355c-16.923-35.204-7.532-72.148 4.49-110.058 7.878-24.84 26.7-42.908 52.749-67.915 4.83-4.638 9.825-9.433 15.047-14.56 5.228-5.13 10.104-10.027 14.821-14.76 25.256-25.353 43.504-43.67 68.804-51.402 38.619-11.803 76.251-21.019 112.118-4.405 19.419 8.995 35.24 26.38 51.99 44.787 10.024 11.015 20.39 22.404 32.08 32.62 11.884 10.38 25.895 19.023 40.73 28.17 18.015 11.11 36.643 22.598 52.279 37.948 15.637 15.35 27.34 33.635 38.657 51.32 9.32 14.563 18.125 28.318 28.701 39.984 10.407 11.476 22.009 21.65 33.228 31.49 18.752 16.443 36.462 31.975 45.625 51.04 16.923 35.204 7.533 72.148-4.49 110.057-9.218 29.066-27.204 70.58-60.534 103.298-28.17 27.653-52.044 34.365-77.319 41.47-4.429 1.244-9.008 2.532-13.57 3.93-23.564 7.223-46.766 13.484-69.425 13.484" fill="#FFE133"/><path d="M422.79 194.09c2.653 0 5.289.06 7.914.193 15.698.797 31.072 3.328 45.938 5.775 24.647 4.057 47.926 7.89 68.531 3.04 38.1-8.972 61.357-39.113 83.751-71.868 2.83-4.137 5.857-8.315 9.065-12.738 16.676-23.005 35.578-49.08 39.83-87.237 4.255-38.151-8.481-67.626-19.717-93.632-2.155-4.99-4.191-9.703-6.042-14.333-14.68-36.728-30.772-71.091-65.956-87.958-19.043-9.128-42.608-10.353-67.556-11.652-15.05-.782-30.612-1.593-46.11-4.165-15.784-2.619-31.459-7.96-48.053-13.614-20.017-6.82-40.714-13.872-62.53-16.22-21.816-2.35-43.576.127-64.619 2.525-17.449 1.988-33.928 3.868-49.914 3.06-15.694-.786-31.066-3.31-45.931-5.75-24.64-4.044-47.914-7.865-68.514-3.007-38.064 8.974-61.343 39.096-83.765 71.827-2.826 4.124-5.852 8.292-9.054 12.7-16.7 23-35.626 49.066-39.878 87.224-4.253 38.15 8.48 67.626 19.716 93.632 2.157 4.99 4.191 9.703 6.044 14.335 14.68 36.727 30.773 71.09 65.956 87.956 19.043 9.127 42.607 10.355 67.556 11.652 15.05.783 30.612 1.593 46.11 4.165 15.784 2.619 31.458 7.96 48.053 13.613 20.016 6.821 40.713 13.873 62.529 16.222 21.812 2.35 43.566-.122 64.605-2.509 14.597-1.656 28.52-3.236 42.04-3.236m100.926 12.596c-14.928 0-30.806-2.614-47.294-5.328-14.829-2.442-30.165-4.967-45.785-5.76-15.89-.804-32.327 1.06-49.733 3.037-21.112 2.395-42.945 4.876-64.905 2.508-21.966-2.364-42.736-9.44-62.823-16.285-16.54-5.636-32.163-10.958-47.836-13.56-15.421-2.56-30.946-3.367-45.958-4.148-25.088-1.305-48.785-2.539-68.07-11.784-35.619-17.073-51.836-51.678-66.618-88.658-1.845-4.614-3.878-9.319-6.029-14.302C7.364 26.252-5.44-3.39-1.15-41.884c4.29-38.498 23.326-64.713 40.12-87.845 3.195-4.403 6.214-8.561 9.031-12.671 22.576-32.955 46.032-63.286 84.567-72.372 20.86-4.917 44.267-1.077 69.045 2.99 14.829 2.433 30.16 4.949 45.779 5.734 15.874.795 32.3-1.073 49.691-3.055 21.116-2.406 42.956-4.892 64.92-2.526 21.965 2.367 42.735 9.443 62.822 16.286 16.54 5.636 32.163 10.958 47.836 13.56 15.422 2.56 30.946 3.367 45.959 4.148 25.087 1.305 48.785 2.539 68.07 11.783 35.619 17.074 51.837 51.682 66.618 88.662 1.843 4.612 3.877 9.317 6.028 14.298 11.3 26.154 24.107 55.798 19.816 94.29-4.29 38.5-23.3 64.722-40.072 87.858-3.201 4.416-6.224 8.586-9.043 12.709-22.55 32.978-45.983 63.332-84.552 72.414-6.985 1.644-14.258 2.307-21.769 2.307" fill="#FF5A5A"/><path d="M368.79-283.65c-8.568 0-17.018 1.284-25.364 4.284-19.282 6.93-34.89 23.388-51.417 40.812-8.952 9.438-18.207 19.197-28.497 27.93-10.989 9.327-23.953 16.968-37.677 25.056-17.067 10.058-34.714 20.457-49.291 34.774-14.58 14.315-25.17 31.645-35.413 48.405-8.237 13.478-16.016 26.207-25.514 36.998-8.893 10.106-18.83 19.194-28.441 27.982C69.433-21.18 52.673-5.853 45.614 13.08c-11.762 31.557 2.375 64.666 17.342 99.721l.095.223c2.651 6.21 5.037 12.962 7.56 20.111 8.129 23.014 17.339 49.1 40.33 71.679 22.99 22.576 49.554 31.621 72.991 39.602 7.28 2.479 14.155 4.82 20.48 7.426l.23.094c35.695 14.697 69.406 28.58 101.545 17.028 19.283-6.93 34.893-23.39 51.419-40.814 8.95-9.436 18.203-19.195 28.495-27.93 10.988-9.325 23.952-16.966 37.676-25.053 17.067-10.058 34.714-20.458 49.293-34.775 14.575-14.313 25.17-31.632 35.418-48.38 8.25-13.488 16.043-26.227 25.554-37.02 8.902-10.104 18.846-19.188 28.463-27.973 17.761-16.224 34.535-31.547 41.597-50.486 11.776-31.569-2.41-64.718-17.428-99.812l-.06-.142c-2.66-6.216-5.052-12.975-7.583-20.132-8.14-23.007-17.367-49.085-40.36-71.664-22.989-22.575-49.554-31.62-72.99-39.603-7.28-2.477-14.156-4.819-20.48-7.423l-.232-.095c-26.422-10.88-51.765-21.313-76.179-21.313M280.806 274.57c-24.654 0-50.12-10.487-76.682-21.422l-.23-.095c-6.285-2.589-13.14-4.924-20.4-7.395-23.573-8.028-50.292-17.126-73.499-39.915-23.208-22.79-32.473-49.029-40.648-72.177-2.517-7.128-4.894-13.86-7.53-20.033l-.095-.223C46.65 78.01 32.414 44.669 44.356 12.63c7.17-19.23 24.044-34.663 41.909-51 9.583-8.765 19.493-17.83 28.34-27.88 9.42-10.706 17.172-23.388 25.378-36.816 10.285-16.828 20.917-34.228 35.614-48.657 14.695-14.432 32.412-24.874 49.549-34.972 13.674-8.059 26.589-15.67 37.49-24.921 10.237-8.69 19.467-18.421 28.395-27.833 16.636-17.543 32.351-34.112 51.934-41.153 32.626-11.723 66.578 2.253 102.522 17.053l.23.095c6.287 2.589 13.143 4.923 20.402 7.395 23.572 8.028 50.291 17.125 73.498 39.914 23.21 22.792 32.49 49.02 40.677 72.162 2.526 7.136 4.91 13.877 7.554 20.054l.058.142c15.124 35.339 29.41 68.72 17.453 100.773-7.173 19.233-24.062 34.662-41.942 50.997-9.591 8.76-19.508 17.82-28.363 27.869-9.435 10.708-17.2 23.4-25.42 36.836-10.288 16.818-20.928 34.207-35.618 48.634-14.695 14.431-32.414 24.874-49.55 34.972-13.674 8.059-26.59 15.67-37.49 24.921-10.237 8.69-19.465 18.42-28.392 27.832-16.639 17.543-32.354 34.113-51.938 41.152-8.517 3.062-17.129 4.372-25.84 4.372" fill="#33FFB1"/></g></svg>