<?xml version="1.0" encoding="utf-8"?>
<!-- Generator: Adobe Illustrator 23.0.1, SVG Export Plug-In . SVG Version: 6.00 Build 0)  -->
<svg version="1.1" id="Layer_1" xmlns="http://www.w3.org/2000/svg" xmlns:xlink="http://www.w3.org/1999/xlink" x="0px" y="0px"
	 viewBox="0 0 222.4 54" style="enable-background:new 0 0 222.4 54;" xml:space="preserve">
<style type="text/css">
	.st0{fill-rule:evenodd;clip-rule:evenodd;fill:#333333;}
	.st1{fill-rule:evenodd;clip-rule:evenodd;fill:#FFFFFF;}
	.st2{fill:#333333;}
	.st3{font-family:'Roboto-Regular';}
	.st4{font-size:30px;}
</style>
<title>engineering logo</title>
<desc>Created with Sketch.</desc>
<g>
	<g>
		<rect id="Rectangle-7" y="0" class="st0" width="54" height="54"/>
		<path id="Fill-1" class="st1" d="M16.8,23.3c1.7,0,3-1.4,3-3s-1.4-3-3-3s-3,1.4-3,3S15.1,23.3,16.8,23.3z M38.5,28.3
			c0-1.7-1.4-3-3-3c-1.7,0-3,1.4-3,3c0,1.7,1.4,3,3,3C37.1,31.3,38.5,29.9,38.5,28.3z M42.6,16v19.2h-4.1v-0.6
			c-0.9,0.4-2,0.7-3.1,0.7c-3.9,0-7.1-3.2-7.1-7.1c0-3.9,3.2-7.1,7.1-7.1c1.1,0,2.1,0.3,3.1,0.7V16H42.6z M28.4,16v12.3v6.9h-4.1
			V23.8l-7.5,16.8h-4.4l2.2-5L9,23.3h4.5l3.4,7.4l3.3-7.4h4.2V16H28.4z"/>
	</g>
	<text transform="matrix(1 0 0 1 66 35.3394)" class="st2 st3 st4">Engineering</text>
</g>
</svg>
