<svg viewBox="0 0 222.4 54" xmlns="http://www.w3.org/2000/svg"><g clip-rule="evenodd" fill-rule="evenodd"><path d="m0 0h54v54h-54z" fill="#333"/><path d="m16.8 23.3c1.7 0 3-1.4 3-3s-1.4-3-3-3-3 1.4-3 3 1.3 3 3 3zm21.7 5c0-1.7-1.4-3-3-3-1.7 0-3 1.4-3 3 0 1.7 1.4 3 3 3s3-1.4 3-3zm4.1-12.3v19.2h-4.1v-.6c-.9.4-2 .7-3.1.7-3.9 0-7.1-3.2-7.1-7.1s3.2-7.1 7.1-7.1c1.1 0 2.1.3 3.1.7v-5.8zm-14.2 0v19.2h-4.1v-11.4l-7.5 16.8h-4.4l2.2-5-5.6-12.3h4.5l3.4 7.4 3.3-7.4h4.2v-7.3z" fill="#fff"/></g><path d="m80.5 25.5h-9.2v7.5h10.7v2.3h-13.5v-21.3h13.4v2.3h-10.6v6.9h9.2zm7.2-6 .1 2c1.2-1.5 2.8-2.3 4.7-2.3 3.3 0 5 1.9 5.1 5.7v10.5h-2.7v-10.5c0-1.1-.3-2-.8-2.5s-1.3-.8-2.4-.8c-.9 0-1.7.2-2.3.7s-1.2 1.1-1.6 1.8v11.3h-2.7v-15.9zm13.3 7.8c0-2.5.6-4.4 1.7-5.9s2.7-2.2 4.5-2.2c1.9 0 3.4.7 4.5 2.1l.1-1.8h2.5v15.5c0 2.1-.6 3.7-1.8 4.8-1.2 1.2-2.8 1.8-4.9 1.8-1.1 0-2.3-.2-3.4-.7s-1.9-1.2-2.5-2l1.4-1.6c1.2 1.4 2.6 2.2 4.3 2.2 1.3 0 2.3-.4 3.1-1.1s1.1-1.8 1.1-3.1v-1.4c-1.1 1.2-2.6 1.9-4.4 1.9-1.9 0-3.4-.7-4.5-2.2s-1.7-3.7-1.7-6.3zm2.7.3c0 1.8.4 3.2 1.1 4.2s1.8 1.5 3.1 1.5c1.7 0 3-.8 3.8-2.3v-7.2c-.8-1.5-2.1-2.3-3.7-2.3-1.3 0-2.3.5-3.1 1.5s-1.2 2.6-1.2 4.6zm14.8-12.3c0-.4.1-.8.4-1.1s.7-.5 1.2-.5.9.2 1.2.5.4.7.4 1.1-.1.8-.4 1.1-.7.4-1.2.4-.9-.1-1.2-.4-.4-.7-.4-1.1zm2.9 20h-2.7v-15.8h2.7zm6.9-15.8.1 2c1.2-1.5 2.8-2.3 4.7-2.3 3.3 0 5 1.9 5.1 5.7v10.5h-2.7v-10.5c0-1.1-.3-2-.8-2.5s-1.3-.8-2.4-.8c-.9 0-1.7.2-2.3.7s-1.2 1.1-1.6 1.8v11.3h-2.7v-15.9zm20.6 16.1c-2.1 0-3.9-.7-5.2-2.1s-2-3.3-2-5.7v-.5c0-1.6.3-3 .9-4.2s1.4-2.2 2.5-2.9 2.2-1 3.5-1c2.1 0 3.7.7 4.8 2s1.7 3.3 1.7 5.8v1.1h-10.7c0 1.6.5 2.8 1.4 3.8s2 1.4 3.3 1.4c1 0 1.8-.2 2.4-.6s1.2-.9 1.7-1.6l1.7 1.3c-1.4 2.2-3.3 3.2-6 3.2zm-.3-14.2c-1.1 0-2 .4-2.8 1.2-.7.8-1.2 1.9-1.4 3.3h7.9v-.2c-.1-1.4-.4-2.4-1.1-3.2-.6-.7-1.5-1.1-2.6-1.1zm16.2 14.2c-2.1 0-3.9-.7-5.2-2.1s-2-3.3-2-5.7v-.5c0-1.6.3-3 .9-4.2s1.4-2.2 2.5-2.9 2.2-1 3.5-1c2.1 0 3.7.7 4.8 2s1.7 3.3 1.7 5.8v1.1h-10.7c0 1.6.5 2.8 1.4 3.8s2 1.4 3.3 1.4c1 0 1.8-.2 2.4-.6s1.2-.9 1.7-1.6l1.7 1.3c-1.4 2.2-3.4 3.2-6 3.2zm-.3-14.2c-1.1 0-2 .4-2.8 1.2-.7.8-1.2 1.9-1.4 3.3h7.9v-.2c-.1-1.4-.4-2.4-1.1-3.2-.6-.7-1.5-1.1-2.6-1.1zm17.3.5c-.4-.1-.9-.1-1.3-.1-1.8 0-3 .8-3.6 2.3v11.2h-2.7v-15.8h2.6v1.8c.9-1.4 2.1-2.1 3.8-2.1.5 0 .9.1 1.2.2zm2.5-6.6c0-.4.1-.8.4-1.1s.7-.5 1.2-.5.9.2 1.2.5.4.7.4 1.1-.1.8-.4 1.1-.7.4-1.2.4-.9-.1-1.2-.4-.4-.7-.4-1.1zm2.9 20h-2.7v-15.8h2.7zm6.9-15.8.1 2c1.2-1.5 2.8-2.3 4.7-2.3 3.3 0 5 1.9 5.1 5.7v10.5h-2.7v-10.5c0-1.1-.3-2-.8-2.5s-1.3-.8-2.4-.8c-.9 0-1.7.2-2.3.7s-1.2 1.1-1.6 1.8v11.3h-2.7v-15.9zm13.3 7.8c0-2.5.6-4.4 1.7-5.9s2.7-2.2 4.5-2.2c1.9 0 3.4.7 4.5 2.1l.1-1.8h2.5v15.5c0 2.1-.6 3.7-1.8 4.8-1.2 1.2-2.8 1.8-4.9 1.8-1.1 0-2.3-.2-3.4-.7s-1.9-1.2-2.5-2l1.4-1.6c1.2 1.4 2.6 2.2 4.3 2.2 1.3 0 2.3-.4 3.1-1.1.7-.7 1.1-1.8 1.1-3.1v-1.4c-1.1 1.2-2.6 1.9-4.4 1.9-1.9 0-3.4-.7-4.5-2.2-1.1-1.7-1.7-3.7-1.7-6.3zm2.8.3c0 1.8.4 3.2 1.1 4.2s1.8 1.5 3.1 1.5c1.7 0 3-.8 3.8-2.3v-7.2c-.8-1.5-2.1-2.3-3.7-2.3-1.3 0-2.3.5-3.1 1.5s-1.2 2.6-1.2 4.6z" fill="#333"/></svg>