<svg height="24" width="25" xmlns="http://www.w3.org/2000/svg" xmlns:xlink="http://www.w3.org/1999/xlink"><mask id="a" fill="#fff"><path d="m0 0h24.434v23.83h-24.434z" fill="#fff" fill-rule="evenodd"/></mask><path d="m12.216 0c-6.746 0-12.216 5.47-12.216 12.218 0 5.397 3.5 9.976 8.355 11.592.612.112.834-.265.834-.589 0-.29-.01-1.058-.016-2.078-3.398.739-4.115-1.637-4.115-1.637-.556-1.412-1.357-1.788-1.357-1.788-1.11-.758.084-.742.084-.742 1.226.086 1.871 1.258 1.871 1.258 1.09 1.868 2.86 1.329 3.556 1.016.111-.79.426-1.328.775-1.634-2.712-.308-5.565-1.356-5.565-6.038 0-1.333.477-2.424 1.258-3.278-.126-.31-.545-1.551.12-3.233 0 0 1.025-.329 3.36 1.252a11.71 11.71 0 0 1 3.058-.41c1.037.004 2.083.14 3.058.41 2.333-1.58 3.357-1.252 3.357-1.252.666 1.682.247 2.924.121 3.233.783.854 1.256 1.945 1.256 3.278 0 4.694-2.856 5.726-5.578 6.03.439.376.83 1.122.83 2.261 0 1.634-.016 2.952-.016 3.352 0 .326.22.707.84.587 4.85-1.618 8.349-6.195 8.349-11.59 0-6.748-5.47-12.218-12.219-12.218" fill="#fefefe" fill-rule="evenodd" mask="url(#a)"/></svg>