<svg id="Layer_1" data-name="Layer 1" xmlns="http://www.w3.org/2000/svg" viewBox="0 0 1207.97 695.53"><title>Artboard 2 copy 7</title><rect width="1207.97" height="695.45" style="fill:#090329"/><g style="opacity:0.2"><rect x="512.03" y="533.56" width="30.05" height="122.79" style="fill:#7c00ff"/></g><rect x="523.63" y="386.22" width="36.7" height="230.67" style="fill:#2e1196"/><rect x="591.78" y="304.67" width="36.7" height="230.67" style="fill:#2e1196"/><rect x="560.33" y="386.22" width="136.3" height="308.44" transform="translate(1256.95 1080.87) rotate(180)" style="fill:#8b00dd"/><rect x="628.48" y="304.67" width="68.15" height="230.67" transform="translate(1325.1 840) rotate(180)" style="fill:#8b00dd"/><rect x="591.78" y="326.58" width="104.85" height="5.24" style="fill:#2e1196"/><rect x="591.78" y="353.71" width="104.85" height="5.24" style="fill:#2e1196"/><rect x="591.78" y="380.84" width="104.85" height="5.24" style="fill:#2e1196"/><rect x="523.63" y="407.97" width="173" height="5.24" style="fill:#2e1196"/><rect x="523.63" y="435.1" width="173" height="5.24" style="fill:#2e1196"/><rect x="523.63" y="462.23" width="173" height="5.24" style="fill:#2e1196"/><rect x="523.63" y="489.36" width="173" height="5.24" style="fill:#2e1196"/><rect x="523.63" y="516.49" width="173" height="5.24" style="fill:#2e1196"/><rect x="523.63" y="543.62" width="173" height="5.24" style="fill:#2e1196"/><rect x="523.63" y="570.75" width="173" height="5.24" style="fill:#2e1196"/><rect x="523.63" y="597.88" width="173" height="5.24" style="fill:#2e1196"/><rect x="523.63" y="407.97" width="36.7" height="5.24" style="fill:#4ee596"/><rect x="523.63" y="435.1" width="36.7" height="5.24" style="fill:#4ee596"/><rect x="523.63" y="462.23" width="36.7" height="5.24" style="fill:#4ee596"/><rect x="523.63" y="489.36" width="36.7" height="5.24" style="fill:#4ee596"/><rect x="523.63" y="516.49" width="36.7" height="5.24" style="fill:#4ee596"/><rect x="523.63" y="543.62" width="36.7" height="5.24" style="fill:#4ee596"/><rect x="523.63" y="570.75" width="36.7" height="5.24" style="fill:#4ee596"/><rect x="523.63" y="597.88" width="36.7" height="5.24" style="fill:#4ee596"/><rect x="591.78" y="326.58" width="36.7" height="5.24" style="fill:#4ee596"/><rect x="591.78" y="353.71" width="36.7" height="5.24" style="fill:#4ee596"/><rect x="591.78" y="380.84" width="36.7" height="5.24" style="fill:#4ee596"/><rect x="610.15" y="628.18" width="21.21" height="42.42" transform="translate(1241.52 1298.79) rotate(180)" style="fill:#0a0837"/><rect x="609.22" y="648.46" width="42.42" height="1.87" transform="translate(-18.96 1279.82) rotate(-90)" style="fill:#4ee596"/><rect x="610.15" y="670.6" width="8.02" height="8.02" style="fill:#2e1196"/><rect x="610.15" y="678.62" width="16.04" height="8.02" style="fill:#2e1196"/><rect x="610.15" y="686.64" width="24.05" height="8.02" style="fill:#2e1196"/><rect x="634.21" y="686.64" width="24.05" height="8.02" style="fill:#8b00dd"/><rect x="626.19" y="678.62" width="24.05" height="8.02" style="fill:#8b00dd"/><rect x="618.17" y="670.6" width="24.05" height="8.02" style="fill:#8b00dd"/><polygon points="677.4 286.29 645.63 286.26 637.05 296.48 644.2 304.29 679.68 304.29 687.24 296.45 677.4 286.29" style="fill:#2e1196"/><polygon points="661.59 306.67 651.75 296.48 661.59 286.29 663.98 288.6 656.38 296.48 663.98 304.35 661.59 306.67" style="fill:#8b00dd"/><polygon points="677.4 306.67 675.01 304.35 682.61 296.48 675.01 288.6 677.4 286.29 687.24 296.48 677.4 306.67" style="fill:#8b00dd"/><rect x="659.44" y="294.81" width="19.49" height="3.33" transform="translate(143.14 805.39) rotate(-67.95)" style="fill:#8b00dd"/><rect x="712.67" y="204.15" width="87.27" height="489.99" style="fill:#8b00dd"/><rect x="750.85" y="226.35" width="141.81" height="468.31" style="fill:#2e1196"/><rect x="713.8" y="258.71" width="37.06" height="0.64" style="fill:#2e1196;stroke:#2e1196;stroke-miterlimit:10;stroke-width:2px"/><rect x="713.8" y="290.89" width="37.06" height="0.64" style="fill:#2e1196;stroke:#2e1196;stroke-miterlimit:10;stroke-width:2px"/><rect x="713.8" y="323.07" width="37.06" height="0.64" style="fill:#2e1196;stroke:#2e1196;stroke-miterlimit:10;stroke-width:2px"/><rect x="713.8" y="355.25" width="37.06" height="0.64" style="fill:#2e1196;stroke:#2e1196;stroke-miterlimit:10;stroke-width:2px"/><rect x="713.8" y="387.43" width="37.06" height="0.64" style="fill:#2e1196;stroke:#2e1196;stroke-miterlimit:10;stroke-width:2px"/><rect x="713.8" y="419.6" width="37.06" height="0.64" style="fill:#2e1196;stroke:#2e1196;stroke-miterlimit:10;stroke-width:2px"/><rect x="713.8" y="451.78" width="37.06" height="0.64" style="fill:#2e1196;stroke:#2e1196;stroke-miterlimit:10;stroke-width:2px"/><rect x="713.8" y="483.96" width="37.06" height="0.64" style="fill:#2e1196;stroke:#2e1196;stroke-miterlimit:10;stroke-width:2px"/><rect x="713.8" y="516.14" width="37.06" height="0.64" style="fill:#2e1196;stroke:#2e1196;stroke-miterlimit:10;stroke-width:2px"/><rect x="713.8" y="548.32" width="37.06" height="0.64" style="fill:#2e1196;stroke:#2e1196;stroke-miterlimit:10;stroke-width:2px"/><rect x="713.8" y="580.5" width="37.06" height="0.64" style="fill:#2e1196;stroke:#2e1196;stroke-miterlimit:10;stroke-width:2px"/><rect x="751.25" y="258.42" width="141.11" height="1.23" style="fill:#4ee596;stroke:#4ee596;stroke-miterlimit:10;stroke-width:0.75px"/><rect x="751.25" y="290.6" width="141.11" height="1.23" style="fill:#4ee596;stroke:#4ee596;stroke-miterlimit:10;stroke-width:0.75px"/><rect x="751.25" y="322.77" width="141.11" height="1.23" style="fill:#4ee596;stroke:#4ee596;stroke-miterlimit:10;stroke-width:0.75px"/><rect x="751.25" y="354.95" width="141.11" height="1.23" style="fill:#4ee596;stroke:#4ee596;stroke-miterlimit:10;stroke-width:0.75px"/><rect x="751.25" y="387.13" width="141.11" height="1.23" style="fill:#4ee596;stroke:#4ee596;stroke-miterlimit:10;stroke-width:0.75px"/><rect x="751.25" y="419.31" width="141.11" height="1.23" style="fill:#4ee596;stroke:#4ee596;stroke-miterlimit:10;stroke-width:0.75px"/><rect x="751.25" y="451.49" width="141.11" height="1.23" style="fill:#4ee596;stroke:#4ee596;stroke-miterlimit:10;stroke-width:0.75px"/><rect x="751.25" y="483.67" width="141.11" height="1.23" style="fill:#4ee596;stroke:#4ee596;stroke-miterlimit:10;stroke-width:0.75px"/><rect x="751.25" y="515.84" width="141.11" height="1.23" style="fill:#4ee596;stroke:#4ee596;stroke-miterlimit:10;stroke-width:0.75px"/><rect x="751.25" y="548.02" width="141.11" height="1.23" style="fill:#4ee596;stroke:#4ee596;stroke-miterlimit:10;stroke-width:0.75px"/><rect x="751.25" y="580.2" width="141.11" height="1.23" style="fill:#4ee596;stroke:#4ee596;stroke-miterlimit:10;stroke-width:0.75px"/><rect x="833.25" y="642.13" width="12.9" height="52.47" style="fill:#8b00dd"/><rect x="864.75" y="642.13" width="12.9" height="52.47" style="fill:#8b00dd"/><circle cx="817.74" cy="226.65" r="22.5" style="fill:#6400d4"/><rect x="750.85" y="204.15" width="141.51" height="51.15" style="fill:#2e1196"/><path d="M836.61,231.65c0-2-2.49-3.87-6.31-5,.88-3.89.49-7-1.23-8a2.7,2.7,0,0,0-1.37-.34v1.36a1.48,1.48,0,0,1,.7.16c.83.48,1.19,2.29.91,4.63-.07.57-.18,1.18-.32,1.8a28.69,28.69,0,0,0-3.88-.67,29.68,29.68,0,0,0-2.54-3.06c2-1.85,3.86-2.87,5.13-2.87v-1.36h0c-1.68,0-3.88,1.2-6.1,3.28-2.23-2.07-4.43-3.26-6.11-3.26v1.37c1.26,0,3.14,1,5.13,2.85a29.43,29.43,0,0,0-2.52,3.05,29.13,29.13,0,0,0-3.89.67,17.46,17.46,0,0,1-.32-1.77c-.29-2.34.07-4.15.89-4.64a1.41,1.41,0,0,1,.71-.16v-1.36h0a2.72,2.72,0,0,0-1.38.34c-1.72,1-2.11,4.08-1.22,8-3.81,1.17-6.28,3-6.28,5s2.49,3.87,6.3,5c-.88,3.89-.49,7,1.24,8a2.61,2.61,0,0,0,1.37.35c1.69,0,3.89-1.2,6.11-3.28,2.23,2.07,4.43,3.25,6.11,3.25a2.72,2.72,0,0,0,1.38-.34c1.72-1,2.11-4.08,1.22-8C834.13,235.52,836.61,233.63,836.61,231.65Zm-8-4.08c-.23.79-.51,1.61-.83,2.42-.25-.49-.51-1-.8-1.47s-.58-1-.88-1.43C827,227.22,827.85,227.38,828.65,227.57Zm-2.8,6.52c-.48.82-1,1.6-1.48,2.33q-1.36.12-2.76.12c-.93,0-1.85,0-2.75-.11-.51-.73-1-1.51-1.48-2.33s-.89-1.61-1.28-2.43c.38-.82.81-1.64,1.27-2.44s1-1.61,1.47-2.34c.92-.08,1.84-.12,2.77-.12s1.84,0,2.75.12c.51.73,1,1.5,1.48,2.32s.89,1.62,1.27,2.44C826.73,232.46,826.3,233.28,825.85,234.09Zm2-.8c.33.82.61,1.64.84,2.43-.8.2-1.64.36-2.51.49.3-.47.59-1,.88-1.45S827.57,233.78,827.82,233.29Zm-6.2,6.53c-.57-.59-1.14-1.25-1.7-2,.55,0,1.11,0,1.68,0s1.15,0,1.7,0C822.75,238.57,822.18,239.23,821.62,239.82Zm-4.55-3.61c-.87-.13-1.71-.28-2.51-.48.23-.79.51-1.6.83-2.42.25.49.51,1,.8,1.47S816.77,235.75,817.07,236.21Zm4.52-12.72a25.82,25.82,0,0,1,1.7,1.95c-.55,0-1.11,0-1.68,0s-1.15,0-1.7,0A25.71,25.71,0,0,1,821.59,223.49Zm-4.53,3.6c-.29.47-.59.95-.88,1.45s-.54,1-.79,1.47a25.22,25.22,0,0,1-.84-2.44C815.35,227.38,816.19,227.22,817.06,227.09Zm-5.53,7.66c-2.16-.93-3.56-2.14-3.56-3.1s1.4-2.18,3.56-3.09c.53-.23,1.1-.43,1.69-.62a28.86,28.86,0,0,0,1.38,3.72,31.32,31.32,0,0,0-1.36,3.71C812.64,235.18,812.06,235,811.53,234.75Zm3.29,8.73c-.83-.47-1.19-2.29-.91-4.62.07-.58.18-1.19.31-1.8a29.28,29.28,0,0,0,3.88.66,29.94,29.94,0,0,0,2.55,3.06c-2,1.85-3.87,2.87-5.14,2.87A1.44,1.44,0,0,1,814.82,243.48Zm14.51-4.66c.28,2.34-.07,4.16-.9,4.64a1.34,1.34,0,0,1-.7.16c-1.27,0-3.14-1-5.14-2.85a29.48,29.48,0,0,0,2.53-3.05,30.82,30.82,0,0,0,3.89-.67A18,18,0,0,1,829.33,238.82Zm2.35-4.07c-.53.22-1.1.42-1.69.61a29.42,29.42,0,0,0-1.38-3.72,30.08,30.08,0,0,0,1.36-3.71c.6.19,1.18.4,1.72.63,2.16.92,3.56,2.13,3.56,3.09S833.84,233.83,831.68,234.75Z" style="fill:#4ee596"/><circle cx="821.6" cy="231.65" r="2.79" style="fill:#4ee596"/><polygon points="777.61 203.85 798.38 184.35 798.38 203.85 777.61 203.85" style="fill:#8b00dd"/><rect x="798.38" y="184.35" width="16.93" height="19.5" style="fill:#2e1196"/><polygon points="751 203.85 771.77 184.35 771.77 203.85 751 203.85" style="fill:#8b00dd"/><rect x="771.77" y="184.35" width="16.93" height="19.5" style="fill:#2e1196"/><rect x="818.96" y="667.46" width="52.53" height="1.87" transform="translate(176.82 1513.61) rotate(-90)" style="fill:#4ee596"/><rect x="850.45" y="667.46" width="52.53" height="1.87" transform="translate(208.32 1545.11) rotate(-90)" style="fill:#4ee596"/><rect x="820.73" y="473.95" width="8.3" height="127.32" style="fill:#2e1196"/><g style="opacity:0.2"><rect x="138.29" y="593.16" width="19.97" height="101.77" style="fill:#2e1196"/></g><g style="opacity:0.6000000000000001"><rect x="191.3" y="571.07" width="30.05" height="122.79" style="fill:#2e1196"/></g><g style="opacity:0.4"><rect x="314.42" y="531.78" width="30.05" height="122.79" style="fill:#2e1196"/></g><g style="opacity:0.30000000000000004"><rect x="102.56" y="608.91" width="24.1" height="86.01" style="fill:#2e1196"/></g><g style="opacity:0.6000000000000001"><rect x="78.33" y="640.23" width="16.02" height="54.69" style="fill:#2e1196"/></g><g style="opacity:0.30000000000000004"><rect x="64.09" y="656.87" width="14.24" height="38.05" style="fill:#2e1196"/></g><g style="opacity:0.6000000000000001"><rect x="127.4" y="656.87" width="24.1" height="38.05" style="fill:#2e1196"/></g><g style="opacity:0.6000000000000001"><rect x="47.04" y="675.89" width="12.05" height="19.02" style="fill:#2e1196"/></g><rect x="148.49" y="654.01" width="6.62" height="40.51" style="fill:#2e1196"/><rect x="126.8" y="654.01" width="23.82" height="40.44" style="fill:#8b00dd"/><rect x="129.74" y="656.88" width="17.93" height="28.24" style="fill:#2e1196"/><rect x="133.66" y="687.83" width="10.09" height="3.53" style="fill:#2e1196"/><rect x="991.11" y="416.28" width="47.76" height="278.38" style="fill:#2e1196"/><rect x="999.08" y="426.52" width="31.82" height="1.93" style="fill:#4ee596"/><rect x="999.08" y="434.25" width="31.82" height="1.93" style="fill:#4ee596"/><rect x="999.08" y="441.98" width="31.82" height="1.93" style="fill:#4ee596"/><rect x="999.08" y="449.71" width="31.82" height="1.93" style="fill:#4ee596"/><rect x="999.08" y="457.44" width="31.82" height="1.93" style="fill:#4ee596"/><rect x="999.08" y="465.18" width="31.82" height="1.93" style="fill:#4ee596"/><rect x="999.08" y="472.91" width="31.82" height="1.93" style="fill:#4ee596"/><rect x="1009.23" y="401.46" width="11.53" height="14.82" style="fill:#2e1196"/><rect x="999.08" y="489.11" width="31.82" height="1.93" style="fill:#4ee596"/><rect x="999.08" y="481.38" width="31.82" height="1.93" style="fill:#4ee596"/><rect x="999.08" y="496.84" width="31.82" height="1.93" style="fill:#4ee596"/><rect x="999.08" y="504.57" width="31.82" height="1.93" style="fill:#4ee596"/><rect x="999.08" y="512.3" width="31.82" height="1.93" style="fill:#4ee596"/><rect x="999.08" y="521" width="31.82" height="1.93" style="fill:#4ee596"/><rect x="999.08" y="528.73" width="31.82" height="1.93" style="fill:#4ee596"/><rect x="999.08" y="536.46" width="31.82" height="1.93" style="fill:#4ee596"/><rect x="999.08" y="544.19" width="31.82" height="1.93" style="fill:#4ee596"/><rect x="999.08" y="551.92" width="31.82" height="1.93" style="fill:#4ee596"/><g style="opacity:0.2"><rect x="1125.81" y="608.7" width="24.1" height="86.01" style="fill:#2e1196"/></g><g style="opacity:0.6000000000000001"><rect x="1158.12" y="640.02" width="16.02" height="54.69" style="fill:#2e1196"/></g><g style="opacity:0.30000000000000004"><rect x="1174.62" y="656.66" width="14.24" height="38.05" style="fill:#2e1196"/></g><g style="opacity:0.6000000000000001"><rect x="1193.86" y="675.69" width="12.05" height="19.02" style="fill:#2e1196"/></g><g style="opacity:0.6000000000000001"><rect x="1046.35" y="478.81" width="30.05" height="130.89" style="fill:#2e1196"/></g><g style="opacity:0.4"><rect x="1089.01" y="526.48" width="19.97" height="83.23" style="fill:#2e1196"/></g><polygon points="1070.72 556.57 1087.59 540.72 1087.59 556.57 1070.72 556.57" style="fill:#8b00dd"/><rect x="1087.59" y="540.71" width="13.76" height="15.85" style="fill:#2a066b"/><rect x="1079.64" y="556.55" width="46.8" height="138.17" style="fill:#2e1196"/><rect x="1032.77" y="556.55" width="46.87" height="138.17" style="fill:#8b00dd"/><rect x="1042.86" y="564.66" width="7.26" height="19" style="fill:#2e1196"/><rect x="1042.86" y="595.74" width="7.26" height="19" style="fill:#2e1196"/><rect x="1090.08" y="595.74" width="7.26" height="19" style="fill:#4ee596"/><rect x="1062.52" y="564.66" width="7.26" height="19" style="fill:#4ee596"/><rect x="1109.82" y="564.66" width="7.26" height="19" style="fill:#8b00dd"/><polygon points="1049.09 556.57 1065.97 540.72 1065.97 556.57 1049.09 556.57" style="fill:#8b00dd"/><rect x="1065.97" y="540.71" width="13.76" height="15.85" style="fill:#2a066b"/><g style="opacity:0.4"><rect x="892.67" y="561.06" width="30.05" height="133.6" style="fill:#2e1196"/></g><rect x="913.48" y="478.13" width="84.55" height="216.53" style="fill:#8b00dd"/><rect x="948.05" y="478.13" width="77.19" height="216.53" style="fill:#2e1196"/><rect x="910.1" y="527.28" width="37.95" height="3.19" style="fill:#8b00dd"/><rect x="913.48" y="481.32" width="34.57" height="5.9" style="fill:#0a0837"/><rect x="913.48" y="530.47" width="34.57" height="5.9" style="fill:#0a0837"/><rect x="910.1" y="576.48" width="37.95" height="3.19" style="fill:#8b00dd"/><rect x="913.48" y="579.67" width="34.57" height="5.9" style="fill:#0a0837"/><rect x="910.1" y="625.63" width="37.95" height="3.19" style="fill:#8b00dd"/><rect x="913.48" y="628.82" width="34.57" height="5.9" style="fill:#0a0837"/><rect x="910.1" y="478.13" width="118.67" height="3.19" style="fill:#8b00dd"/><rect x="922.81" y="495.61" width="6.49" height="22.34" style="fill:#4ee596"/><rect x="932.68" y="495.61" width="6.49" height="22.34" style="fill:#4ee596"/><rect x="966.45" y="495.61" width="6.49" height="22.34" style="fill:#8b00dd"/><rect x="976.31" y="495.61" width="6.49" height="22.34" style="fill:#8b00dd"/><rect x="1010.08" y="495.61" width="6.49" height="22.34" style="fill:#8b00dd"/><rect x="922.81" y="544.32" width="6.49" height="22.34" style="fill:#4ee596"/><rect x="932.68" y="544.32" width="6.49" height="22.34" style="fill:#4ee596"/><rect x="966.45" y="544.32" width="6.49" height="22.34" style="fill:#8b00dd"/><rect x="976.31" y="544.32" width="6.49" height="22.34" style="fill:#8b00dd"/><rect x="1010.08" y="544.32" width="6.49" height="22.34" style="fill:#8b00dd"/><rect x="922.81" y="594.04" width="6.49" height="22.34" style="fill:#4ee596"/><rect x="932.68" y="594.04" width="6.49" height="22.34" style="fill:#4ee596"/><rect x="1010.08" y="594.04" width="6.49" height="22.34" style="fill:#8b00dd"/><rect x="894.39" y="506.31" width="40.06" height="1.87" transform="translate(407.17 1421.66) rotate(-90)" style="fill:#4ee596"/><rect x="894.39" y="555.51" width="40.06" height="1.87" transform="translate(357.97 1470.86) rotate(-90)" style="fill:#4ee596"/><rect x="894.31" y="604.66" width="40.06" height="1.87" transform="translate(308.74 1519.93) rotate(-90)" style="fill:#4ee596"/><rect x="884.75" y="663.45" width="59.34" height="1.87" transform="translate(250.03 1578.8) rotate(-90)" style="fill:#4ee596"/><rect x="928.02" y="680.03" width="4.87" height="4.87" transform="translate(1860.92 1364.94) rotate(180)" style="fill:#2e1196"/><rect x="923.15" y="684.91" width="9.75" height="4.87" transform="translate(1856.05 1374.69) rotate(180)" style="fill:#2e1196"/><rect x="908.52" y="684.91" width="14.62" height="4.87" transform="translate(1831.67 1374.69) rotate(180)" style="fill:#8b00dd"/><rect x="918.27" y="689.78" width="14.62" height="4.87" transform="translate(1851.17 1384.44) rotate(180)" style="fill:#2e1196"/><rect x="913.4" y="680.03" width="4.87" height="4.87" transform="translate(1831.67 1364.94) rotate(180)" style="fill:#8b00dd"/><rect x="903.65" y="689.78" width="14.62" height="4.87" transform="translate(1821.92 1384.44) rotate(180)" style="fill:#8b00dd"/><rect x="1027.26" y="638.77" width="52.41" height="4.87" transform="translate(2106.92 1282.42) rotate(180)" style="fill:#8b00dd"/><polygon points="1048.63 658.27 1048.63 648.52 1038.88 648.52 1048.63 658.27" style="fill:#0a0837"/><polygon points="1071.01 658.27 1071.01 648.52 1061.26 648.52 1071.01 658.27" style="fill:#0a0837"/><rect x="1032.13" y="643.65" width="47.53" height="4.87" transform="translate(2111.8 1292.17) rotate(180)" style="fill:#0a0837"/><circle cx="171.1" cy="500.28" r="24.75" style="fill:#2e1196"/><circle cx="141.71" cy="508.02" r="17.02" style="fill:#2e1196"/><circle cx="200.5" cy="508.02" r="17.02" style="fill:#2e1196"/><rect x="141.71" y="500.28" width="58.79" height="24.75" style="fill:#2e1196"/><path d="M143.26,562.48h-7.82a13.7,13.7,0,0,1-13.69-13.69V535.1a2,2,0,1,1,3.91,0v13.69a9.79,9.79,0,0,0,9.78,9.78h7.82Z" style="fill:#8b00dd"/><path d="M151.09,562.48h-7.83a13.71,13.71,0,0,1-13.69-13.69V535.1a2,2,0,1,1,3.91,0v13.69a9.79,9.79,0,0,0,9.78,9.78h7.83Z" style="fill:#8b00dd"/><path d="M155,562.48h-3.91a13.7,13.7,0,0,1-13.69-13.69V535.1a2,2,0,1,1,3.91,0v13.69a9.79,9.79,0,0,0,9.78,9.78H155a2,2,0,0,1,0,3.91Z" style="fill:#8b00dd"/><circle cx="123.74" cy="509.91" r="25.19" style="fill:#8b00dd"/><circle cx="153.65" cy="517.78" r="17.32" style="fill:#8b00dd"/><circle cx="93.83" cy="517.78" r="17.32" style="fill:#8b00dd"/><rect x="93.83" y="509.91" width="59.82" height="25.19" transform="translate(247.48 1045.01) rotate(180)" style="fill:#8b00dd"/><rect x="129.57" y="535.1" width="3.91" height="7.82" style="fill:#2e1196"/><rect x="137.4" y="535.1" width="3.91" height="7.82" style="fill:#2e1196"/><rect x="121.75" y="535.1" width="3.91" height="7.82" style="fill:#2e1196"/><path d="M155.23,558.62h3.91a13.71,13.71,0,0,1,13.69,13.69V663.2a2,2,0,0,1-3.91,0V572.31a9.79,9.79,0,0,0-9.78-9.77h-3.91a2,2,0,0,1,0-3.92Z" style="fill:#8b00dd"/><polygon points="169.13 606.92 213.01 606.92 203.26 641.05 193.51 641.05 193.51 694.67 154.51 694.67 154.51 641.05 169.13 606.92" style="fill:#8b00dd"/><rect x="266.63" y="553.3" width="73.12" height="141.37" style="fill:#2e1196"/><polygon points="208.13 606.92 213.01 606.92 213.01 641.05 213.01 694.67 193.51 694.67 193.51 641.05 208.13 606.92" style="fill:#2e1196"/><rect x="213.01" y="553.3" width="78" height="141.37" style="fill:#8b00dd"/><rect x="281.26" y="546.55" width="68.25" height="6.74" transform="translate(630.77 1099.85) rotate(180)" style="fill:#8b00dd"/><rect x="203.26" y="546.55" width="78" height="6.74" transform="translate(484.52 1099.85) rotate(180)" style="fill:#8b00dd"/><rect x="281.26" y="626.42" width="63.37" height="4.87" transform="translate(625.89 1257.72) rotate(180)" style="fill:#8b00dd"/><rect x="208.13" y="621.55" width="82.87" height="4.87" transform="translate(499.14 1247.97) rotate(180)" style="fill:#8b00dd"/><polygon points="281.26 567.92 281.26 558.17 271.51 558.17 281.26 567.92" style="fill:#2e1196"/><polygon points="232.51 567.92 232.51 558.17 222.76 558.17 232.51 567.92" style="fill:#2e1196"/><polygon points="256.88 567.92 256.88 558.17 247.13 558.17 256.88 567.92" style="fill:#2e1196"/><rect x="271.51" y="572.8" width="9.75" height="34.12" transform="translate(552.77 1179.72) rotate(180)" style="fill:#2e1196"/><rect x="222.76" y="572.8" width="9.75" height="34.12" transform="translate(455.27 1179.72) rotate(180)" style="fill:#4ee596"/><rect x="247.13" y="572.8" width="9.75" height="34.12" transform="translate(504.02 1179.72) rotate(180)" style="fill:#2e1196"/><rect x="213.01" y="553.3" width="78" height="4.87" transform="translate(504.02 1111.47) rotate(180)" style="fill:#2e1196"/><polygon points="281.26 641.05 281.26 631.3 271.51 631.3 281.26 641.05" style="fill:#2e1196"/><polygon points="232.51 641.05 232.51 631.3 222.76 631.3 232.51 641.05" style="fill:#2e1196"/><polygon points="256.88 641.05 256.88 631.3 247.13 631.3 256.88 641.05" style="fill:#2e1196"/><rect x="271.51" y="645.92" width="9.75" height="34.12" transform="translate(552.77 1325.97) rotate(180)" style="fill:#4ee596"/><rect x="247.13" y="645.92" width="9.75" height="34.12" transform="translate(504.02 1325.97) rotate(180)" style="fill:#2e1196"/><rect x="174.01" y="645.92" width="9.75" height="19.5" transform="translate(357.77 1311.35) rotate(180)" style="fill:#4ee596"/><rect x="213.01" y="626.42" width="78" height="4.87" transform="translate(504.02 1257.72) rotate(180)" style="fill:#2e1196"/><rect x="232.51" y="680.05" width="4.87" height="4.87" transform="translate(469.89 1364.97) rotate(180)" style="fill:#2e1196"/><rect x="227.63" y="684.92" width="9.75" height="4.87" transform="translate(465.02 1374.72) rotate(180)" style="fill:#2e1196"/><rect x="213.01" y="684.92" width="14.62" height="4.87" transform="translate(440.64 1374.72) rotate(180)" style="fill:#8b00dd"/><rect x="164.26" y="689.8" width="9.75" height="4.87" transform="translate(338.27 1384.47) rotate(180)" style="fill:#2e1196"/><rect x="149.63" y="689.8" width="14.62" height="4.87" transform="translate(313.89 1384.47) rotate(180)" style="fill:#8b00dd"/><rect x="169.13" y="684.92" width="4.87" height="4.87" transform="translate(343.14 1374.72) rotate(180)" style="fill:#2e1196"/><rect x="154.51" y="684.92" width="14.62" height="4.87" transform="translate(323.64 1374.72) rotate(180)" style="fill:#8b00dd"/><rect x="222.76" y="689.8" width="14.62" height="4.87" transform="translate(460.14 1384.47) rotate(180)" style="fill:#2e1196"/><rect x="217.88" y="680.05" width="4.87" height="4.87" transform="translate(440.64 1364.97) rotate(180)" style="fill:#8b00dd"/><rect x="208.13" y="689.8" width="14.62" height="4.87" transform="translate(430.89 1384.47) rotate(180)" style="fill:#8b00dd"/><polygon points="174.01 631.3 174.01 611.8 181.67 611.8 174.01 631.3" style="fill:#2e1196"/><rect x="159.38" y="611.8" width="14.62" height="19.5" transform="translate(333.39 1243.1) rotate(180)" style="fill:#8b00dd"/><rect x="164.26" y="616.67" width="4.87" height="9.75" transform="translate(333.39 1243.1) rotate(180)" style="fill:#4ee596"/><polygon points="193.51 631.3 193.51 611.8 201.17 611.8 193.51 631.3" style="fill:#2e1196"/><rect x="178.88" y="611.8" width="14.62" height="19.5" transform="translate(372.39 1243.1) rotate(180)" style="fill:#8b00dd"/><rect x="183.76" y="616.67" width="4.87" height="9.75" transform="translate(372.39 1243.1) rotate(180)" style="fill:#4ee596"/><rect x="291.01" y="553.3" width="48.75" height="4.87" transform="translate(630.77 1111.47) rotate(180)" style="fill:#0a0837"/><rect x="291.01" y="631.3" width="48.75" height="4.87" transform="translate(630.77 1267.47) rotate(180)" style="fill:#0a0837"/><rect x="291.07" y="624.55" width="34.47" height="1.87" style="fill:#4ee596"/><rect x="290.68" y="546.55" width="34.53" height="1.87" style="fill:#4ee596"/><circle cx="484.72" cy="163.52" r="34.06" style="fill:#2e1196"/><circle cx="525.16" cy="174.17" r="23.41" style="fill:#2e1196"/><circle cx="444.28" cy="174.17" r="23.41" style="fill:#2e1196"/><rect x="444.28" y="163.52" width="80.88" height="34.06" transform="translate(969.44 361.1) rotate(180)" style="fill:#2e1196"/><path d="M523,249.1h10.77a18.86,18.86,0,0,0,18.83-18.84V211.43a2.69,2.69,0,0,0-5.38,0v18.83a13.47,13.47,0,0,1-13.45,13.46H523Z" style="fill:#8b00dd"/><path d="M512.26,249.1H523a18.86,18.86,0,0,0,18.84-18.84V211.43a2.69,2.69,0,0,0-5.38,0v18.83A13.48,13.48,0,0,1,523,243.72H512.26Z" style="fill:#8b00dd"/><path d="M506.88,249.1h5.38a18.87,18.87,0,0,0,18.84-18.84V211.43a2.7,2.7,0,0,0-5.39,0v18.83a13.47,13.47,0,0,1-13.45,13.46h-5.38a2.69,2.69,0,0,0,0,5.38Z" style="fill:#8b00dd"/><circle cx="549.88" cy="176.77" r="34.66" style="fill:#8b00dd"/><circle cx="508.73" cy="187.6" r="23.83" style="fill:#8b00dd"/><circle cx="591.04" cy="187.6" r="23.83" style="fill:#8b00dd"/><rect x="508.73" y="176.77" width="82.31" height="34.66" style="fill:#8b00dd"/><rect x="536.48" y="211.43" width="5.38" height="10.76" style="fill:#2e1196"/><rect x="525.71" y="211.43" width="5.38" height="10.76" style="fill:#2e1196"/><rect x="547.24" y="211.43" width="5.38" height="10.76" style="fill:#2e1196"/><path d="M506.56,243.8h-5.38a18.86,18.86,0,0,0-18.84,18.83v125a2.69,2.69,0,1,0,5.38,0v-125a13.47,13.47,0,0,1,13.46-13.45h5.38a2.69,2.69,0,0,0,0-5.38Z" style="fill:#8b00dd"/><rect x="325.59" y="307.04" width="38.18" height="387.61" style="fill:#8b00dd"/><rect x="363.77" y="307.04" width="141.81" height="387.63" style="fill:#2e1196"/><rect x="320.14" y="307.04" width="43.63" height="5.45" style="fill:#8b00dd"/><rect x="320.14" y="372.49" width="43.63" height="5.45" style="fill:#8b00dd"/><rect x="320.14" y="437.95" width="43.63" height="5.45" style="fill:#8b00dd"/><rect x="320.14" y="503.4" width="43.63" height="5.45" style="fill:#8b00dd"/><rect x="320.14" y="568.85" width="43.63" height="5.45" style="fill:#8b00dd"/><rect x="320.14" y="634.3" width="43.63" height="5.45" style="fill:#8b00dd"/><rect x="363.77" y="307.04" width="147.27" height="5.45" style="fill:#2e1196"/><rect x="363.77" y="372.49" width="147.27" height="5.45" style="fill:#2e1196"/><rect x="363.77" y="437.95" width="147.27" height="5.45" style="fill:#2e1196"/><rect x="363.77" y="503.4" width="147.27" height="5.45" style="fill:#2e1196"/><rect x="363.77" y="568.85" width="147.27" height="5.45" style="fill:#2e1196"/><rect x="363.77" y="634.3" width="147.27" height="5.45" style="fill:#2e1196"/><rect x="320.14" y="312.5" width="43.63" height="5.45" style="fill:#0a0837"/><rect x="320.14" y="377.95" width="43.63" height="5.45" style="fill:#0a0837"/><rect x="320.14" y="443.4" width="43.63" height="5.45" style="fill:#0a0837"/><rect x="320.14" y="508.85" width="43.63" height="5.45" style="fill:#0a0837"/><rect x="320.14" y="574.3" width="43.63" height="5.45" style="fill:#0a0837"/><rect x="320.14" y="639.76" width="43.63" height="5.45" style="fill:#0a0837"/><rect x="336.5" y="331.91" width="6.49" height="22.34" style="fill:#4ee596"/><rect x="346.37" y="331.91" width="6.49" height="22.34" style="fill:#4ee596"/><rect x="380.13" y="331.91" width="6.49" height="22.34" style="fill:#8b00dd"/><rect x="390" y="331.91" width="6.49" height="22.34" style="fill:#8b00dd"/><rect x="423.77" y="331.91" width="6.49" height="22.34" style="fill:#8b00dd"/><rect x="433.64" y="331.91" width="6.49" height="22.34" style="fill:#8b00dd"/><rect x="467.4" y="331.91" width="6.49" height="22.34" style="fill:#8b00dd"/><rect x="336.5" y="397.08" width="6.49" height="22.34" style="fill:#4ee596"/><rect x="346.37" y="397.08" width="6.49" height="22.34" style="fill:#4ee596"/><rect x="380.13" y="397.08" width="6.49" height="22.34" style="fill:#8b00dd"/><rect x="390" y="397.08" width="6.49" height="22.34" style="fill:#8b00dd"/><rect x="423.77" y="397.08" width="6.49" height="22.34" style="fill:#8b00dd"/><rect x="433.64" y="397.08" width="6.49" height="22.34" style="fill:#8b00dd"/><rect x="467.4" y="397.08" width="6.49" height="22.34" style="fill:#8b00dd"/><rect x="336.5" y="463.26" width="6.49" height="22.34" style="fill:#4ee596"/><rect x="346.37" y="463.26" width="6.49" height="22.34" style="fill:#4ee596"/><rect x="380.13" y="463.26" width="6.49" height="22.34" style="fill:#8b00dd"/><rect x="390" y="463.26" width="6.49" height="22.34" style="fill:#8b00dd"/><rect x="423.77" y="463.26" width="6.49" height="22.34" style="fill:#8b00dd"/><rect x="433.64" y="463.26" width="6.49" height="22.34" style="fill:#8b00dd"/><rect x="467.4" y="463.26" width="6.49" height="22.34" style="fill:#8b00dd"/><rect x="336.5" y="529.43" width="6.49" height="22.34" style="fill:#4ee596"/><rect x="346.37" y="529.43" width="6.49" height="22.34" style="fill:#4ee596"/><rect x="380.13" y="529.43" width="6.49" height="22.34" style="fill:#8b00dd"/><rect x="390" y="529.43" width="6.49" height="22.34" style="fill:#8b00dd"/><rect x="423.77" y="529.43" width="6.49" height="22.34" style="fill:#8b00dd"/><rect x="433.64" y="529.43" width="6.49" height="22.34" style="fill:#8b00dd"/><rect x="467.4" y="529.43" width="6.49" height="22.34" style="fill:#8b00dd"/><rect x="336.5" y="595.6" width="6.49" height="22.34" style="fill:#4ee596"/><rect x="346.37" y="595.6" width="6.49" height="22.34" style="fill:#4ee596"/><rect x="380.13" y="595.6" width="6.49" height="22.34" style="fill:#8b00dd"/><rect x="390" y="595.6" width="6.49" height="22.34" style="fill:#8b00dd"/><rect x="423.77" y="595.6" width="6.49" height="22.34" style="fill:#8b00dd"/><rect x="433.64" y="595.6" width="6.49" height="22.34" style="fill:#8b00dd"/><rect x="467.4" y="595.6" width="6.49" height="22.34" style="fill:#8b00dd"/><rect x="355.95" y="670.62" width="8.02" height="8.02" transform="translate(719.92 1349.26) rotate(180)" style="fill:#2e1196"/><rect x="347.93" y="678.64" width="16.04" height="8.02" transform="translate(711.9 1365.29) rotate(180)" style="fill:#2e1196"/><rect x="339.92" y="686.66" width="24.05" height="8.02" transform="translate(703.88 1381.33) rotate(180)" style="fill:#2e1196"/><rect x="315.6" y="686.66" width="24.05" height="8.02" transform="translate(655.26 1381.33) rotate(180)" style="fill:#8b00dd"/><rect x="266.87" y="361.08" width="37.33" height="162.67" style="fill:#2e1196"/><rect x="304.2" y="383.47" width="21.39" height="5.45" style="fill:#2e1196"/><rect x="304.2" y="497.94" width="21.39" height="5.45" style="fill:#2e1196"/><rect x="266.87" y="361.08" width="31.96" height="162.67" style="fill:#8b00dd"/><rect x="273.26" y="453.8" width="20" height="4.15" style="fill:#4ee596"/><rect x="273.26" y="460.84" width="20" height="4.15" style="fill:#4ee596"/><rect x="273.26" y="467.88" width="20" height="4.15" style="fill:#4ee596"/><rect x="273.26" y="474.92" width="20" height="4.15" style="fill:#4ee596"/><rect x="273.26" y="481.96" width="20" height="4.15" style="fill:#4ee596"/><rect x="273.26" y="489" width="20" height="4.15" style="fill:#4ee596"/><rect x="273.26" y="496.05" width="20" height="4.15" style="fill:#4ee596"/><rect x="273.26" y="503.09" width="20" height="4.15" style="fill:#4ee596"/><rect x="273.26" y="510.13" width="20" height="4.15" style="fill:#4ee596"/><rect x="273.26" y="411.55" width="20" height="4.15" style="fill:#0a0837"/><rect x="273.26" y="418.59" width="20" height="4.15" style="fill:#0a0837"/><rect x="273.26" y="425.63" width="20" height="4.15" style="fill:#0a0837"/><rect x="273.26" y="432.67" width="20" height="4.15" style="fill:#0a0837"/><rect x="273.26" y="439.71" width="20" height="4.15" style="fill:#0a0837"/><rect x="273.26" y="446.75" width="20" height="4.15" style="fill:#0a0837"/><rect x="273.26" y="369.3" width="20" height="4.15" style="fill:#0a0837"/><rect x="273.26" y="376.34" width="20" height="4.15" style="fill:#0a0837"/><rect x="273.26" y="383.38" width="20" height="4.15" style="fill:#0a0837"/><rect x="273.26" y="390.42" width="20" height="4.15" style="fill:#0a0837"/><rect x="273.26" y="397.46" width="20" height="4.15" style="fill:#0a0837"/><rect x="273.26" y="404.5" width="20" height="4.15" style="fill:#0a0837"/><rect x="273.26" y="411.55" width="20" height="4.15" style="fill:#0a0837"/><polygon points="390.38 307.04 411.14 287.54 411.14 307.04 390.38 307.04" style="fill:#8b00dd"/><rect x="411.14" y="287.54" width="16.93" height="19.5" style="fill:#2e1196"/><polygon points="363.77 307.04 384.53 287.54 384.53 307.04 363.77 307.04" style="fill:#8b00dd"/><rect x="384.53" y="287.54" width="16.93" height="19.5" style="fill:#2e1196"/><rect x="298.75" y="409.61" width="54.81" height="1.87" transform="translate(-84.39 736.69) rotate(-90)" style="fill:#4ee596"/><rect x="317.96" y="439.73" width="5.48" height="1.87" transform="translate(-119.97 761.36) rotate(-90)" style="fill:#4ee596"/><rect x="298.94" y="475.22" width="54.42" height="1.87" transform="translate(-150 802.3) rotate(-90)" style="fill:#4ee596"/><rect x="304.2" y="382.2" width="15.94" height="1.87" style="fill:#4ee596"/><rect x="304.2" y="497" width="15.94" height="1.87" style="fill:#4ee596"/><rect x="317.96" y="505.19" width="5.48" height="1.87" transform="translate(-185.43 826.82) rotate(-90)" style="fill:#00ffc7;opacity:0.8"/><rect x="298.94" y="540.55" width="54.42" height="1.87" transform="translate(-215.34 867.64) rotate(-90)" style="fill:#4ee596"/><rect x="317.96" y="570.64" width="5.48" height="1.87" transform="translate(-250.88 892.27) rotate(-90)" style="fill:#4ee596"/><g style="opacity:0.6000000000000001"><rect x="690.1" y="602.02" width="36.21" height="91.79" style="fill:#7c00ff"/></g><rect x="770.25" y="641.65" width="12.9" height="52.47" style="fill:#7c00ff"/><rect x="801.75" y="641.65" width="12.9" height="52.47" style="fill:#7c00ff"/><circle cx="960.68" cy="340.93" r="17.33" style="fill:#8b00dd"/><circle cx="940.1" cy="346.35" r="11.91" style="fill:#8b00dd"/><circle cx="981.25" cy="346.35" r="11.91" style="fill:#8b00dd"/><rect x="940.1" y="340.93" width="41.15" height="17.33" style="fill:#8b00dd"/><circle cx="1084.73" cy="406.88" r="10.51" style="fill:#2e1196"/><circle cx="1072.25" cy="410.16" r="7.23" style="fill:#2e1196"/><circle cx="1097.21" cy="410.16" r="7.23" style="fill:#2e1196"/><rect x="1072.25" y="406.88" width="24.96" height="10.51" style="fill:#2e1196"/><circle cx="37.26" cy="611.91" r="10.51" style="fill:#2e1196"/><circle cx="24.78" cy="615.2" r="7.23" style="fill:#2e1196"/><circle cx="49.74" cy="615.2" r="7.23" style="fill:#2e1196"/><rect x="24.78" y="611.91" width="24.96" height="10.51" style="fill:#2e1196"/><rect x="1043.47" y="670.91" width="11.9" height="23.81" transform="translate(2098.84 1365.62) rotate(180)" style="fill:#2e1196"/><rect x="625.05" y="506.85" width="235.37" height="140.14" rx="7.47" transform="translate(1319.66 -165.82) rotate(90)" style="fill:#2e1196"/><rect x="632.91" y="506.85" width="235.37" height="140.14" rx="7.47" transform="translate(1327.51 -173.68) rotate(90)" style="fill:#8b00dd"/><path d="M820.67,687.13V466.71a7.48,7.48,0,0,0-7.48-7.48h-1.87a7.48,7.48,0,0,1,7.48,7.48V687.13a7.47,7.47,0,0,1-7.48,7.47h1.87A7.47,7.47,0,0,0,820.67,687.13Z" style="fill:#4ee596"/><rect x="642.63" y="515.05" width="210.67" height="121.46" transform="translate(1323.75 -172.19) rotate(90)" style="fill:#41ef98"/><rect x="644.88" y="515.05" width="210.67" height="121.46" transform="translate(1325.99 -174.43) rotate(90)" style="fill:#0a0837"/><rect x="707.45" y="486.69" width="4.74" height="16.32" transform="translate(214.98 1204.67) rotate(-90)" style="fill:#4ee596"/><rect x="707.45" y="479.48" width="4.74" height="16.32" transform="translate(222.19 1197.46) rotate(-90)" style="fill:#4ee596"/><rect x="707.45" y="501" width="4.74" height="16.32" transform="translate(200.67 1218.98) rotate(-90)" style="fill:#4ee596"/><rect x="707.45" y="493.78" width="4.74" height="16.32" transform="translate(207.88 1211.77) rotate(-90)" style="fill:#4ee596"/><rect x="707.45" y="515.3" width="4.74" height="16.32" transform="translate(186.36 1233.29) rotate(-90)" style="fill:#4ee596"/><rect x="707.45" y="508.09" width="4.74" height="16.32" transform="translate(193.57 1226.08) rotate(-90)" style="fill:#4ee596"/><rect x="707.45" y="529.61" width="4.74" height="16.32" transform="translate(172.05 1247.6) rotate(-90)" style="fill:#4ee596"/><rect x="707.45" y="522.4" width="4.74" height="16.32" transform="translate(179.26 1240.39) rotate(-90)" style="fill:#4ee596"/><rect x="707.45" y="543.92" width="4.74" height="16.32" transform="translate(157.74 1261.91) rotate(-90)" style="fill:#4ee596"/><rect x="707.45" y="536.71" width="4.74" height="16.32" transform="translate(164.95 1254.69) rotate(-90)" style="fill:#4ee596"/><rect x="707.45" y="558.23" width="4.74" height="16.32" transform="translate(143.44 1276.21) rotate(-90)" style="fill:#4ee596"/><rect x="707.45" y="551.02" width="4.74" height="16.32" transform="translate(150.65 1269) rotate(-90)" style="fill:#4ee596"/><rect x="731.36" y="486.69" width="4.74" height="16.32" transform="translate(238.89 1228.58) rotate(-90)" style="fill:#4ee596"/><rect x="731.36" y="500.92" width="4.74" height="16.32" transform="translate(224.66 1242.81) rotate(-90)" style="fill:#4ee596"/><rect x="731.36" y="551.02" width="4.74" height="16.32" transform="translate(174.56 1292.91) rotate(-90)" style="fill:#4ee596"/><rect x="731.36" y="565.57" width="4.74" height="16.32" transform="translate(160.01 1307.46) rotate(-90)" style="fill:#4ee596"/><rect x="731.36" y="572.78" width="4.74" height="16.32" transform="translate(152.8 1314.67) rotate(-90)" style="fill:#4ee596"/><rect x="731.36" y="601.37" width="4.74" height="16.32" transform="translate(124.21 1343.27) rotate(-90)" style="fill:#4ee596"/><rect x="731.36" y="522.36" width="4.74" height="16.32" transform="translate(203.21 1264.26) rotate(-90)" style="fill:#4ee596"/><rect x="739.77" y="471.07" width="4.74" height="33.13" transform="translate(254.5 1229.78) rotate(-90)" style="fill:#4ee596"/><rect x="739.77" y="506.94" width="4.74" height="33.13" transform="translate(218.64 1265.64) rotate(-90)" style="fill:#4ee596"/><rect x="739.77" y="521.23" width="4.74" height="33.13" transform="translate(204.34 1279.94) rotate(-90)" style="fill:#4ee596"/><rect x="739.77" y="528.19" width="4.74" height="33.13" transform="translate(197.38 1286.9) rotate(-90)" style="fill:#4ee596"/><rect x="739.77" y="549.7" width="4.74" height="33.13" transform="translate(175.88 1308.4) rotate(-90)" style="fill:#4ee596"/><rect x="739.77" y="578.67" width="4.74" height="33.13" transform="translate(146.91 1337.37) rotate(-90)" style="fill:#4ee596"/><rect x="739.77" y="600.05" width="4.74" height="33.13" transform="translate(125.53 1358.75) rotate(-90)" style="fill:#4ee596"/><rect x="756.41" y="468.6" width="4.74" height="66.41" transform="translate(256.98 1260.59) rotate(-90)" style="fill:#4ee596"/><rect x="756.41" y="483.02" width="4.74" height="66.41" transform="translate(242.55 1275.01) rotate(-90)" style="fill:#4ee596"/><rect x="756.41" y="518.82" width="4.74" height="66.41" transform="translate(206.75 1310.81) rotate(-90)" style="fill:#4ee596"/><rect x="756.41" y="554.88" width="4.74" height="66.41" transform="translate(170.7 1346.87) rotate(-90)" style="fill:#4ee596"/><rect x="756.41" y="569.18" width="4.74" height="66.41" transform="translate(156.4 1361.16) rotate(-90)" style="fill:#4ee596"/><rect x="757.64" y="643.27" width="41.18" height="41.18" transform="translate(-108.06 153.12) rotate(-10.51)" style="fill:#4ee596"/><rect x="772.23" y="650.95" width="16.37" height="2.54" transform="translate(-105.89 153.33) rotate(-10.51)" style="fill:#0a0837"/><rect x="763.75" y="656.81" width="25.86" height="2.54" transform="translate(-107.03 152.74) rotate(-10.51)" style="fill:#0a0837"/><rect x="762.99" y="653.54" width="6.88" height="2.54" transform="translate(-106.6 150.82) rotate(-10.51)" style="fill:#0a0837"/><rect x="764.76" y="662.65" width="16.37" height="2.54" transform="translate(1654.03 1175.68) rotate(169.49)" style="fill:#0a0837"/><rect x="783.49" y="660.05" width="6.88" height="2.54" transform="matrix(-0.98, 0.18, -0.18, -0.98, 1681.31, 1167.97)" style="fill:#0a0837"/><polygon points="680.38 691.1 664.97 691.1 664.97 568.83 672.68 558.09 680.38 568.83 680.38 691.1" style="fill:#8b00dd"/><rect x="664.97" y="569.56" width="3.15" height="121.54" style="fill:#2e1196"/><rect x="671.02" y="569.56" width="3.15" height="121.54" style="fill:#2e1196"/><rect x="677.23" y="569.56" width="3.15" height="121.54" style="fill:#2e1196"/><polygon points="672.68 558.09 675.78 562.42 669.57 562.42 672.68 558.09" style="fill:#2e1196"/><rect x="664.75" y="676.44" width="15.78" height="18.21" style="fill:#2e1196"/><rect x="664.75" y="680.44" width="15.78" height="4.15" style="fill:#8b00dd"/><rect x="402.62" y="570.36" width="184.62" height="124.3" style="fill:#8b00dd"/><rect x="402.62" y="557.08" width="184.62" height="14.1" style="fill:#2e1196"/><circle cx="412.47" cy="564.13" r="2.38" style="fill:#8b00dd"/><circle cx="419.79" cy="564.13" r="2.38" style="fill:#8b00dd"/><circle cx="427.12" cy="564.13" r="2.38" style="fill:#8b00dd"/><rect x="420.34" y="586.32" width="149.18" height="108.34" style="fill:#2e1196;opacity:0.30000000000000004"/><rect x="439.25" y="612.91" width="21.04" height="1.19" style="fill:#2e1196"/><rect x="439.25" y="618.17" width="21.04" height="1.19" style="fill:#2e1196"/><rect x="439.25" y="623.43" width="21.04" height="1.19" style="fill:#2e1196"/><rect x="439.25" y="628.69" width="21.04" height="1.19" style="fill:#2e1196"/><rect x="439.25" y="633.95" width="21.04" height="1.19" style="fill:#2e1196"/><rect x="439.25" y="639.21" width="21.04" height="1.19" style="fill:#2e1196"/><rect x="439.25" y="644.47" width="21.04" height="1.19" style="fill:#2e1196"/><rect x="439.25" y="649.74" width="21.04" height="1.19" style="fill:#2e1196"/><rect x="439.25" y="655" width="21.04" height="1.19" style="fill:#2e1196"/><rect x="439.25" y="660.26" width="21.04" height="1.19" style="fill:#2e1196"/><rect x="439.25" y="676.04" width="21.04" height="1.19" style="fill:#2e1196"/><rect x="439.25" y="681.3" width="21.04" height="1.19" style="fill:#2e1196"/><rect x="439.25" y="686.56" width="21.04" height="1.19" style="fill:#2e1196"/><rect x="439.25" y="691.82" width="21.04" height="1.19" style="fill:#2e1196"/><rect x="470.11" y="676.04" width="21.04" height="1.19" style="fill:#2e1196"/><rect x="470.11" y="681.3" width="21.04" height="1.19" style="fill:#2e1196"/><rect x="470.11" y="686.56" width="21.04" height="1.19" style="fill:#2e1196"/><rect x="470.11" y="691.82" width="21.04" height="1.19" style="fill:#2e1196"/><rect x="500.98" y="612.91" width="21.04" height="1.19" style="fill:#2e1196"/><rect x="500.98" y="618.17" width="21.04" height="1.19" style="fill:#2e1196"/><rect x="500.98" y="623.43" width="21.04" height="1.19" style="fill:#2e1196"/><rect x="500.98" y="628.69" width="21.04" height="1.19" style="fill:#2e1196"/><rect x="500.98" y="633.95" width="21.04" height="1.19" style="fill:#2e1196"/><rect x="500.98" y="639.21" width="21.04" height="1.19" style="fill:#2e1196"/><rect x="500.98" y="644.47" width="21.04" height="1.19" style="fill:#2e1196"/><rect x="500.98" y="649.74" width="21.04" height="1.19" style="fill:#2e1196"/><rect x="500.98" y="655" width="21.04" height="1.19" style="fill:#2e1196"/><rect x="500.98" y="660.26" width="21.04" height="1.19" style="fill:#2e1196"/><rect x="500.98" y="665.52" width="21.04" height="1.19" style="fill:#2e1196"/><rect x="500.98" y="670.78" width="21.04" height="1.19" style="fill:#2e1196"/><rect x="500.98" y="676.04" width="21.04" height="1.19" style="fill:#2e1196"/><rect x="500.98" y="681.3" width="21.04" height="1.19" style="fill:#2e1196"/><rect x="500.98" y="686.56" width="21.04" height="1.19" style="fill:#2e1196"/><rect x="500.98" y="691.82" width="21.04" height="1.19" style="fill:#2e1196"/><rect x="531.84" y="612.91" width="21.04" height="1.19" style="fill:#2e1196"/><rect x="531.84" y="618.17" width="21.04" height="1.19" style="fill:#2e1196"/><rect x="531.84" y="623.43" width="21.04" height="1.19" style="fill:#2e1196"/><rect x="531.84" y="628.69" width="21.04" height="1.19" style="fill:#2e1196"/><rect x="531.84" y="633.95" width="21.04" height="1.19" style="fill:#2e1196"/><rect x="531.84" y="639.21" width="21.04" height="1.19" style="fill:#2e1196"/><rect x="531.84" y="644.47" width="21.04" height="1.19" style="fill:#2e1196"/><rect x="531.84" y="649.74" width="21.04" height="1.19" style="fill:#2e1196"/><rect x="531.84" y="655" width="21.04" height="1.19" style="fill:#2e1196"/><rect x="531.84" y="660.26" width="21.04" height="1.19" style="fill:#2e1196"/><rect x="531.84" y="665.52" width="21.04" height="1.19" style="fill:#2e1196"/><rect x="531.84" y="670.78" width="21.04" height="1.19" style="fill:#2e1196"/><rect x="531.84" y="676.04" width="21.04" height="1.19" style="fill:#2e1196"/><rect x="531.84" y="681.3" width="21.04" height="1.19" style="fill:#2e1196"/><rect x="531.84" y="686.56" width="21.04" height="1.19" style="fill:#2e1196"/><rect x="531.84" y="691.82" width="21.04" height="1.19" style="fill:#2e1196"/><rect x="439.25" y="612.34" width="51.91" height="51.91" style="fill:#2e1196"/><rect x="460.91" y="623.55" width="19.09" height="19.09" style="fill:#8b00dd"/><path d="M469.28,634.26v15.49H453.8V634.26h15.48m1.8-1.8H452v19.09h19.08V632.46Z" style="fill:#4ee596"/><rect x="907.69" y="474.75" width="123.21" height="6.74" transform="translate(1938.6 956.25) rotate(180)" style="fill:#8b00dd"/><rect x="320.14" y="305.75" width="190.9" height="6.74" transform="translate(831.17 618.25) rotate(180)" style="fill:#8b00dd"/><rect x="758.09" y="643.26" width="41.18" height="41.18" transform="translate(-108.05 153.21) rotate(-10.51)" style="fill:#ffcf06"/><rect x="772.68" y="650.94" width="16.37" height="2.54" transform="translate(-105.88 153.41) rotate(-10.51)" style="fill:#0a0837"/><rect x="764.2" y="656.8" width="25.86" height="2.54" transform="translate(-107.02 152.83) rotate(-10.51)" style="fill:#0a0837"/><rect x="763.43" y="653.53" width="6.88" height="2.54" transform="translate(-106.59 150.9) rotate(-10.51)" style="fill:#0a0837"/><rect x="765.2" y="662.64" width="16.37" height="2.54" transform="translate(1654.92 1175.57) rotate(169.49)" style="fill:#0a0837"/><rect x="783.94" y="660.04" width="6.88" height="2.54" transform="translate(1682.2 1167.87) rotate(169.49)" style="fill:#0a0837"/><polyline points="800.21 667.02 802.68 680.34 789.36 682.81" style="fill:#ff9e29"/></svg>