<svg id="Layer_1" data-name="Layer 1" xmlns="http://www.w3.org/2000/svg" viewBox="0 0 1590.45 729.27"><title>Artboard 2 copy 5</title><rect width="1590.45" height="728.79" style="fill:#090329"/><g style="opacity:0.2"><rect x="894.51" y="567.9" width="30.05" height="122.79" style="fill:#7c00ff"/></g><rect x="906.11" y="420.56" width="36.7" height="230.67" style="fill:#2e1196"/><rect x="974.26" y="339.01" width="36.7" height="230.67" style="fill:#2e1196"/><rect x="942.81" y="420.56" width="136.3" height="308.44" transform="translate(2021.91 1149.55) rotate(180)" style="fill:#8b00dd"/><rect x="1010.96" y="339.01" width="68.15" height="230.67" transform="translate(2090.07 908.68) rotate(180)" style="fill:#8b00dd"/><rect x="974.26" y="360.92" width="104.85" height="5.24" style="fill:#2e1196"/><rect x="974.26" y="388.05" width="104.85" height="5.24" style="fill:#2e1196"/><rect x="974.26" y="415.18" width="104.85" height="5.24" style="fill:#2e1196"/><rect x="906.11" y="442.31" width="173" height="5.24" style="fill:#2e1196"/><rect x="906.11" y="469.44" width="173" height="5.24" style="fill:#2e1196"/><rect x="906.11" y="496.57" width="173" height="5.24" style="fill:#2e1196"/><rect x="906.11" y="523.7" width="173" height="5.24" style="fill:#2e1196"/><rect x="906.11" y="550.83" width="173" height="5.24" style="fill:#2e1196"/><rect x="906.11" y="577.96" width="173" height="5.24" style="fill:#2e1196"/><rect x="906.11" y="605.09" width="173" height="5.24" style="fill:#2e1196"/><rect x="906.11" y="632.22" width="173" height="5.24" style="fill:#2e1196"/><rect x="906.11" y="442.31" width="36.7" height="5.24" style="fill:#65ffcd"/><rect x="906.11" y="469.44" width="36.7" height="5.24" style="fill:#65ffcd"/><rect x="906.11" y="496.57" width="36.7" height="5.24" style="fill:#65ffcd"/><rect x="906.11" y="523.7" width="36.7" height="5.24" style="fill:#65ffcd"/><rect x="906.11" y="550.83" width="36.7" height="5.24" style="fill:#65ffcd"/><rect x="906.11" y="577.96" width="36.7" height="5.24" style="fill:#65ffcd"/><rect x="906.11" y="605.09" width="36.7" height="5.24" style="fill:#65ffcd"/><rect x="906.11" y="632.22" width="36.7" height="5.24" style="fill:#65ffcd"/><rect x="974.26" y="360.92" width="36.7" height="5.24" style="fill:#65ffcd"/><rect x="974.26" y="388.05" width="36.7" height="5.24" style="fill:#65ffcd"/><rect x="974.26" y="415.18" width="36.7" height="5.24" style="fill:#65ffcd"/><rect x="992.64" y="662.52" width="21.21" height="42.42" transform="translate(2006.48 1367.47) rotate(180)" style="fill:#0a0837"/><rect x="991.7" y="682.8" width="42.42" height="1.87" transform="translate(329.18 1696.64) rotate(-90)" style="fill:#65ffcd"/><rect x="992.64" y="704.94" width="8.02" height="8.02" style="fill:#2e1196"/><rect x="992.64" y="712.96" width="16.04" height="8.02" style="fill:#2e1196"/><rect x="992.64" y="720.98" width="24.05" height="8.02" style="fill:#2e1196"/><rect x="1016.69" y="720.98" width="24.05" height="8.02" style="fill:#8b00dd"/><rect x="1008.67" y="712.96" width="24.05" height="8.02" style="fill:#8b00dd"/><rect x="1000.65" y="704.94" width="24.05" height="8.02" style="fill:#8b00dd"/><polygon points="1059.88 320.63 1028.11 320.6 1019.53 330.82 1026.68 338.63 1062.16 338.63 1069.72 330.79 1059.88 320.63" style="fill:#2e1196"/><polygon points="1044.07 341.01 1034.23 330.82 1044.07 320.63 1046.46 322.94 1038.86 330.82 1046.46 338.69 1044.07 341.01" style="fill:#8b00dd"/><polygon points="1059.88 341.01 1057.49 338.69 1065.09 330.82 1057.49 322.94 1059.88 320.63 1069.72 330.82 1059.88 341.01" style="fill:#8b00dd"/><rect x="1041.92" y="329.15" width="19.49" height="3.33" transform="translate(350.19 1181.33) rotate(-67.95)" style="fill:#8b00dd"/><rect x="1095.15" y="238.49" width="87.27" height="489.99" style="fill:#8b00dd"/><rect x="1133.33" y="260.68" width="141.81" height="468.31" style="fill:#2e1196"/><rect x="1096.28" y="293.05" width="37.06" height="0.64" style="fill:#2e1196;stroke:#2e1196;stroke-miterlimit:10;stroke-width:2px"/><rect x="1096.28" y="325.23" width="37.06" height="0.64" style="fill:#2e1196;stroke:#2e1196;stroke-miterlimit:10;stroke-width:2px"/><rect x="1096.28" y="357.41" width="37.06" height="0.64" style="fill:#2e1196;stroke:#2e1196;stroke-miterlimit:10;stroke-width:2px"/><rect x="1096.28" y="389.59" width="37.06" height="0.64" style="fill:#2e1196;stroke:#2e1196;stroke-miterlimit:10;stroke-width:2px"/><rect x="1096.28" y="421.77" width="37.06" height="0.64" style="fill:#2e1196;stroke:#2e1196;stroke-miterlimit:10;stroke-width:2px"/><rect x="1096.28" y="453.94" width="37.06" height="0.64" style="fill:#2e1196;stroke:#2e1196;stroke-miterlimit:10;stroke-width:2px"/><rect x="1096.28" y="486.12" width="37.06" height="0.64" style="fill:#2e1196;stroke:#2e1196;stroke-miterlimit:10;stroke-width:2px"/><rect x="1096.28" y="518.3" width="37.06" height="0.64" style="fill:#2e1196;stroke:#2e1196;stroke-miterlimit:10;stroke-width:2px"/><rect x="1096.28" y="550.48" width="37.06" height="0.64" style="fill:#2e1196;stroke:#2e1196;stroke-miterlimit:10;stroke-width:2px"/><rect x="1096.28" y="582.66" width="37.06" height="0.64" style="fill:#2e1196;stroke:#2e1196;stroke-miterlimit:10;stroke-width:2px"/><rect x="1096.28" y="614.84" width="37.06" height="0.64" style="fill:#2e1196;stroke:#2e1196;stroke-miterlimit:10;stroke-width:2px"/><rect x="1133.74" y="292.76" width="141.11" height="1.23" style="fill:#65ffcd;stroke:#65ffcd;stroke-miterlimit:10;stroke-width:0.75px"/><rect x="1133.74" y="324.93" width="141.11" height="1.23" style="fill:#65ffcd;stroke:#65ffcd;stroke-miterlimit:10;stroke-width:0.75px"/><rect x="1133.74" y="357.11" width="141.11" height="1.23" style="fill:#65ffcd;stroke:#65ffcd;stroke-miterlimit:10;stroke-width:0.75px"/><rect x="1133.74" y="389.29" width="141.11" height="1.23" style="fill:#65ffcd;stroke:#65ffcd;stroke-miterlimit:10;stroke-width:0.75px"/><rect x="1133.74" y="421.47" width="141.11" height="1.23" style="fill:#65ffcd;stroke:#65ffcd;stroke-miterlimit:10;stroke-width:0.75px"/><rect x="1133.74" y="453.65" width="141.11" height="1.23" style="fill:#65ffcd;stroke:#65ffcd;stroke-miterlimit:10;stroke-width:0.75px"/><rect x="1133.74" y="485.83" width="141.11" height="1.23" style="fill:#65ffcd;stroke:#65ffcd;stroke-miterlimit:10;stroke-width:0.75px"/><rect x="1133.74" y="518" width="141.11" height="1.23" style="fill:#65ffcd;stroke:#65ffcd;stroke-miterlimit:10;stroke-width:0.75px"/><rect x="1133.74" y="550.18" width="141.11" height="1.23" style="fill:#65ffcd;stroke:#65ffcd;stroke-miterlimit:10;stroke-width:0.75px"/><rect x="1133.74" y="582.36" width="141.11" height="1.23" style="fill:#65ffcd;stroke:#65ffcd;stroke-miterlimit:10;stroke-width:0.75px"/><rect x="1133.74" y="614.54" width="141.11" height="1.23" style="fill:#65ffcd;stroke:#65ffcd;stroke-miterlimit:10;stroke-width:0.75px"/><rect x="1215.73" y="676.47" width="12.9" height="52.47" style="fill:#8b00dd"/><rect x="1247.23" y="676.47" width="12.9" height="52.47" style="fill:#8b00dd"/><circle cx="1200.23" cy="260.99" r="22.5" style="fill:#6400d4"/><rect x="1133.33" y="238.49" width="141.51" height="51.15" style="fill:#2e1196"/><path d="M1219.09,266c0-2-2.49-3.87-6.31-5,.89-3.89.49-7-1.23-8a2.7,2.7,0,0,0-1.37-.34V254a1.37,1.37,0,0,1,.7.16c.83.48,1.19,2.29.91,4.63-.07.57-.18,1.18-.31,1.8a29.13,29.13,0,0,0-3.89-.67,29.68,29.68,0,0,0-2.54-3.06c2-1.85,3.86-2.87,5.14-2.87v-1.36h0c-1.69,0-3.89,1.2-6.11,3.28-2.23-2.07-4.43-3.26-6.11-3.26V254c1.26,0,3.14,1,5.13,2.85a29.43,29.43,0,0,0-2.52,3.05,29.13,29.13,0,0,0-3.89.67c-.14-.61-.24-1.2-.32-1.77-.29-2.34.07-4.15.89-4.64a1.41,1.41,0,0,1,.71-.16v-1.36h0a2.72,2.72,0,0,0-1.38.34c-1.72,1-2.11,4.08-1.22,8-3.8,1.17-6.28,3.05-6.28,5s2.49,3.87,6.3,5c-.88,3.89-.49,7,1.24,8a2.61,2.61,0,0,0,1.37.35c1.69,0,3.89-1.2,6.11-3.28,2.23,2.07,4.43,3.25,6.11,3.25a2.72,2.72,0,0,0,1.38-.34c1.72-1,2.11-4.08,1.22-8C1216.61,269.86,1219.09,268,1219.09,266Zm-8-4.08c-.23.79-.51,1.6-.83,2.42-.25-.49-.51-1-.8-1.47s-.58-1-.88-1.43C1209.49,261.56,1210.33,261.72,1211.13,261.91Zm-2.8,6.51c-.48.83-1,1.61-1.48,2.34q-1.36.12-2.76.12c-.92,0-1.85,0-2.75-.11-.51-.73-1-1.51-1.48-2.33s-.89-1.61-1.27-2.43c.37-.82.8-1.64,1.26-2.44s1-1.61,1.48-2.34q1.37-.12,2.76-.12c.92,0,1.85,0,2.75.12.51.72,1,1.5,1.48,2.32s.89,1.62,1.27,2.43C1209.21,266.8,1208.79,267.62,1208.33,268.42Zm2-.79c.33.82.61,1.64.85,2.43-.81.2-1.65.36-2.52.49.3-.47.6-.95.88-1.45S1210.05,268.12,1210.3,267.63Zm-6.2,6.52a24,24,0,0,1-1.7-1.95c.55,0,1.11,0,1.68,0s1.15,0,1.7,0A23.89,23.89,0,0,1,1204.1,274.15Zm-4.55-3.6c-.87-.13-1.7-.28-2.51-.48.23-.79.51-1.6.83-2.42.25.49.51,1,.8,1.47S1199.25,270.09,1199.55,270.55Zm4.52-12.72a24,24,0,0,1,1.7,1.95c-.55,0-1.11,0-1.68,0s-1.14,0-1.7,0A23.89,23.89,0,0,1,1204.07,257.83Zm-4.52,3.6c-.3.47-.6.95-.89,1.45s-.54,1-.79,1.47a25.22,25.22,0,0,1-.84-2.44Q1198.23,261.63,1199.55,261.43Zm-5.54,7.65c-2.16-.92-3.56-2.13-3.56-3.09s1.4-2.18,3.56-3.09a17.73,17.73,0,0,1,1.7-.62,27.85,27.85,0,0,0,1.37,3.72,30.69,30.69,0,0,0-1.36,3.71A17.94,17.94,0,0,1,1194,269.08Zm3.29,8.74c-.83-.47-1.19-2.29-.91-4.63.07-.57.18-1.18.31-1.79a29.16,29.16,0,0,0,3.89.66,29.68,29.68,0,0,0,2.54,3.06c-2,1.85-3.87,2.87-5.14,2.87A1.44,1.44,0,0,1,1197.3,277.82Zm14.51-4.66c.28,2.34-.07,4.16-.9,4.64a1.34,1.34,0,0,1-.7.16c-1.27,0-3.14-1-5.14-2.85a28.26,28.26,0,0,0,2.53-3.05,29.09,29.09,0,0,0,3.89-.68C1211.63,272,1211.74,272.59,1211.81,273.16Zm2.35-4.08c-.53.23-1.1.43-1.69.62a29.42,29.42,0,0,0-1.38-3.72,28.54,28.54,0,0,0,1.36-3.71c.6.19,1.18.4,1.72.63,2.16.92,3.56,2.13,3.56,3.09S1216.33,268.17,1214.16,269.08Z" style="fill:#65ffcd"/><circle cx="1204.08" cy="265.99" r="2.79" style="fill:#65ffcd"/><polygon points="1160.09 238.19 1180.86 218.69 1180.86 238.19 1160.09 238.19" style="fill:#8b00dd"/><rect x="1180.86" y="218.69" width="16.93" height="19.5" style="fill:#2e1196"/><polygon points="1133.48 238.19 1154.25 218.69 1154.25 238.19 1133.48 238.19" style="fill:#8b00dd"/><rect x="1154.25" y="218.69" width="16.93" height="19.5" style="fill:#2e1196"/><rect x="1201.44" y="701.8" width="52.53" height="1.87" transform="translate(524.97 1930.43) rotate(-90)" style="fill:#65ffcd"/><rect x="1232.93" y="701.8" width="52.53" height="1.87" transform="translate(556.46 1961.93) rotate(-90)" style="fill:#65ffcd"/><rect x="1203.21" y="508.29" width="8.3" height="127.32" style="fill:#2e1196"/><g style="opacity:0.2"><rect x="520.77" y="627.5" width="19.97" height="101.77" style="fill:#2e1196"/></g><g style="opacity:0.6000000000000001"><rect x="573.78" y="605.41" width="30.05" height="122.79" style="fill:#2e1196"/></g><g style="opacity:0.4"><rect x="696.9" y="566.12" width="30.05" height="122.79" style="fill:#2e1196"/></g><g style="opacity:0.30000000000000004"><rect x="485.04" y="643.25" width="24.1" height="86.01" style="fill:#2e1196"/></g><g style="opacity:0.6000000000000001"><rect x="460.81" y="674.57" width="16.02" height="54.69" style="fill:#2e1196"/></g><g style="opacity:0.30000000000000004"><rect x="446.57" y="691.21" width="14.24" height="38.05" style="fill:#2e1196"/></g><g style="opacity:0.6000000000000001"><rect x="509.88" y="691.21" width="24.1" height="38.05" style="fill:#2e1196"/></g><g style="opacity:0.6000000000000001"><rect x="429.53" y="710.23" width="12.05" height="19.02" style="fill:#2e1196"/></g><rect x="530.97" y="688.35" width="6.62" height="40.51" style="fill:#2e1196"/><rect x="509.28" y="688.35" width="23.82" height="40.44" style="fill:#8b00dd"/><rect x="512.22" y="691.22" width="17.93" height="28.24" style="fill:#2e1196"/><rect x="516.14" y="722.17" width="10.09" height="3.53" style="fill:#2e1196"/><rect x="1373.59" y="450.62" width="47.76" height="278.38" style="fill:#2e1196"/><rect x="1381.56" y="460.86" width="31.82" height="1.93" style="fill:#65ffcd"/><rect x="1381.56" y="468.59" width="31.82" height="1.93" style="fill:#65ffcd"/><rect x="1381.56" y="476.32" width="31.82" height="1.93" style="fill:#65ffcd"/><rect x="1381.56" y="484.05" width="31.82" height="1.93" style="fill:#65ffcd"/><rect x="1381.56" y="491.78" width="31.82" height="1.93" style="fill:#65ffcd"/><rect x="1381.56" y="499.51" width="31.82" height="1.93" style="fill:#65ffcd"/><rect x="1381.56" y="507.25" width="31.82" height="1.93" style="fill:#65ffcd"/><rect x="1391.71" y="435.8" width="11.53" height="14.82" style="fill:#2e1196"/><rect x="1381.56" y="523.45" width="31.82" height="1.93" style="fill:#65ffcd"/><rect x="1381.56" y="515.72" width="31.82" height="1.93" style="fill:#65ffcd"/><rect x="1381.56" y="531.18" width="31.82" height="1.93" style="fill:#65ffcd"/><rect x="1381.56" y="538.91" width="31.82" height="1.93" style="fill:#65ffcd"/><rect x="1381.56" y="546.64" width="31.82" height="1.93" style="fill:#65ffcd"/><rect x="1381.56" y="555.34" width="31.82" height="1.93" style="fill:#65ffcd"/><rect x="1381.56" y="563.07" width="31.82" height="1.93" style="fill:#65ffcd"/><rect x="1381.56" y="570.8" width="31.82" height="1.93" style="fill:#65ffcd"/><rect x="1381.56" y="578.53" width="31.82" height="1.93" style="fill:#65ffcd"/><rect x="1381.56" y="586.26" width="31.82" height="1.93" style="fill:#65ffcd"/><g style="opacity:0.2"><rect x="1508.29" y="643.04" width="24.1" height="86.01" style="fill:#2e1196"/></g><g style="opacity:0.6000000000000001"><rect x="1540.6" y="674.36" width="16.02" height="54.69" style="fill:#2e1196"/></g><g style="opacity:0.30000000000000004"><rect x="1557.1" y="691" width="14.24" height="38.05" style="fill:#2e1196"/></g><g style="opacity:0.6000000000000001"><rect x="1576.34" y="710.02" width="12.05" height="19.02" style="fill:#2e1196"/></g><g style="opacity:0.6000000000000001"><rect x="1428.83" y="513.15" width="30.05" height="130.89" style="fill:#2e1196"/></g><g style="opacity:0.4"><rect x="1471.49" y="560.82" width="19.97" height="83.23" style="fill:#2e1196"/></g><polygon points="1453.2 590.9 1470.08 575.05 1470.08 590.9 1453.2 590.9" style="fill:#8b00dd"/><rect x="1470.08" y="575.05" width="13.76" height="15.85" style="fill:#2a066b"/><rect x="1462.12" y="590.88" width="46.8" height="138.17" style="fill:#2e1196"/><rect x="1415.25" y="590.88" width="46.87" height="138.17" style="fill:#8b00dd"/><rect x="1425.35" y="599" width="7.26" height="19" style="fill:#2e1196"/><rect x="1425.35" y="630.08" width="7.26" height="19" style="fill:#2e1196"/><rect x="1472.56" y="630.08" width="7.26" height="19" style="fill:#65ffcd"/><rect x="1445.01" y="599" width="7.26" height="19" style="fill:#65ffcd"/><rect x="1492.3" y="599" width="7.26" height="19" style="fill:#8b00dd"/><polygon points="1431.57 590.9 1448.45 575.05 1448.45 590.9 1431.57 590.9" style="fill:#8b00dd"/><rect x="1448.45" y="575.05" width="13.76" height="15.85" style="fill:#2a066b"/><g style="opacity:0.4"><rect x="1275.15" y="595.4" width="30.05" height="133.6" style="fill:#2e1196"/></g><rect x="1295.96" y="512.47" width="84.55" height="216.53" style="fill:#8b00dd"/><rect x="1330.53" y="512.47" width="77.19" height="216.53" style="fill:#2e1196"/><rect x="1292.58" y="561.62" width="37.95" height="3.19" style="fill:#8b00dd"/><rect x="1295.96" y="515.66" width="34.57" height="5.9" style="fill:#0a0837"/><rect x="1295.96" y="564.81" width="34.57" height="5.9" style="fill:#0a0837"/><rect x="1292.58" y="610.82" width="37.95" height="3.19" style="fill:#8b00dd"/><rect x="1295.96" y="614.01" width="34.57" height="5.9" style="fill:#0a0837"/><rect x="1292.58" y="659.97" width="37.95" height="3.19" style="fill:#8b00dd"/><rect x="1295.96" y="663.16" width="34.57" height="5.9" style="fill:#0a0837"/><rect x="1292.58" y="512.47" width="118.67" height="3.19" style="fill:#8b00dd"/><rect x="1305.29" y="529.94" width="6.49" height="22.34" style="fill:#65ffcd"/><rect x="1315.16" y="529.94" width="6.49" height="22.34" style="fill:#65ffcd"/><rect x="1348.93" y="529.94" width="6.49" height="22.34" style="fill:#8b00dd"/><rect x="1358.8" y="529.94" width="6.49" height="22.34" style="fill:#8b00dd"/><rect x="1392.56" y="529.94" width="6.49" height="22.34" style="fill:#8b00dd"/><rect x="1305.29" y="578.66" width="6.49" height="22.34" style="fill:#65ffcd"/><rect x="1315.16" y="578.66" width="6.49" height="22.34" style="fill:#65ffcd"/><rect x="1348.93" y="578.66" width="6.49" height="22.34" style="fill:#8b00dd"/><rect x="1358.8" y="578.66" width="6.49" height="22.34" style="fill:#8b00dd"/><rect x="1392.56" y="578.66" width="6.49" height="22.34" style="fill:#8b00dd"/><rect x="1305.29" y="628.38" width="6.49" height="22.34" style="fill:#65ffcd"/><rect x="1315.16" y="628.38" width="6.49" height="22.34" style="fill:#65ffcd"/><rect x="1392.56" y="628.38" width="6.49" height="22.34" style="fill:#8b00dd"/><rect x="1276.87" y="540.65" width="40.06" height="1.87" transform="translate(755.31 1838.48) rotate(-90)" style="fill:#65ffcd"/><rect x="1276.87" y="589.85" width="40.06" height="1.87" transform="translate(706.11 1887.68) rotate(-90)" style="fill:#65ffcd"/><rect x="1276.79" y="639" width="40.06" height="1.87" transform="translate(656.88 1936.75) rotate(-90)" style="fill:#65ffcd"/><rect x="1267.23" y="697.79" width="59.34" height="1.87" transform="translate(598.17 1995.62) rotate(-90)" style="fill:#65ffcd"/><rect x="1310.5" y="714.37" width="4.87" height="4.87" transform="translate(2625.88 1433.61) rotate(180)" style="fill:#2e1196"/><rect x="1305.63" y="719.24" width="9.75" height="4.87" transform="translate(2621.01 1443.36) rotate(180)" style="fill:#2e1196"/><rect x="1291" y="719.24" width="14.62" height="4.87" transform="translate(2596.63 1443.36) rotate(180)" style="fill:#8b00dd"/><rect x="1300.75" y="724.12" width="14.62" height="4.87" transform="translate(2616.13 1453.11) rotate(180)" style="fill:#2e1196"/><rect x="1295.88" y="714.37" width="4.87" height="4.87" transform="translate(2596.63 1433.61) rotate(180)" style="fill:#8b00dd"/><rect x="1286.13" y="724.12" width="14.62" height="4.87" transform="translate(2586.88 1453.11) rotate(180)" style="fill:#8b00dd"/><rect x="1409.74" y="673.11" width="52.41" height="4.87" transform="translate(2871.88 1351.1) rotate(180)" style="fill:#8b00dd"/><polygon points="1431.11 692.61 1431.11 682.86 1421.36 682.86 1431.11 692.61" style="fill:#0a0837"/><polygon points="1453.49 692.61 1453.49 682.86 1443.74 682.86 1453.49 692.61" style="fill:#0a0837"/><rect x="1414.61" y="677.99" width="47.53" height="4.87" transform="translate(2876.76 1360.85) rotate(180)" style="fill:#0a0837"/><circle cx="553.58" cy="534.62" r="24.75" style="fill:#2e1196"/><circle cx="524.19" cy="542.36" r="17.02" style="fill:#2e1196"/><circle cx="582.98" cy="542.36" r="17.02" style="fill:#2e1196"/><rect x="524.19" y="534.62" width="58.79" height="24.75" style="fill:#2e1196"/><path d="M525.74,596.82h-7.82a13.71,13.71,0,0,1-13.69-13.69V569.44a2,2,0,1,1,3.91,0v13.69a9.79,9.79,0,0,0,9.78,9.78h7.82Z" style="fill:#8b00dd"/><path d="M533.57,596.82h-7.83a13.72,13.72,0,0,1-13.69-13.69V569.44a2,2,0,0,1,3.92,0v13.69a9.79,9.79,0,0,0,9.77,9.78h7.83Z" style="fill:#8b00dd"/><path d="M537.48,596.82h-3.91a13.71,13.71,0,0,1-13.69-13.69V569.44a2,2,0,1,1,3.91,0v13.69a9.79,9.79,0,0,0,9.78,9.78h3.91a2,2,0,0,1,0,3.91Z" style="fill:#8b00dd"/><circle cx="506.22" cy="544.25" r="25.19" style="fill:#8b00dd"/><circle cx="536.13" cy="552.12" r="17.32" style="fill:#8b00dd"/><circle cx="476.31" cy="552.12" r="17.32" style="fill:#8b00dd"/><rect x="476.31" y="544.25" width="59.82" height="25.19" transform="translate(1012.44 1113.69) rotate(180)" style="fill:#8b00dd"/><rect x="512.05" y="569.44" width="3.91" height="7.82" style="fill:#2e1196"/><rect x="519.88" y="569.44" width="3.91" height="7.82" style="fill:#2e1196"/><rect x="504.23" y="569.44" width="3.91" height="7.82" style="fill:#2e1196"/><path d="M537.71,593h3.91a13.7,13.7,0,0,1,13.69,13.69v90.88a2,2,0,1,1-3.91,0V606.65a9.79,9.79,0,0,0-9.78-9.78h-3.91a2,2,0,1,1,0-3.91Z" style="fill:#8b00dd"/><polygon points="551.61 641.26 595.49 641.26 585.74 675.39 575.99 675.39 575.99 729.01 536.99 729.01 536.99 675.39 551.61 641.26" style="fill:#8b00dd"/><rect x="649.11" y="587.64" width="73.12" height="141.37" style="fill:#2e1196"/><polygon points="590.61 641.26 595.49 641.26 595.49 675.39 595.49 729.01 575.99 729.01 575.99 675.39 590.61 641.26" style="fill:#2e1196"/><rect x="595.49" y="587.64" width="78" height="141.37" style="fill:#8b00dd"/><rect x="663.74" y="580.89" width="68.25" height="6.74" transform="translate(1395.73 1168.53) rotate(180)" style="fill:#8b00dd"/><rect x="585.74" y="580.89" width="78" height="6.74" transform="translate(1249.48 1168.53) rotate(180)" style="fill:#8b00dd"/><rect x="663.74" y="660.76" width="63.37" height="4.87" transform="translate(1390.85 1326.4) rotate(180)" style="fill:#8b00dd"/><rect x="590.61" y="655.89" width="82.87" height="4.87" transform="translate(1264.1 1316.65) rotate(180)" style="fill:#8b00dd"/><polygon points="663.74 602.26 663.74 592.51 653.99 592.51 663.74 602.26" style="fill:#2e1196"/><polygon points="614.99 602.26 614.99 592.51 605.24 592.51 614.99 602.26" style="fill:#2e1196"/><polygon points="639.36 602.26 639.36 592.51 629.61 592.51 639.36 602.26" style="fill:#2e1196"/><rect x="653.99" y="607.14" width="9.75" height="34.12" transform="translate(1317.73 1248.4) rotate(180)" style="fill:#2e1196"/><rect x="605.24" y="607.14" width="9.75" height="34.12" transform="translate(1220.23 1248.4) rotate(180)" style="fill:#65ffcd"/><rect x="629.61" y="607.14" width="9.75" height="34.12" transform="translate(1268.98 1248.4) rotate(180)" style="fill:#2e1196"/><rect x="595.49" y="587.64" width="78" height="4.87" transform="translate(1268.98 1180.15) rotate(180)" style="fill:#2e1196"/><polygon points="663.74 675.39 663.74 665.64 653.99 665.64 663.74 675.39" style="fill:#2e1196"/><polygon points="614.99 675.39 614.99 665.64 605.24 665.64 614.99 675.39" style="fill:#2e1196"/><polygon points="639.36 675.39 639.36 665.64 629.61 665.64 639.36 675.39" style="fill:#2e1196"/><rect x="653.99" y="680.26" width="9.75" height="34.12" transform="translate(1317.73 1394.65) rotate(180)" style="fill:#65ffcd"/><rect x="629.61" y="680.26" width="9.75" height="34.12" transform="translate(1268.98 1394.65) rotate(180)" style="fill:#2e1196"/><rect x="556.49" y="680.26" width="9.75" height="19.5" transform="translate(1122.73 1380.03) rotate(180)" style="fill:#65ffcd"/><rect x="595.49" y="660.76" width="78" height="4.87" transform="translate(1268.98 1326.4) rotate(180)" style="fill:#2e1196"/><rect x="614.99" y="714.39" width="4.87" height="4.87" transform="translate(1234.85 1433.65) rotate(180)" style="fill:#2e1196"/><rect x="610.11" y="719.26" width="9.75" height="4.87" transform="translate(1229.98 1443.4) rotate(180)" style="fill:#2e1196"/><rect x="595.49" y="719.26" width="14.62" height="4.87" transform="translate(1205.6 1443.4) rotate(180)" style="fill:#8b00dd"/><rect x="546.74" y="724.14" width="9.75" height="4.87" transform="translate(1103.23 1453.15) rotate(180)" style="fill:#2e1196"/><rect x="532.11" y="724.14" width="14.62" height="4.87" transform="translate(1078.85 1453.15) rotate(180)" style="fill:#8b00dd"/><rect x="551.61" y="719.26" width="4.87" height="4.87" transform="translate(1108.1 1443.4) rotate(180)" style="fill:#2e1196"/><rect x="536.99" y="719.26" width="14.62" height="4.87" transform="translate(1088.6 1443.4) rotate(180)" style="fill:#8b00dd"/><rect x="605.24" y="724.14" width="14.62" height="4.87" transform="translate(1225.1 1453.15) rotate(180)" style="fill:#2e1196"/><rect x="600.36" y="714.39" width="4.87" height="4.87" transform="translate(1205.6 1433.65) rotate(180)" style="fill:#8b00dd"/><rect x="590.61" y="724.14" width="14.62" height="4.87" transform="translate(1195.85 1453.15) rotate(180)" style="fill:#8b00dd"/><polygon points="556.49 665.64 556.49 646.14 564.15 646.14 556.49 665.64" style="fill:#2e1196"/><rect x="541.86" y="646.14" width="14.62" height="19.5" transform="translate(1098.35 1311.78) rotate(180)" style="fill:#8b00dd"/><rect x="546.74" y="651.01" width="4.87" height="9.75" transform="translate(1098.35 1311.78) rotate(180)" style="fill:#65ffcd"/><polygon points="575.99 665.64 575.99 646.14 583.65 646.14 575.99 665.64" style="fill:#2e1196"/><rect x="561.36" y="646.14" width="14.62" height="19.5" transform="translate(1137.35 1311.78) rotate(180)" style="fill:#8b00dd"/><rect x="566.24" y="651.01" width="4.87" height="9.75" transform="translate(1137.35 1311.78) rotate(180)" style="fill:#65ffcd"/><rect x="673.49" y="587.64" width="48.75" height="4.87" transform="translate(1395.73 1180.15) rotate(180)" style="fill:#0a0837"/><rect x="673.49" y="665.64" width="48.75" height="4.87" transform="translate(1395.73 1336.15) rotate(180)" style="fill:#0a0837"/><rect x="673.56" y="658.89" width="34.47" height="1.87" style="fill:#65ffcd"/><rect x="673.16" y="580.89" width="34.53" height="1.87" style="fill:#65ffcd"/><circle cx="867.2" cy="197.86" r="34.06" style="fill:#2e1196"/><circle cx="907.64" cy="208.51" r="23.41" style="fill:#2e1196"/><circle cx="826.76" cy="208.51" r="23.41" style="fill:#2e1196"/><rect x="826.76" y="197.86" width="80.88" height="34.06" transform="translate(1734.4 429.78) rotate(180)" style="fill:#2e1196"/><path d="M905.5,283.44h10.77A18.86,18.86,0,0,0,935.1,264.6V245.77a2.69,2.69,0,0,0-5.38,0V264.6a13.47,13.47,0,0,1-13.45,13.46H905.5Z" style="fill:#8b00dd"/><path d="M894.74,283.44H905.5a18.86,18.86,0,0,0,18.84-18.84V245.77a2.69,2.69,0,0,0-5.38,0V264.6a13.48,13.48,0,0,1-13.46,13.46H894.74Z" style="fill:#8b00dd"/><path d="M889.36,283.44h5.38a18.86,18.86,0,0,0,18.84-18.84V245.77a2.7,2.7,0,0,0-5.39,0V264.6a13.47,13.47,0,0,1-13.45,13.46h-5.38a2.69,2.69,0,0,0,0,5.38Z" style="fill:#8b00dd"/><circle cx="932.37" cy="211.11" r="34.66" style="fill:#8b00dd"/><circle cx="891.21" cy="221.94" r="23.83" style="fill:#8b00dd"/><circle cx="973.52" cy="221.94" r="23.83" style="fill:#8b00dd"/><rect x="891.21" y="211.11" width="82.31" height="34.66" style="fill:#8b00dd"/><rect x="918.96" y="245.77" width="5.38" height="10.76" style="fill:#2e1196"/><rect x="908.19" y="245.77" width="5.38" height="10.76" style="fill:#2e1196"/><rect x="929.72" y="245.77" width="5.38" height="10.76" style="fill:#2e1196"/><path d="M889,278.14h-5.38A18.86,18.86,0,0,0,864.82,297V422a2.7,2.7,0,0,0,5.39,0V297a13.46,13.46,0,0,1,13.45-13.45H889a2.69,2.69,0,1,0,0-5.38Z" style="fill:#8b00dd"/><rect x="708.07" y="341.38" width="38.18" height="387.61" style="fill:#8b00dd"/><rect x="746.25" y="341.38" width="141.81" height="387.63" style="fill:#2e1196"/><rect x="702.62" y="341.38" width="43.63" height="5.45" style="fill:#8b00dd"/><rect x="702.62" y="406.83" width="43.63" height="5.45" style="fill:#8b00dd"/><rect x="702.62" y="472.28" width="43.63" height="5.45" style="fill:#8b00dd"/><rect x="702.62" y="537.74" width="43.63" height="5.45" style="fill:#8b00dd"/><rect x="702.62" y="603.19" width="43.63" height="5.45" style="fill:#8b00dd"/><rect x="702.62" y="668.64" width="43.63" height="5.45" style="fill:#8b00dd"/><rect x="746.25" y="341.38" width="147.27" height="5.45" style="fill:#2e1196"/><rect x="746.25" y="406.83" width="147.27" height="5.45" style="fill:#2e1196"/><rect x="746.25" y="472.28" width="147.27" height="5.45" style="fill:#2e1196"/><rect x="746.25" y="537.74" width="147.27" height="5.45" style="fill:#2e1196"/><rect x="746.25" y="603.19" width="147.27" height="5.45" style="fill:#2e1196"/><rect x="746.25" y="668.64" width="147.27" height="5.45" style="fill:#2e1196"/><rect x="702.62" y="346.83" width="43.63" height="5.45" style="fill:#0a0837"/><rect x="702.62" y="412.29" width="43.63" height="5.45" style="fill:#0a0837"/><rect x="702.62" y="477.74" width="43.63" height="5.45" style="fill:#0a0837"/><rect x="702.62" y="543.19" width="43.63" height="5.45" style="fill:#0a0837"/><rect x="702.62" y="608.64" width="43.63" height="5.45" style="fill:#0a0837"/><rect x="702.62" y="674.09" width="43.63" height="5.45" style="fill:#0a0837"/><rect x="718.98" y="366.25" width="6.49" height="22.34" style="fill:#65ffcd"/><rect x="728.85" y="366.25" width="6.49" height="22.34" style="fill:#65ffcd"/><rect x="762.61" y="366.25" width="6.49" height="22.34" style="fill:#8b00dd"/><rect x="772.48" y="366.25" width="6.49" height="22.34" style="fill:#8b00dd"/><rect x="806.25" y="366.25" width="6.49" height="22.34" style="fill:#8b00dd"/><rect x="816.12" y="366.25" width="6.49" height="22.34" style="fill:#8b00dd"/><rect x="849.88" y="366.25" width="6.49" height="22.34" style="fill:#8b00dd"/><rect x="718.98" y="431.42" width="6.49" height="22.34" style="fill:#65ffcd"/><rect x="728.85" y="431.42" width="6.49" height="22.34" style="fill:#65ffcd"/><rect x="762.61" y="431.42" width="6.49" height="22.34" style="fill:#8b00dd"/><rect x="772.48" y="431.42" width="6.49" height="22.34" style="fill:#8b00dd"/><rect x="806.25" y="431.42" width="6.49" height="22.34" style="fill:#8b00dd"/><rect x="816.12" y="431.42" width="6.49" height="22.34" style="fill:#8b00dd"/><rect x="849.88" y="431.42" width="6.49" height="22.34" style="fill:#8b00dd"/><rect x="718.98" y="497.6" width="6.49" height="22.34" style="fill:#65ffcd"/><rect x="728.85" y="497.6" width="6.49" height="22.34" style="fill:#65ffcd"/><rect x="762.61" y="497.6" width="6.49" height="22.34" style="fill:#8b00dd"/><rect x="772.48" y="497.6" width="6.49" height="22.34" style="fill:#8b00dd"/><rect x="806.25" y="497.6" width="6.49" height="22.34" style="fill:#8b00dd"/><rect x="816.12" y="497.6" width="6.49" height="22.34" style="fill:#8b00dd"/><rect x="849.88" y="497.6" width="6.49" height="22.34" style="fill:#8b00dd"/><rect x="718.98" y="563.77" width="6.49" height="22.34" style="fill:#65ffcd"/><rect x="728.85" y="563.77" width="6.49" height="22.34" style="fill:#65ffcd"/><rect x="762.61" y="563.77" width="6.49" height="22.34" style="fill:#8b00dd"/><rect x="772.48" y="563.77" width="6.49" height="22.34" style="fill:#8b00dd"/><rect x="806.25" y="563.77" width="6.49" height="22.34" style="fill:#8b00dd"/><rect x="816.12" y="563.77" width="6.49" height="22.34" style="fill:#8b00dd"/><rect x="849.88" y="563.77" width="6.49" height="22.34" style="fill:#8b00dd"/><rect x="718.98" y="629.94" width="6.49" height="22.34" style="fill:#65ffcd"/><rect x="728.85" y="629.94" width="6.49" height="22.34" style="fill:#65ffcd"/><rect x="762.61" y="629.94" width="6.49" height="22.34" style="fill:#8b00dd"/><rect x="772.48" y="629.94" width="6.49" height="22.34" style="fill:#8b00dd"/><rect x="806.25" y="629.94" width="6.49" height="22.34" style="fill:#8b00dd"/><rect x="816.12" y="629.94" width="6.49" height="22.34" style="fill:#8b00dd"/><rect x="849.88" y="629.94" width="6.49" height="22.34" style="fill:#8b00dd"/><rect x="738.43" y="704.96" width="8.02" height="8.02" transform="translate(1484.88 1417.94) rotate(180)" style="fill:#2e1196"/><rect x="730.41" y="712.98" width="16.04" height="8.02" transform="translate(1476.86 1433.97) rotate(180)" style="fill:#2e1196"/><rect x="722.4" y="720.99" width="24.05" height="8.02" transform="translate(1468.85 1450.01) rotate(180)" style="fill:#2e1196"/><rect x="698.08" y="720.99" width="24.05" height="8.02" transform="translate(1420.22 1450.01) rotate(180)" style="fill:#8b00dd"/><rect x="649.35" y="395.42" width="37.33" height="162.67" style="fill:#2e1196"/><rect x="686.68" y="417.81" width="21.39" height="5.45" style="fill:#2e1196"/><rect x="686.68" y="532.28" width="21.39" height="5.45" style="fill:#2e1196"/><rect x="649.35" y="395.42" width="31.96" height="162.67" style="fill:#8b00dd"/><rect x="655.74" y="488.14" width="20" height="4.15" style="fill:#65ffcd"/><rect x="655.74" y="495.18" width="20" height="4.15" style="fill:#65ffcd"/><rect x="655.74" y="502.22" width="20" height="4.15" style="fill:#65ffcd"/><rect x="655.74" y="509.26" width="20" height="4.15" style="fill:#65ffcd"/><rect x="655.74" y="516.3" width="20" height="4.15" style="fill:#65ffcd"/><rect x="655.74" y="523.34" width="20" height="4.15" style="fill:#65ffcd"/><rect x="655.74" y="530.39" width="20" height="4.15" style="fill:#65ffcd"/><rect x="655.74" y="537.43" width="20" height="4.15" style="fill:#65ffcd"/><rect x="655.74" y="544.47" width="20" height="4.15" style="fill:#65ffcd"/><rect x="655.74" y="445.89" width="20" height="4.15" style="fill:#0a0837"/><rect x="655.74" y="452.93" width="20" height="4.15" style="fill:#0a0837"/><rect x="655.74" y="459.97" width="20" height="4.15" style="fill:#0a0837"/><rect x="655.74" y="467.01" width="20" height="4.15" style="fill:#0a0837"/><rect x="655.74" y="474.05" width="20" height="4.15" style="fill:#0a0837"/><rect x="655.74" y="481.09" width="20" height="4.15" style="fill:#0a0837"/><rect x="655.74" y="403.64" width="20" height="4.15" style="fill:#0a0837"/><rect x="655.74" y="410.68" width="20" height="4.15" style="fill:#0a0837"/><rect x="655.74" y="417.72" width="20" height="4.15" style="fill:#0a0837"/><rect x="655.74" y="424.76" width="20" height="4.15" style="fill:#0a0837"/><rect x="655.74" y="431.8" width="20" height="4.15" style="fill:#0a0837"/><rect x="655.74" y="438.84" width="20" height="4.15" style="fill:#0a0837"/><rect x="655.74" y="445.89" width="20" height="4.15" style="fill:#0a0837"/><polygon points="772.86 341.38 793.63 321.88 793.63 341.38 772.86 341.38" style="fill:#8b00dd"/><rect x="793.62" y="321.88" width="16.93" height="19.5" style="fill:#2e1196"/><polygon points="746.25 341.38 767.01 321.88 767.01 341.38 746.25 341.38" style="fill:#8b00dd"/><rect x="767.02" y="321.88" width="16.93" height="19.5" style="fill:#2e1196"/><rect x="681.23" y="443.95" width="54.81" height="1.87" transform="translate(263.75 1153.51) rotate(-90)" style="fill:#65ffcd"/><rect x="700.44" y="474.07" width="5.48" height="1.87" transform="translate(228.18 1178.18) rotate(-90)" style="fill:#65ffcd"/><rect x="681.42" y="509.55" width="54.42" height="1.87" transform="translate(198.14 1219.12) rotate(-90)" style="fill:#65ffcd"/><rect x="686.68" y="416.54" width="15.94" height="1.87" style="fill:#65ffcd"/><rect x="686.68" y="531.34" width="15.94" height="1.87" style="fill:#65ffcd"/><rect x="700.44" y="539.53" width="5.48" height="1.87" transform="translate(162.71 1243.64) rotate(-90)" style="fill:#00ffc7;opacity:0.8"/><rect x="681.42" y="574.89" width="54.42" height="1.87" transform="translate(132.8 1284.46) rotate(-90)" style="fill:#65ffcd"/><rect x="700.44" y="604.98" width="5.48" height="1.87" transform="translate(97.26 1309.09) rotate(-90)" style="fill:#65ffcd"/><g style="opacity:0.6000000000000001"><rect x="1072.58" y="636.36" width="36.21" height="91.79" style="fill:#7c00ff"/></g><rect x="1152.73" y="675.99" width="12.9" height="52.47" style="fill:#7c00ff"/><rect x="1184.23" y="675.99" width="12.9" height="52.47" style="fill:#7c00ff"/><circle cx="1343.16" cy="375.27" r="17.33" style="fill:#8b00dd"/><circle cx="1322.58" cy="380.68" r="11.91" style="fill:#8b00dd"/><circle cx="1363.73" cy="380.68" r="11.91" style="fill:#8b00dd"/><rect x="1322.58" y="375.27" width="41.15" height="17.33" style="fill:#8b00dd"/><circle cx="1467.21" cy="441.22" r="10.51" style="fill:#2e1196"/><circle cx="1454.73" cy="444.5" r="7.23" style="fill:#2e1196"/><circle cx="1479.69" cy="444.5" r="7.23" style="fill:#2e1196"/><rect x="1454.73" y="441.22" width="24.96" height="10.51" style="fill:#2e1196"/><circle cx="419.74" cy="646.25" r="10.51" style="fill:#2e1196"/><circle cx="407.26" cy="649.54" r="7.23" style="fill:#2e1196"/><circle cx="432.22" cy="649.54" r="7.23" style="fill:#2e1196"/><rect x="407.26" y="646.25" width="24.96" height="10.51" style="fill:#2e1196"/><rect x="1425.95" y="705.24" width="11.9" height="23.81" transform="translate(2863.81 1434.29) rotate(180)" style="fill:#2e1196"/><rect x="1007.53" y="541.19" width="235.37" height="140.14" rx="7.47" transform="translate(1736.48 -513.96) rotate(90)" style="fill:#2e1196"/><rect x="1015.39" y="541.19" width="235.37" height="140.14" rx="7.47" transform="translate(1744.33 -521.82) rotate(90)" style="fill:#8b00dd"/><path d="M1203.15,721.47V501a7.48,7.48,0,0,0-7.48-7.47h-1.87a7.48,7.48,0,0,1,7.48,7.47V721.47a7.47,7.47,0,0,1-7.48,7.47h1.87A7.47,7.47,0,0,0,1203.15,721.47Z" style="fill:#65ffcd"/><rect x="1025.11" y="549.39" width="210.67" height="121.46" transform="translate(1740.57 -520.33) rotate(90)" style="fill:#41ef98"/><rect x="1027.36" y="549.39" width="210.67" height="121.46" transform="translate(1742.81 -522.57) rotate(90)" style="fill:#0a0837"/><rect x="1089.93" y="521.03" width="4.74" height="16.32" transform="translate(563.12 1621.49) rotate(-90)" style="fill:#65ffcd"/><rect x="1089.93" y="513.81" width="4.74" height="16.32" transform="translate(570.33 1614.28) rotate(-90)" style="fill:#65ffcd"/><rect x="1089.93" y="535.33" width="4.74" height="16.32" transform="translate(548.81 1635.8) rotate(-90)" style="fill:#65ffcd"/><rect x="1089.93" y="528.12" width="4.74" height="16.32" transform="translate(556.02 1628.59) rotate(-90)" style="fill:#65ffcd"/><rect x="1089.93" y="549.64" width="4.74" height="16.32" transform="translate(534.5 1650.11) rotate(-90)" style="fill:#65ffcd"/><rect x="1089.93" y="542.43" width="4.74" height="16.32" transform="translate(541.71 1642.9) rotate(-90)" style="fill:#65ffcd"/><rect x="1089.93" y="563.95" width="4.74" height="16.32" transform="translate(520.19 1664.42) rotate(-90)" style="fill:#65ffcd"/><rect x="1089.93" y="556.74" width="4.74" height="16.32" transform="translate(527.41 1657.21) rotate(-90)" style="fill:#65ffcd"/><rect x="1089.93" y="578.26" width="4.74" height="16.32" transform="translate(505.89 1678.73) rotate(-90)" style="fill:#65ffcd"/><rect x="1089.93" y="571.05" width="4.74" height="16.32" transform="translate(513.1 1671.51) rotate(-90)" style="fill:#65ffcd"/><rect x="1089.93" y="592.57" width="4.74" height="16.32" transform="translate(491.58 1693.03) rotate(-90)" style="fill:#65ffcd"/><rect x="1089.93" y="585.36" width="4.74" height="16.32" transform="translate(498.79 1685.82) rotate(-90)" style="fill:#65ffcd"/><rect x="1113.84" y="521.03" width="4.74" height="16.32" transform="translate(587.03 1645.4) rotate(-90)" style="fill:#65ffcd"/><rect x="1113.84" y="535.26" width="4.74" height="16.32" transform="translate(572.8 1659.63) rotate(-90)" style="fill:#65ffcd"/><rect x="1113.84" y="585.36" width="4.74" height="16.32" transform="translate(522.7 1709.73) rotate(-90)" style="fill:#65ffcd"/><rect x="1113.84" y="599.91" width="4.74" height="16.32" transform="translate(508.15 1724.28) rotate(-90)" style="fill:#65ffcd"/><rect x="1113.84" y="607.12" width="4.74" height="16.32" transform="translate(500.94 1731.49) rotate(-90)" style="fill:#65ffcd"/><rect x="1113.84" y="635.71" width="4.74" height="16.32" transform="translate(472.35 1760.09) rotate(-90)" style="fill:#65ffcd"/><rect x="1113.84" y="556.7" width="4.74" height="16.32" transform="translate(551.35 1681.08) rotate(-90)" style="fill:#65ffcd"/><rect x="1122.25" y="505.41" width="4.74" height="33.13" transform="translate(602.65 1646.6) rotate(-90)" style="fill:#65ffcd"/><rect x="1122.25" y="541.28" width="4.74" height="33.13" transform="translate(566.78 1682.46) rotate(-90)" style="fill:#65ffcd"/><rect x="1122.25" y="555.57" width="4.74" height="33.13" transform="translate(552.48 1696.76) rotate(-90)" style="fill:#65ffcd"/><rect x="1122.25" y="562.53" width="4.74" height="33.13" transform="translate(545.53 1703.72) rotate(-90)" style="fill:#65ffcd"/><rect x="1122.25" y="584.04" width="4.74" height="33.13" transform="translate(524.02 1725.22) rotate(-90)" style="fill:#65ffcd"/><rect x="1122.25" y="613.01" width="4.74" height="33.13" transform="translate(495.05 1754.19) rotate(-90)" style="fill:#65ffcd"/><rect x="1122.25" y="634.39" width="4.74" height="33.13" transform="translate(473.67 1775.57) rotate(-90)" style="fill:#65ffcd"/><rect x="1138.89" y="502.94" width="4.74" height="66.41" transform="translate(605.12 1677.41) rotate(-90)" style="fill:#65ffcd"/><rect x="1138.89" y="517.36" width="4.74" height="66.41" transform="translate(590.7 1691.83) rotate(-90)" style="fill:#65ffcd"/><rect x="1138.89" y="553.16" width="4.74" height="66.41" transform="translate(554.89 1727.63) rotate(-90)" style="fill:#65ffcd"/><rect x="1138.89" y="589.22" width="4.74" height="66.41" transform="translate(518.84 1763.69) rotate(-90)" style="fill:#65ffcd"/><rect x="1138.89" y="603.51" width="4.74" height="66.41" transform="translate(504.54 1777.98) rotate(-90)" style="fill:#65ffcd"/><rect x="1140.12" y="677.61" width="41.18" height="41.18" transform="translate(-107.9 223.48) rotate(-10.51)" style="fill:#65ffcd"/><rect x="1154.71" y="685.29" width="16.37" height="2.54" transform="translate(-105.74 223.68) rotate(-10.51)" style="fill:#0a0837"/><rect x="1146.23" y="691.15" width="25.86" height="2.54" transform="translate(-106.87 223.1) rotate(-10.51)" style="fill:#0a0837"/><rect x="1145.47" y="687.88" width="6.88" height="2.54" transform="translate(-106.45 221.18) rotate(-10.51)" style="fill:#0a0837"/><rect x="1147.24" y="696.99" width="16.37" height="2.54" transform="translate(2418.84 1174) rotate(169.49)" style="fill:#0a0837"/><rect x="1165.97" y="694.39" width="6.88" height="2.54" transform="matrix(-0.98, 0.18, -0.18, -0.98, 2446.12, 1166.3)" style="fill:#0a0837"/><polygon points="1062.86 725.44 1047.45 725.44 1047.45 603.17 1055.16 592.43 1062.86 603.17 1062.86 725.44" style="fill:#8b00dd"/><rect x="1047.45" y="603.9" width="3.15" height="121.54" style="fill:#2e1196"/><rect x="1053.51" y="603.9" width="3.15" height="121.54" style="fill:#2e1196"/><rect x="1059.71" y="603.9" width="3.15" height="121.54" style="fill:#2e1196"/><polygon points="1055.16 592.43 1058.26 596.76 1052.05 596.76 1055.16 592.43" style="fill:#2e1196"/><rect x="1047.23" y="710.78" width="15.78" height="18.21" style="fill:#2e1196"/><rect x="1047.23" y="714.78" width="15.78" height="4.15" style="fill:#8b00dd"/><rect x="785.1" y="604.7" width="184.62" height="124.3" style="fill:#8b00dd"/><rect x="785.1" y="591.42" width="184.62" height="14.1" style="fill:#2e1196"/><circle cx="794.95" cy="598.47" r="2.38" style="fill:#8b00dd"/><circle cx="802.27" cy="598.47" r="2.38" style="fill:#8b00dd"/><circle cx="809.6" cy="598.47" r="2.38" style="fill:#8b00dd"/><rect x="802.82" y="620.66" width="149.18" height="108.34" style="fill:#2e1196;opacity:0.30000000000000004"/><rect x="821.73" y="647.25" width="21.04" height="1.19" style="fill:#2e1196"/><rect x="821.73" y="652.51" width="21.04" height="1.19" style="fill:#2e1196"/><rect x="821.73" y="657.77" width="21.04" height="1.19" style="fill:#2e1196"/><rect x="821.73" y="663.03" width="21.04" height="1.19" style="fill:#2e1196"/><rect x="821.73" y="668.29" width="21.04" height="1.19" style="fill:#2e1196"/><rect x="821.73" y="673.55" width="21.04" height="1.19" style="fill:#2e1196"/><rect x="821.73" y="678.81" width="21.04" height="1.19" style="fill:#2e1196"/><rect x="821.73" y="684.07" width="21.04" height="1.19" style="fill:#2e1196"/><rect x="821.73" y="689.34" width="21.04" height="1.19" style="fill:#2e1196"/><rect x="821.73" y="694.6" width="21.04" height="1.19" style="fill:#2e1196"/><rect x="821.73" y="710.38" width="21.04" height="1.19" style="fill:#2e1196"/><rect x="821.73" y="715.64" width="21.04" height="1.19" style="fill:#2e1196"/><rect x="821.73" y="720.9" width="21.04" height="1.19" style="fill:#2e1196"/><rect x="821.73" y="726.16" width="21.04" height="1.19" style="fill:#2e1196"/><rect x="852.59" y="710.38" width="21.04" height="1.19" style="fill:#2e1196"/><rect x="852.59" y="715.64" width="21.04" height="1.19" style="fill:#2e1196"/><rect x="852.59" y="720.9" width="21.04" height="1.19" style="fill:#2e1196"/><rect x="852.59" y="726.16" width="21.04" height="1.19" style="fill:#2e1196"/><rect x="883.46" y="647.25" width="21.04" height="1.19" style="fill:#2e1196"/><rect x="883.46" y="652.51" width="21.04" height="1.19" style="fill:#2e1196"/><rect x="883.46" y="657.77" width="21.04" height="1.19" style="fill:#2e1196"/><rect x="883.46" y="663.03" width="21.04" height="1.19" style="fill:#2e1196"/><rect x="883.46" y="668.29" width="21.04" height="1.19" style="fill:#2e1196"/><rect x="883.46" y="673.55" width="21.04" height="1.19" style="fill:#2e1196"/><rect x="883.46" y="678.81" width="21.04" height="1.19" style="fill:#2e1196"/><rect x="883.46" y="684.07" width="21.04" height="1.19" style="fill:#2e1196"/><rect x="883.46" y="689.34" width="21.04" height="1.19" style="fill:#2e1196"/><rect x="883.46" y="694.6" width="21.04" height="1.19" style="fill:#2e1196"/><rect x="883.46" y="699.86" width="21.04" height="1.19" style="fill:#2e1196"/><rect x="883.46" y="705.12" width="21.04" height="1.19" style="fill:#2e1196"/><rect x="883.46" y="710.38" width="21.04" height="1.19" style="fill:#2e1196"/><rect x="883.46" y="715.64" width="21.04" height="1.19" style="fill:#2e1196"/><rect x="883.46" y="720.9" width="21.04" height="1.19" style="fill:#2e1196"/><rect x="883.46" y="726.16" width="21.04" height="1.19" style="fill:#2e1196"/><rect x="914.32" y="647.25" width="21.04" height="1.19" style="fill:#2e1196"/><rect x="914.32" y="652.51" width="21.04" height="1.19" style="fill:#2e1196"/><rect x="914.32" y="657.77" width="21.04" height="1.19" style="fill:#2e1196"/><rect x="914.32" y="663.03" width="21.04" height="1.19" style="fill:#2e1196"/><rect x="914.32" y="668.29" width="21.04" height="1.19" style="fill:#2e1196"/><rect x="914.32" y="673.55" width="21.04" height="1.19" style="fill:#2e1196"/><rect x="914.32" y="678.81" width="21.04" height="1.19" style="fill:#2e1196"/><rect x="914.32" y="684.07" width="21.04" height="1.19" style="fill:#2e1196"/><rect x="914.32" y="689.34" width="21.04" height="1.19" style="fill:#2e1196"/><rect x="914.32" y="694.6" width="21.04" height="1.19" style="fill:#2e1196"/><rect x="914.32" y="699.86" width="21.04" height="1.19" style="fill:#2e1196"/><rect x="914.32" y="705.12" width="21.04" height="1.19" style="fill:#2e1196"/><rect x="914.32" y="710.38" width="21.04" height="1.19" style="fill:#2e1196"/><rect x="914.32" y="715.64" width="21.04" height="1.19" style="fill:#2e1196"/><rect x="914.32" y="720.9" width="21.04" height="1.19" style="fill:#2e1196"/><rect x="914.32" y="726.16" width="21.04" height="1.19" style="fill:#2e1196"/><rect x="821.73" y="646.68" width="51.91" height="51.91" style="fill:#2e1196"/><rect x="843.39" y="657.89" width="19.09" height="19.09" style="fill:#8b00dd"/><path d="M851.76,668.6v15.49H836.28V668.6h15.48m1.8-1.8H834.48v19.09h19.08V666.8Z" style="fill:#65ffcd"/><rect x="1290.17" y="509.09" width="123.21" height="6.74" transform="translate(2703.56 1024.93) rotate(180)" style="fill:#8b00dd"/><rect x="702.62" y="340.09" width="190.9" height="6.74" transform="translate(1596.14 686.92) rotate(180)" style="fill:#8b00dd"/><rect x="1140.57" y="677.6" width="41.18" height="41.18" transform="translate(-107.89 223.56) rotate(-10.51)" style="fill:#ffcf06"/><rect x="1155.16" y="685.28" width="16.37" height="2.54" transform="translate(-105.73 223.77) rotate(-10.51)" style="fill:#0a0837"/><rect x="1146.68" y="691.14" width="25.86" height="2.54" transform="translate(-106.86 223.18) rotate(-10.51)" style="fill:#0a0837"/><rect x="1145.91" y="687.87" width="6.88" height="2.54" transform="translate(-106.44 221.26) rotate(-10.51)" style="fill:#0a0837"/><rect x="1147.68" y="696.98" width="16.37" height="2.54" transform="translate(2419.73 1173.89) rotate(169.49)" style="fill:#0a0837"/><rect x="1166.42" y="694.38" width="6.88" height="2.54" transform="translate(2447 1166.19) rotate(169.49)" style="fill:#0a0837"/><polyline points="1182.69 701.36 1185.16 714.68 1171.85 717.15" style="fill:#ff9e29"/></svg>


