<svg height="24" width="25" xmlns="http://www.w3.org/2000/svg" xmlns:xlink="http://www.w3.org/1999/xlink"><mask id="a" fill="#fff"><path d="m0 .062h24.936v23.938h-24.936z" fill="#fff" fill-rule="evenodd"/></mask><g fill="#fff" fill-rule="evenodd"><path d="m12.468.062c-3.386 0-3.81.014-5.14.072-1.328.058-2.235.26-3.028.556a6.143 6.143 0 0 0 -2.208 1.38 5.849 5.849 0 0 0 -1.437 2.12c-.309.762-.52 1.632-.58 2.906-.06 1.277-.075 1.684-.075 4.935 0 3.25.014 3.658.075 4.935.06 1.274.271 2.144.58 2.905a5.848 5.848 0 0 0 1.438 2.12 6.143 6.143 0 0 0 2.208 1.38c.793.296 1.7.499 3.026.557 1.33.058 1.755.072 5.14.072 3.387 0 3.811-.014 5.141-.072 1.327-.058 2.234-.26 3.027-.556a6.143 6.143 0 0 0 2.208-1.38 5.848 5.848 0 0 0 1.438-2.12c.308-.762.519-1.632.58-2.906.06-1.277.075-1.684.075-4.935 0-3.25-.015-3.658-.075-4.935-.061-1.274-.272-2.144-.58-2.905a5.849 5.849 0 0 0 -1.438-2.12 6.143 6.143 0 0 0 -2.208-1.381c-.793-.297-1.7-.5-3.027-.557-1.33-.058-1.754-.072-5.14-.072m0 2.156c3.329 0 3.723.013 5.038.07 1.215.053 1.876.248 2.315.412.582.217.997.477 1.434.896.436.418.706.817.932 1.376.17.422.374 1.055.43 2.222.06 1.262.072 1.641.072 4.837s-.013 3.574-.072 4.836c-.056 1.167-.26 1.801-.43 2.223a3.697 3.697 0 0 1 -.932 1.376 3.883 3.883 0 0 1 -1.434.896c-.44.163-1.1.358-2.315.412-1.315.057-1.709.07-5.038.07-3.33 0-3.724-.013-5.038-.07-1.216-.054-1.876-.249-2.315-.412a3.883 3.883 0 0 1 -1.434-.896 3.698 3.698 0 0 1 -.933-1.376c-.17-.422-.373-1.056-.429-2.223-.06-1.262-.073-1.64-.073-4.836s.013-3.575.073-4.837c.056-1.167.259-1.8.43-2.222.226-.559.496-.958.932-1.376a3.882 3.882 0 0 1 1.434-.895c.439-.164 1.1-.359 2.315-.412 1.314-.057 1.709-.07 5.038-.07" mask="url(#a)"/><path d="m12.5 15.895c-2.33 0-4.22-1.744-4.22-3.895s1.89-3.895 4.22-3.895 4.22 1.745 4.22 3.895-1.89 3.895-4.22 3.895m0-9.895c-3.59 0-6.5 2.686-6.5 6s2.91 6 6.5 6 6.5-2.686 6.5-6-2.91-6-6.5-6m8.5-1c0 .552-.672 1-1.5 1s-1.5-.448-1.5-1 .672-1 1.5-1 1.5.448 1.5 1"/></g></svg>