<svg width="25" height="24" xmlns="http://www.w3.org/2000/svg" xmlns:xlink="http://www.w3.org/1999/xlink"><defs><path id="a" d="M0 0h24.325v24H0z"/></defs><g fill="none" fill-rule="evenodd"><mask id="b" fill="#fff"><use xlink:href="#a"/></mask><path d="M22.523 0H1.793C.805 0 0 .775 0 1.73v20.538C0 23.224.804 24 1.794 24h20.729c.991 0 1.802-.776 1.802-1.732V1.729c0-.954-.81-1.729-1.802-1.729" fill="#0077B5" mask="url(#b)"/><path d="M5.001 3C6.104 3 7 3.917 7 5.046c0 1.13-.896 2.046-1.999 2.046C3.893 7.092 3 6.175 3 5.046 3 3.917 3.893 3 5.001 3zM3.274 20h3.451V8.645H3.274V20zM10 9.267h3.382v1.467h.048C13.9 9.89 15.053 9 16.77 9 20.34 9 21 11.222 21 14.113V20h-3.525v-5.219c0-1.245-.027-2.846-1.835-2.846-1.836 0-2.116 1.356-2.116 2.756V20H10V9.267z" fill="#FEFEFE"/></g></svg>