<svg height="24" width="25" xmlns="http://www.w3.org/2000/svg"><mask id="a" fill="#fff"><path d="M0 0h24v24H0z" fill-rule="evenodd"/></mask><path d="M19.938 5.686L18.651 6.92a.376.376 0 0 0-.143.362v9.067a.376.376 0 0 0 .143.361l1.257 1.234v.271h-6.322v-.27l1.302-1.265c.128-.128.128-.165.128-.36V8.99l-3.62 9.195h-.49L6.691 8.99v6.163a.85.85 0 0 0 .233.707l1.694 2.054v.271H3.815v-.27L5.51 15.86a.82.82 0 0 0 .218-.707V8.027a.625.625 0 0 0-.203-.527L4.02 5.686v-.27h4.674l3.613 7.923 3.176-7.924h4.456v.271zM0 24h24V0H0z" fill="#fff" fill-rule="evenodd" mask="url(#a)" transform="translate(.8)"/></svg>