<svg width="152" height="48" xmlns="http://www.w3.org/2000/svg">
      <title>yld training logo</title>
    <g fill="none" fill-rule="evenodd"><path fill="#333" d="M0 0h48v48H0z"/><path d="M14.758 20.7a2.625 2.625 0 1 0 0-5.25 2.625 2.625 0 0 0 0 5.25zm18.717 4.288a2.628 2.628 0 0 0-2.625-2.625 2.628 2.628 0 0 0-2.625 2.625 2.628 2.628 0 0 0 2.625 2.625 2.628 2.628 0 0 0 2.625-2.625zM37 14.4v16.582h-3.5v-.48c-.803.387-1.7.61-2.65.61a6.132 6.132 0 0 1-6.125-6.124 6.132 6.132 0 0 1 6.125-6.125c.95 0 1.847.223 2.65.611V14.4H37zm-12.275 0v16.582h-3.5v-9.847l-6.467 14.552h-3.83l1.933-4.349L8 20.7h3.849l2.909 6.369 2.83-6.369h3.637v-6.3h3.5z" fill="#FFF"/><path d="M74.917 16.521h-5.941V33H66.55V16.521h-5.929v-2.005h14.295v2.005zm8.062 4.85a7.038 7.038 0 0 0-1.156-.089c-1.54 0-2.585.656-3.135 1.968V33h-2.35V19.264h2.286l.038 1.587c.77-1.228 1.862-1.841 3.275-1.841.458 0 .805.059 1.042.177v2.184zM93.109 33c-.135-.27-.245-.753-.33-1.447-1.092 1.134-2.395 1.7-3.91 1.7-1.354 0-2.465-.382-3.332-1.148-.868-.766-1.302-1.737-1.302-2.914 0-1.43.544-2.54 1.632-3.332 1.087-.791 2.617-1.187 4.59-1.187h2.284v-1.08c0-.82-.245-1.474-.736-1.96-.491-.487-1.215-.73-2.171-.73-.838 0-1.54.211-2.107.634-.567.423-.851.935-.851 1.536h-2.361c0-.685.243-1.348.73-1.987.486-.639 1.146-1.144 1.98-1.517.834-.372 1.75-.558 2.749-.558 1.582 0 2.822.395 3.72 1.187.896.791 1.362 1.88 1.396 3.269v6.322c0 1.261.16 2.264.482 3.009V33H93.11zm-3.897-1.79c.736 0 1.434-.19 2.095-.571.66-.381 1.138-.876 1.434-1.486v-2.818h-1.84c-2.878 0-4.317.842-4.317 2.526 0 .737.245 1.312.736 1.727.491.415 1.122.622 1.892.622zM101.323 33h-2.348V19.264h2.348V33zm-2.539-17.38c0-.38.117-.702.35-.965.232-.262.577-.393 1.034-.393.457 0 .804.13 1.041.393.237.263.355.584.355.965s-.118.698-.355.952-.584.381-1.041.381c-.457 0-.802-.127-1.035-.38-.232-.255-.349-.572-.349-.953zm8.519 3.644l.076 1.726c1.05-1.32 2.42-1.98 4.113-1.98 2.903 0 4.367 1.637 4.393 4.913V33h-2.349v-9.09c-.008-.99-.235-1.722-.68-2.196-.443-.474-1.135-.711-2.075-.711-.761 0-1.43.203-2.006.61a4.138 4.138 0 0 0-1.345 1.599V33h-2.349V19.264h2.222zM121.979 33h-2.35V19.264h2.35V33zm-2.54-17.38c0-.38.117-.702.35-.965.232-.262.577-.393 1.034-.393.457 0 .804.13 1.041.393.237.263.356.584.356.965s-.119.698-.356.952-.584.381-1.04.381c-.458 0-.803-.127-1.035-.38-.233-.255-.35-.572-.35-.953zm8.519 3.644l.076 1.726c1.05-1.32 2.42-1.98 4.113-1.98 2.903 0 4.368 1.637 4.393 4.913V33h-2.349v-9.09c-.008-.99-.234-1.722-.679-2.196-.444-.474-1.136-.711-2.075-.711-.762 0-1.43.203-2.006.61a4.138 4.138 0 0 0-1.346 1.599V33h-2.349V19.264h2.222zm11.565 6.754c0-2.142.496-3.845 1.486-5.11.99-1.266 2.302-1.898 3.935-1.898 1.676 0 2.984.592 3.923 1.777l.114-1.523h2.146V32.67c0 1.777-.527 3.178-1.58 4.202-1.054 1.024-2.47 1.536-4.247 1.536-.99 0-1.96-.211-2.907-.635-.948-.423-1.672-1.002-2.171-1.739l1.218-1.409c1.008 1.244 2.239 1.866 3.695 1.866 1.142 0 2.033-.321 2.672-.965.64-.643.959-1.548.959-2.716v-1.181c-.94 1.083-2.222 1.625-3.847 1.625-1.608 0-2.91-.648-3.904-1.942-.994-1.295-1.492-3.06-1.492-5.294zm2.362.266c0 1.549.317 2.766.952 3.65.635.885 1.523 1.327 2.666 1.327 1.481 0 2.569-.673 3.263-2.019v-6.271c-.72-1.312-1.799-1.968-3.238-1.968-1.142 0-2.035.444-2.678 1.333-.644.889-.965 2.205-.965 3.948z" fill="#333"/></g>
    </svg>