<svg width="24" height="24" xmlns="http://www.w3.org/2000/svg"><g fill="none" fill-rule="evenodd"><path d="M12 0c6.627 0 12 5.373 12 12s-5.373 12-12 12S0 18.627 0 12 5.373 0 12 0" fill="#1DA1F2"/><path d="M9.918 18c5.438 0 8.41-4.387 8.41-8.189 0-.125 0-.25-.005-.37A5.97 5.97 0 0 0 19.8 7.949a6.127 6.127 0 0 1-1.698.454 2.891 2.891 0 0 0 1.3-1.594 6.085 6.085 0 0 1-1.876.698 2.98 2.98 0 0 0-2.158-.907c-1.63 0-2.955 1.29-2.955 2.877 0 .227.025.448.08.656a8.463 8.463 0 0 1-6.094-3.008c-.251.424-.398.92-.398 1.445 0 .996.52 1.88 1.318 2.393a2.964 2.964 0 0 1-1.337-.358v.036c0 1.396 1.018 2.554 2.373 2.823a3.022 3.022 0 0 1-1.337.048c.374 1.146 1.466 1.975 2.759 2A6.045 6.045 0 0 1 5.4 16.698 8.397 8.397 0 0 0 9.918 18" fill="#FFF"/></g></svg>