<svg id="Layer_1" data-name="Layer 1" xmlns="http://www.w3.org/2000/svg" viewBox="0 0 1207.97 695.53"><defs><style>.cls-1{fill:#090329;}.cls-2{opacity:0.2;}.cls-3{fill:#7c00ff;}.cls-4,.cls-9{fill:#2a066b;}.cls-5{fill:#6400d4;}.cls-10,.cls-6,.cls-7{fill:#65ffcd;}.cls-14,.cls-7{opacity:0.8;}.cls-8{fill:#771bef;}.cls-9{stroke:#2a066b;stroke-width:2px;}.cls-10,.cls-9{stroke-miterlimit:10;}.cls-10{stroke:#65ffcd;stroke-width:0.75px;}.cls-11{opacity:0.6;}.cls-12{opacity:0.4;}.cls-13{opacity:0.3;}.cls-14{fill:#00ffc7;}</style></defs><title>yld_illustration</title><rect class="cls-1" width="1207.97" height="695.45"/><g class="cls-2"><rect class="cls-3" x="512.03" y="534.56" width="30.05" height="122.79"/></g><rect class="cls-4" x="523.63" y="387.22" width="36.7" height="230.67"/><rect class="cls-4" x="591.78" y="305.67" width="36.7" height="230.67"/><rect class="cls-5" x="560.33" y="387.22" width="136.3" height="308.44" transform="translate(1256.95 1082.87) rotate(180)"/><rect class="cls-5" x="628.48" y="305.67" width="68.15" height="230.67" transform="translate(1325.1 842) rotate(180)"/><rect class="cls-4" x="591.78" y="327.58" width="104.85" height="5.24"/><rect class="cls-4" x="591.78" y="354.71" width="104.85" height="5.24"/><rect class="cls-4" x="591.78" y="381.84" width="104.85" height="5.24"/><rect class="cls-4" x="523.63" y="408.97" width="173" height="5.24"/><rect class="cls-4" x="523.63" y="436.1" width="173" height="5.24"/><rect class="cls-4" x="523.63" y="463.23" width="173" height="5.24"/><rect class="cls-4" x="523.63" y="490.36" width="173" height="5.24"/><rect class="cls-4" x="523.63" y="517.49" width="173" height="5.24"/><rect class="cls-4" x="523.63" y="544.62" width="173" height="5.24"/><rect class="cls-4" x="523.63" y="571.75" width="173" height="5.24"/><rect class="cls-4" x="523.63" y="598.88" width="173" height="5.24"/><rect class="cls-6" x="523.63" y="408.97" width="36.7" height="5.24"/><rect class="cls-6" x="523.63" y="436.1" width="36.7" height="5.24"/><rect class="cls-6" x="523.63" y="463.23" width="36.7" height="5.24"/><rect class="cls-6" x="523.63" y="490.36" width="36.7" height="5.24"/><rect class="cls-6" x="523.63" y="517.49" width="36.7" height="5.24"/><rect class="cls-6" x="523.63" y="544.62" width="36.7" height="5.24"/><rect class="cls-6" x="523.63" y="571.75" width="36.7" height="5.24"/><rect class="cls-6" x="523.63" y="598.88" width="36.7" height="5.24"/><rect class="cls-6" x="591.78" y="327.58" width="36.7" height="5.24"/><rect class="cls-6" x="591.78" y="354.71" width="36.7" height="5.24"/><rect class="cls-6" x="591.78" y="381.84" width="36.7" height="5.24"/><rect class="cls-4" x="610.15" y="629.18" width="21.21" height="42.42" transform="translate(1241.52 1300.79) rotate(180)"/><rect class="cls-7" x="609.22" y="649.46" width="42.42" height="1.87" transform="translate(-19.96 1280.82) rotate(-90)"/><rect class="cls-4" x="610.15" y="671.6" width="8.02" height="8.02"/><rect class="cls-4" x="610.15" y="679.62" width="16.04" height="8.02"/><rect class="cls-4" x="610.15" y="687.64" width="24.05" height="8.02"/><rect class="cls-8" x="634.21" y="687.64" width="24.05" height="8.02"/><rect class="cls-8" x="626.19" y="679.62" width="24.05" height="8.02"/><rect class="cls-8" x="618.17" y="671.6" width="24.05" height="8.02"/><polygon class="cls-4" points="677.4 287.29 645.63 287.26 637.05 297.48 644.2 305.29 679.68 305.29 687.24 297.45 677.4 287.29"/><polygon class="cls-5" points="661.59 307.67 651.75 297.48 661.59 287.29 663.98 289.6 656.38 297.48 663.98 305.35 661.59 307.67"/><polygon class="cls-5" points="677.4 307.67 675.01 305.35 682.61 297.48 675.01 289.6 677.4 287.29 687.24 297.48 677.4 307.67"/><rect class="cls-5" x="659.44" y="295.81" width="19.49" height="3.33" transform="translate(142.22 806.01) rotate(-67.95)"/><rect class="cls-5" x="712.67" y="205.15" width="87.27" height="489.99"/><rect class="cls-4" x="750.85" y="227.35" width="141.81" height="468.31"/><rect class="cls-9" x="713.8" y="259.71" width="37.06" height="0.64"/><rect class="cls-9" x="713.8" y="291.89" width="37.06" height="0.64"/><rect class="cls-9" x="713.8" y="324.07" width="37.06" height="0.64"/><rect class="cls-9" x="713.8" y="356.25" width="37.06" height="0.64"/><rect class="cls-9" x="713.8" y="388.43" width="37.06" height="0.64"/><rect class="cls-9" x="713.8" y="420.6" width="37.06" height="0.64"/><rect class="cls-9" x="713.8" y="452.78" width="37.06" height="0.64"/><rect class="cls-9" x="713.8" y="484.96" width="37.06" height="0.64"/><rect class="cls-9" x="713.8" y="517.14" width="37.06" height="0.64"/><rect class="cls-9" x="713.8" y="549.32" width="37.06" height="0.64"/><rect class="cls-9" x="713.8" y="581.5" width="37.06" height="0.64"/><rect class="cls-10" x="751.25" y="259.42" width="141.11" height="1.23"/><rect class="cls-10" x="751.25" y="291.6" width="141.11" height="1.23"/><rect class="cls-10" x="751.25" y="323.77" width="141.11" height="1.23"/><rect class="cls-10" x="751.25" y="355.95" width="141.11" height="1.23"/><rect class="cls-10" x="751.25" y="388.13" width="141.11" height="1.23"/><rect class="cls-10" x="751.25" y="420.31" width="141.11" height="1.23"/><rect class="cls-10" x="751.25" y="452.49" width="141.11" height="1.23"/><rect class="cls-10" x="751.25" y="484.67" width="141.11" height="1.23"/><rect class="cls-10" x="751.25" y="516.84" width="141.11" height="1.23"/><rect class="cls-10" x="751.25" y="549.02" width="141.11" height="1.23"/><rect class="cls-10" x="751.25" y="581.2" width="141.11" height="1.23"/><rect class="cls-3" x="833.25" y="643.13" width="12.9" height="52.47"/><rect class="cls-3" x="864.75" y="643.13" width="12.9" height="52.47"/><circle class="cls-5" cx="817.74" cy="227.65" r="22.5"/><rect class="cls-4" x="750.85" y="205.15" width="141.51" height="51.15"/><circle class="cls-4" cx="822.24" cy="227.65" r="22.5"/><path class="cls-6" d="M836.61,232.65c0-2-2.49-3.87-6.31-5,.88-3.89.49-7-1.23-8a2.7,2.7,0,0,0-1.37-.34v1.36a1.48,1.48,0,0,1,.7.16c.83.48,1.19,2.29.91,4.63-.07.57-.18,1.18-.32,1.8a28.69,28.69,0,0,0-3.88-.67,29.68,29.68,0,0,0-2.54-3.06c2-1.85,3.86-2.87,5.13-2.87v-1.36h0c-1.68,0-3.88,1.2-6.1,3.28-2.23-2.07-4.43-3.26-6.11-3.26v1.37c1.26,0,3.14,1,5.13,2.85a29.43,29.43,0,0,0-2.52,3.05,29.13,29.13,0,0,0-3.89.67,17.46,17.46,0,0,1-.32-1.77c-.29-2.34.07-4.15.89-4.64a1.41,1.41,0,0,1,.71-.16v-1.36h0a2.72,2.72,0,0,0-1.38.34c-1.72,1-2.11,4.08-1.22,8-3.81,1.17-6.28,3-6.28,5s2.49,3.87,6.3,5c-.88,3.89-.49,7,1.24,8a2.61,2.61,0,0,0,1.37.35c1.69,0,3.89-1.2,6.11-3.28,2.23,2.07,4.43,3.25,6.11,3.25a2.72,2.72,0,0,0,1.38-.34c1.72-1,2.11-4.08,1.22-8C834.13,236.52,836.61,234.63,836.61,232.65Zm-8-4.08c-.23.79-.51,1.61-.83,2.42-.25-.49-.51-1-.8-1.47s-.58-1-.88-1.43C827,228.22,827.85,228.38,828.65,228.57Zm-2.8,6.52c-.48.82-1,1.6-1.48,2.33q-1.36.12-2.76.12c-.93,0-1.85,0-2.75-.11-.51-.73-1-1.51-1.48-2.33s-.89-1.61-1.28-2.43c.38-.82.81-1.64,1.27-2.44s1-1.61,1.47-2.34c.92-.08,1.84-.12,2.77-.12s1.84,0,2.75.12c.51.73,1,1.5,1.48,2.32s.89,1.62,1.27,2.44C826.73,233.46,826.3,234.28,825.85,235.09Zm2-.8c.33.82.61,1.64.84,2.43-.8.2-1.64.36-2.51.49.3-.47.59-1,.88-1.45S827.57,234.78,827.82,234.29Zm-6.2,6.53c-.57-.59-1.14-1.25-1.7-2,.55,0,1.11,0,1.68,0s1.15,0,1.7,0C822.75,239.57,822.18,240.23,821.62,240.82Zm-4.55-3.61c-.87-.13-1.71-.28-2.51-.48.23-.79.51-1.6.83-2.42.25.49.51,1,.8,1.47S816.77,236.75,817.07,237.21Zm4.52-12.72a25.82,25.82,0,0,1,1.7,1.95c-.55,0-1.11,0-1.68,0s-1.15,0-1.7,0A25.71,25.71,0,0,1,821.59,224.49Zm-4.53,3.6c-.29.47-.59.95-.88,1.45s-.54,1-.79,1.47a25.22,25.22,0,0,1-.84-2.44C815.35,228.38,816.19,228.22,817.06,228.09Zm-5.53,7.66c-2.16-.93-3.56-2.14-3.56-3.1s1.4-2.18,3.56-3.09c.53-.23,1.1-.43,1.69-.62a28.86,28.86,0,0,0,1.38,3.72,31.32,31.32,0,0,0-1.36,3.71C812.64,236.18,812.06,236,811.53,235.75Zm3.29,8.73c-.83-.47-1.19-2.29-.91-4.62.07-.58.18-1.19.31-1.8a29.28,29.28,0,0,0,3.88.66,29.94,29.94,0,0,0,2.55,3.06c-2,1.85-3.87,2.87-5.14,2.87A1.44,1.44,0,0,1,814.82,244.48Zm14.51-4.66c.28,2.34-.07,4.16-.9,4.64a1.34,1.34,0,0,1-.7.16c-1.27,0-3.14-1-5.14-2.85a29.48,29.48,0,0,0,2.53-3.05,30.82,30.82,0,0,0,3.89-.67A18,18,0,0,1,829.33,239.82Zm2.35-4.07c-.53.22-1.1.42-1.69.61a29.42,29.42,0,0,0-1.38-3.72,30.08,30.08,0,0,0,1.36-3.71c.6.19,1.18.4,1.72.63,2.16.92,3.56,2.13,3.56,3.09S833.84,234.83,831.68,235.75Z"/><circle class="cls-6" cx="821.6" cy="232.65" r="2.79"/><polygon class="cls-5" points="777.61 205.15 798.38 185.65 798.38 205.15 777.61 205.15"/><rect class="cls-4" x="798.38" y="185.64" width="16.93" height="19.5"/><polygon class="cls-5" points="751 205.15 771.77 185.65 771.77 205.15 751 205.15"/><rect class="cls-4" x="771.77" y="185.64" width="16.93" height="19.5"/><rect class="cls-7" x="818.96" y="668.46" width="52.53" height="1.87" transform="translate(175.82 1514.61) rotate(-90)"/><rect class="cls-7" x="850.45" y="668.46" width="52.53" height="1.87" transform="translate(207.32 1546.11) rotate(-90)"/><rect class="cls-4" x="820.73" y="474.95" width="8.3" height="127.32"/><g class="cls-2"><rect class="cls-8" x="138.29" y="594.16" width="19.97" height="101.77"/></g><g class="cls-11"><rect class="cls-3" x="191.3" y="572.07" width="30.05" height="122.79"/></g><g class="cls-12"><rect class="cls-3" x="314.42" y="532.78" width="30.05" height="122.79"/></g><g class="cls-13"><rect class="cls-8" x="102.56" y="609.91" width="24.1" height="86.01"/></g><g class="cls-11"><rect class="cls-8" x="78.33" y="641.23" width="16.02" height="54.69"/></g><g class="cls-13"><rect class="cls-8" x="64.09" y="657.87" width="14.24" height="38.05"/></g><g class="cls-11"><rect class="cls-8" x="127.4" y="657.87" width="24.1" height="38.05"/></g><g class="cls-11"><rect class="cls-8" x="47.04" y="676.89" width="12.05" height="19.02"/></g><rect class="cls-4" x="148.49" y="655.44" width="6.62" height="40.51"/><rect class="cls-5" x="126.8" y="655.01" width="23.82" height="40.44"/><rect class="cls-4" x="129.74" y="657.88" width="17.93" height="28.24"/><rect class="cls-4" x="133.66" y="688.83" width="10.09" height="3.53"/><rect class="cls-4" x="991.11" y="417.28" width="47.76" height="278.38"/><rect class="cls-6" x="999.08" y="427.52" width="31.82" height="1.93"/><rect class="cls-6" x="999.08" y="435.25" width="31.82" height="1.93"/><rect class="cls-6" x="999.08" y="442.98" width="31.82" height="1.93"/><rect class="cls-6" x="999.08" y="450.71" width="31.82" height="1.93"/><rect class="cls-6" x="999.08" y="458.44" width="31.82" height="1.93"/><rect class="cls-6" x="999.08" y="466.18" width="31.82" height="1.93"/><rect class="cls-6" x="999.08" y="473.91" width="31.82" height="1.93"/><rect class="cls-4" x="1009.23" y="402.46" width="11.53" height="14.82"/><rect class="cls-6" x="999.08" y="490.11" width="31.82" height="1.93"/><rect class="cls-6" x="999.08" y="482.38" width="31.82" height="1.93"/><rect class="cls-6" x="999.08" y="497.84" width="31.82" height="1.93"/><rect class="cls-6" x="999.08" y="505.57" width="31.82" height="1.93"/><rect class="cls-6" x="999.08" y="513.3" width="31.82" height="1.93"/><rect class="cls-6" x="999.08" y="522" width="31.82" height="1.93"/><rect class="cls-6" x="999.08" y="529.73" width="31.82" height="1.93"/><rect class="cls-6" x="999.08" y="537.46" width="31.82" height="1.93"/><rect class="cls-6" x="999.08" y="545.19" width="31.82" height="1.93"/><rect class="cls-6" x="999.08" y="552.92" width="31.82" height="1.93"/><g class="cls-2"><rect class="cls-3" x="1125.81" y="609.7" width="24.1" height="86.01"/></g><g class="cls-11"><rect class="cls-3" x="1158.12" y="641.02" width="16.02" height="54.69"/></g><g class="cls-13"><rect class="cls-3" x="1174.62" y="657.66" width="14.24" height="38.05"/></g><g class="cls-11"><rect class="cls-3" x="1193.86" y="676.69" width="12.05" height="19.02"/></g><g class="cls-2"><rect class="cls-3" x="1046.35" y="479.81" width="30.05" height="130.89"/></g><g class="cls-12"><rect class="cls-8" x="1089.01" y="527.48" width="19.97" height="83.23"/></g><polygon class="cls-3" points="1070.72 557.57 1087.59 541.72 1087.59 557.57 1070.72 557.57"/><rect class="cls-4" x="1087.59" y="541.71" width="13.76" height="15.85"/><rect class="cls-4" x="1079.64" y="557.55" width="46.8" height="138.17"/><rect class="cls-3" x="1032.77" y="557.55" width="46.87" height="138.17"/><rect class="cls-4" x="1042.86" y="565.66" width="7.26" height="19"/><rect class="cls-4" x="1042.86" y="596.74" width="7.26" height="19"/><rect class="cls-6" x="1090.08" y="596.74" width="7.26" height="19"/><rect class="cls-6" x="1062.52" y="565.66" width="7.26" height="19"/><rect class="cls-8" x="1109.82" y="565.66" width="7.26" height="19"/><polygon class="cls-3" points="1049.09 557.57 1065.97 541.72 1065.97 557.57 1049.09 557.57"/><rect class="cls-4" x="1065.97" y="541.71" width="13.76" height="15.85"/><g class="cls-12"><rect class="cls-3" x="892.67" y="562.06" width="30.05" height="133.6"/></g><rect class="cls-8" x="913.48" y="479.13" width="84.55" height="216.53"/><rect class="cls-4" x="948.05" y="479.13" width="77.19" height="216.53"/><rect class="cls-5" x="910.1" y="528.28" width="37.95" height="3.19"/><rect class="cls-4" x="913.48" y="482.32" width="34.57" height="5.9"/><rect class="cls-4" x="913.48" y="531.47" width="34.57" height="5.9"/><rect class="cls-5" x="910.1" y="577.48" width="37.95" height="3.19"/><rect class="cls-4" x="913.48" y="580.67" width="34.57" height="5.9"/><rect class="cls-5" x="910.1" y="626.63" width="37.95" height="3.19"/><rect class="cls-4" x="913.48" y="629.82" width="34.57" height="5.9"/><rect class="cls-5" x="910.1" y="479.13" width="118.67" height="3.19"/><rect class="cls-6" x="922.81" y="496.61" width="6.49" height="22.34"/><rect class="cls-6" x="932.68" y="496.61" width="6.49" height="22.34"/><rect class="cls-8" x="966.45" y="496.61" width="6.49" height="22.34"/><rect class="cls-8" x="976.31" y="496.61" width="6.49" height="22.34"/><rect class="cls-8" x="1010.08" y="496.61" width="6.49" height="22.34"/><rect class="cls-6" x="922.81" y="545.32" width="6.49" height="22.34"/><rect class="cls-6" x="932.68" y="545.32" width="6.49" height="22.34"/><rect class="cls-8" x="966.45" y="545.32" width="6.49" height="22.34"/><rect class="cls-8" x="976.31" y="545.32" width="6.49" height="22.34"/><rect class="cls-8" x="1010.08" y="545.32" width="6.49" height="22.34"/><rect class="cls-6" x="922.81" y="595.04" width="6.49" height="22.34"/><rect class="cls-6" x="932.68" y="595.04" width="6.49" height="22.34"/><rect class="cls-8" x="1010.08" y="595.04" width="6.49" height="22.34"/><rect class="cls-7" x="894.39" y="507.31" width="40.06" height="1.87" transform="translate(406.17 1422.66) rotate(-90)"/><rect class="cls-7" x="894.39" y="556.51" width="40.06" height="1.87" transform="translate(356.97 1471.86) rotate(-90)"/><rect class="cls-7" x="894.31" y="605.66" width="40.06" height="1.87" transform="translate(307.74 1520.93) rotate(-90)"/><rect class="cls-7" x="884.75" y="664.45" width="59.34" height="1.87" transform="translate(249.03 1579.8) rotate(-90)"/><rect class="cls-4" x="928.02" y="681.03" width="4.87" height="4.87" transform="translate(1860.92 1366.94) rotate(180)"/><rect class="cls-4" x="923.15" y="685.91" width="9.75" height="4.87" transform="translate(1856.05 1376.69) rotate(180)"/><rect class="cls-8" x="908.52" y="685.91" width="14.62" height="4.87" transform="translate(1831.67 1376.69) rotate(180)"/><rect class="cls-4" x="918.27" y="690.78" width="14.62" height="4.87" transform="translate(1851.17 1386.44) rotate(180)"/><rect class="cls-8" x="913.4" y="681.03" width="4.87" height="4.87" transform="translate(1831.67 1366.94) rotate(180)"/><rect class="cls-8" x="903.65" y="690.78" width="14.62" height="4.87" transform="translate(1821.92 1386.44) rotate(180)"/><rect class="cls-5" x="1027.26" y="639.77" width="52.41" height="4.87" transform="translate(2106.92 1284.42) rotate(180)"/><polygon class="cls-4" points="1100.38 659.27 1100.38 649.52 1090.63 649.52 1100.38 659.27"/><polygon class="cls-4" points="1048.63 659.27 1048.63 649.52 1038.88 649.52 1048.63 659.27"/><polygon class="cls-4" points="1071.01 659.27 1071.01 649.52 1061.26 649.52 1071.01 659.27"/><rect class="cls-4" x="1032.13" y="644.65" width="78" height="4.87" transform="translate(2142.27 1294.17) rotate(180)"/><circle class="cls-4" cx="171.1" cy="501.28" r="24.75"/><circle class="cls-4" cx="141.71" cy="509.02" r="17.02"/><circle class="cls-4" cx="200.5" cy="509.02" r="17.02"/><rect class="cls-4" x="141.71" y="501.28" width="58.79" height="24.75"/><path class="cls-8" d="M143.26,563.48h-7.82a13.7,13.7,0,0,1-13.69-13.69V536.1a2,2,0,1,1,3.91,0v13.69a9.79,9.79,0,0,0,9.78,9.78h7.82Z"/><path class="cls-8" d="M151.09,563.48h-7.83a13.71,13.71,0,0,1-13.69-13.69V536.1a2,2,0,1,1,3.91,0v13.69a9.79,9.79,0,0,0,9.78,9.78h7.83Z"/><path class="cls-8" d="M155,563.48h-3.91a13.7,13.7,0,0,1-13.69-13.69V536.1a2,2,0,1,1,3.91,0v13.69a9.79,9.79,0,0,0,9.78,9.78H155a2,2,0,0,1,0,3.91Z"/><circle class="cls-8" cx="123.74" cy="510.91" r="25.19"/><circle class="cls-8" cx="153.65" cy="518.78" r="17.32"/><circle class="cls-8" cx="93.83" cy="518.78" r="17.32"/><rect class="cls-8" x="93.83" y="510.91" width="59.82" height="25.19" transform="translate(247.48 1047.01) rotate(180)"/><rect class="cls-4" x="129.57" y="536.1" width="3.91" height="7.82"/><rect class="cls-4" x="137.4" y="536.1" width="3.91" height="7.82"/><rect class="cls-4" x="121.75" y="536.1" width="3.91" height="7.82"/><path class="cls-8" d="M155.23,559.62h3.91a13.71,13.71,0,0,1,13.69,13.69V664.2a2,2,0,0,1-3.91,0V573.31a9.79,9.79,0,0,0-9.78-9.77h-3.91a2,2,0,0,1,0-3.92Z"/><polygon class="cls-8" points="169.13 607.92 213.01 607.92 203.26 642.05 193.51 642.05 193.51 695.67 154.51 695.67 154.51 642.05 169.13 607.92"/><rect class="cls-4" x="266.63" y="554.3" width="73.12" height="141.37"/><polygon class="cls-4" points="208.13 607.92 213.01 607.92 213.01 642.05 213.01 695.67 193.51 695.67 193.51 642.05 208.13 607.92"/><rect class="cls-8" x="213.01" y="554.3" width="78" height="141.37"/><rect class="cls-5" x="281.26" y="547.55" width="68.25" height="6.74" transform="translate(630.77 1101.85) rotate(180)"/><rect class="cls-5" x="203.26" y="547.55" width="78" height="6.74" transform="translate(484.52 1101.85) rotate(180)"/><rect class="cls-5" x="281.26" y="627.42" width="63.37" height="4.87" transform="translate(625.89 1259.72) rotate(180)"/><rect class="cls-5" x="208.13" y="622.55" width="82.87" height="4.87" transform="translate(499.14 1249.97) rotate(180)"/><polygon class="cls-4" points="281.26 568.92 281.26 559.17 271.51 559.17 281.26 568.92"/><polygon class="cls-4" points="232.51 568.92 232.51 559.17 222.76 559.17 232.51 568.92"/><polygon class="cls-4" points="256.88 568.92 256.88 559.17 247.13 559.17 256.88 568.92"/><rect class="cls-4" x="271.51" y="573.8" width="9.75" height="34.12" transform="translate(552.77 1181.72) rotate(180)"/><rect class="cls-6" x="222.76" y="573.8" width="9.75" height="34.12" transform="translate(455.27 1181.72) rotate(180)"/><rect class="cls-4" x="247.13" y="573.8" width="9.75" height="34.12" transform="translate(504.02 1181.72) rotate(180)"/><rect class="cls-4" x="213.01" y="554.3" width="78" height="4.87" transform="translate(504.02 1113.47) rotate(180)"/><polygon class="cls-4" points="281.26 642.05 281.26 632.3 271.51 632.3 281.26 642.05"/><polygon class="cls-4" points="232.51 642.05 232.51 632.3 222.76 632.3 232.51 642.05"/><polygon class="cls-4" points="256.88 642.05 256.88 632.3 247.13 632.3 256.88 642.05"/><rect class="cls-6" x="271.51" y="646.92" width="9.75" height="34.12" transform="translate(552.77 1327.97) rotate(180)"/><rect class="cls-4" x="247.13" y="646.92" width="9.75" height="34.12" transform="translate(504.02 1327.97) rotate(180)"/><rect class="cls-6" x="174.01" y="646.92" width="9.75" height="19.5" transform="translate(357.77 1313.35) rotate(180)"/><rect class="cls-4" x="213.01" y="627.42" width="78" height="4.87" transform="translate(504.02 1259.72) rotate(180)"/><rect class="cls-4" x="232.51" y="681.05" width="4.87" height="4.87" transform="translate(469.89 1366.97) rotate(180)"/><rect class="cls-4" x="227.63" y="685.92" width="9.75" height="4.87" transform="translate(465.02 1376.72) rotate(180)"/><rect class="cls-8" x="213.01" y="685.92" width="14.62" height="4.87" transform="translate(440.64 1376.72) rotate(180)"/><rect class="cls-4" x="164.26" y="690.8" width="9.75" height="4.87" transform="translate(338.27 1386.47) rotate(180)"/><rect class="cls-8" x="149.63" y="690.8" width="14.62" height="4.87" transform="translate(313.89 1386.47) rotate(180)"/><rect class="cls-4" x="169.13" y="685.92" width="4.87" height="4.87" transform="translate(343.14 1376.72) rotate(180)"/><rect class="cls-8" x="154.51" y="685.92" width="14.62" height="4.87" transform="translate(323.64 1376.72) rotate(180)"/><rect class="cls-4" x="222.76" y="690.8" width="14.62" height="4.87" transform="translate(460.14 1386.47) rotate(180)"/><rect class="cls-8" x="217.88" y="681.05" width="4.87" height="4.87" transform="translate(440.64 1366.97) rotate(180)"/><rect class="cls-8" x="208.13" y="690.8" width="14.62" height="4.87" transform="translate(430.89 1386.47) rotate(180)"/><polygon class="cls-4" points="174.01 632.3 174.01 612.8 181.67 612.8 174.01 632.3"/><rect class="cls-8" x="159.38" y="612.8" width="14.62" height="19.5" transform="translate(333.39 1245.1) rotate(180)"/><rect class="cls-6" x="164.26" y="617.67" width="4.87" height="9.75" transform="translate(333.39 1245.1) rotate(180)"/><polygon class="cls-4" points="193.51 632.3 193.51 612.8 201.17 612.8 193.51 632.3"/><rect class="cls-8" x="178.88" y="612.8" width="14.62" height="19.5" transform="translate(372.39 1245.1) rotate(180)"/><rect class="cls-6" x="183.76" y="617.67" width="4.87" height="9.75" transform="translate(372.39 1245.1) rotate(180)"/><rect class="cls-1" x="291.01" y="554.3" width="48.75" height="4.87" transform="translate(630.77 1113.47) rotate(180)"/><rect class="cls-1" x="291.01" y="632.3" width="48.75" height="4.87" transform="translate(630.77 1269.47) rotate(180)"/><rect class="cls-7" x="291.07" y="625.55" width="34.47" height="1.87"/><rect class="cls-7" x="290.68" y="547.55" width="34.53" height="1.87"/><circle class="cls-4" cx="484.72" cy="164.52" r="34.06"/><circle class="cls-4" cx="525.16" cy="175.17" r="23.41"/><circle class="cls-4" cx="444.28" cy="175.17" r="23.41"/><rect class="cls-4" x="444.28" y="164.52" width="80.88" height="34.06" transform="translate(969.44 363.1) rotate(180)"/><path class="cls-8" d="M523,250.1h10.77a18.86,18.86,0,0,0,18.83-18.84V212.43a2.69,2.69,0,0,0-5.38,0v18.83a13.47,13.47,0,0,1-13.45,13.46H523Z"/><path class="cls-8" d="M512.26,250.1H523a18.86,18.86,0,0,0,18.84-18.84V212.43a2.69,2.69,0,0,0-5.38,0v18.83A13.48,13.48,0,0,1,523,244.72H512.26Z"/><path class="cls-8" d="M506.88,250.1h5.38a18.87,18.87,0,0,0,18.84-18.84V212.43a2.7,2.7,0,0,0-5.39,0v18.83a13.47,13.47,0,0,1-13.45,13.46h-5.38a2.69,2.69,0,0,0,0,5.38Z"/><circle class="cls-8" cx="549.88" cy="177.77" r="34.66"/><circle class="cls-8" cx="508.73" cy="188.6" r="23.83"/><circle class="cls-8" cx="591.04" cy="188.6" r="23.83"/><rect class="cls-8" x="508.73" y="177.77" width="82.31" height="34.66"/><rect class="cls-4" x="536.48" y="212.43" width="5.38" height="10.76"/><rect class="cls-4" x="525.71" y="212.43" width="5.38" height="10.76"/><rect class="cls-4" x="547.24" y="212.43" width="5.38" height="10.76"/><path class="cls-8" d="M506.56,244.8h-5.38a18.86,18.86,0,0,0-18.84,18.83v125a2.69,2.69,0,1,0,5.38,0v-125a13.47,13.47,0,0,1,13.46-13.45h5.38a2.69,2.69,0,0,0,0-5.38Z"/><rect class="cls-8" x="325.59" y="308.04" width="38.18" height="387.61"/><rect class="cls-4" x="363.77" y="308.04" width="141.81" height="387.63"/><rect class="cls-5" x="320.14" y="308.04" width="43.63" height="5.45"/><rect class="cls-5" x="320.14" y="373.49" width="43.63" height="5.45"/><rect class="cls-5" x="320.14" y="438.95" width="43.63" height="5.45"/><rect class="cls-5" x="320.14" y="504.4" width="43.63" height="5.45"/><rect class="cls-5" x="320.14" y="569.85" width="43.63" height="5.45"/><rect class="cls-5" x="320.14" y="635.3" width="43.63" height="5.45"/><rect class="cls-4" x="363.77" y="308.04" width="147.27" height="5.45"/><rect class="cls-4" x="363.77" y="373.49" width="147.27" height="5.45"/><rect class="cls-4" x="363.77" y="438.95" width="147.27" height="5.45"/><rect class="cls-4" x="363.77" y="504.4" width="147.27" height="5.45"/><rect class="cls-4" x="363.77" y="569.85" width="147.27" height="5.45"/><rect class="cls-4" x="363.77" y="635.3" width="147.27" height="5.45"/><rect class="cls-4" x="320.14" y="313.5" width="43.63" height="5.45"/><rect class="cls-4" x="320.14" y="378.95" width="43.63" height="5.45"/><rect class="cls-4" x="320.14" y="444.4" width="43.63" height="5.45"/><rect class="cls-4" x="320.14" y="509.85" width="43.63" height="5.45"/><rect class="cls-4" x="320.14" y="575.3" width="43.63" height="5.45"/><rect class="cls-4" x="320.14" y="640.76" width="43.63" height="5.45"/><rect class="cls-6" x="336.5" y="332.91" width="6.49" height="22.34"/><rect class="cls-6" x="346.37" y="332.91" width="6.49" height="22.34"/><rect class="cls-8" x="380.13" y="332.91" width="6.49" height="22.34"/><rect class="cls-8" x="390" y="332.91" width="6.49" height="22.34"/><rect class="cls-8" x="423.77" y="332.91" width="6.49" height="22.34"/><rect class="cls-8" x="433.64" y="332.91" width="6.49" height="22.34"/><rect class="cls-8" x="467.4" y="332.91" width="6.49" height="22.34"/><rect class="cls-6" x="336.5" y="398.08" width="6.49" height="22.34"/><rect class="cls-6" x="346.37" y="398.08" width="6.49" height="22.34"/><rect class="cls-8" x="380.13" y="398.08" width="6.49" height="22.34"/><rect class="cls-8" x="390" y="398.08" width="6.49" height="22.34"/><rect class="cls-8" x="423.77" y="398.08" width="6.49" height="22.34"/><rect class="cls-8" x="433.64" y="398.08" width="6.49" height="22.34"/><rect class="cls-8" x="467.4" y="398.08" width="6.49" height="22.34"/><rect class="cls-6" x="336.5" y="464.26" width="6.49" height="22.34"/><rect class="cls-6" x="346.37" y="464.26" width="6.49" height="22.34"/><rect class="cls-8" x="380.13" y="464.26" width="6.49" height="22.34"/><rect class="cls-8" x="390" y="464.26" width="6.49" height="22.34"/><rect class="cls-8" x="423.77" y="464.26" width="6.49" height="22.34"/><rect class="cls-8" x="433.64" y="464.26" width="6.49" height="22.34"/><rect class="cls-8" x="467.4" y="464.26" width="6.49" height="22.34"/><rect class="cls-6" x="336.5" y="530.43" width="6.49" height="22.34"/><rect class="cls-6" x="346.37" y="530.43" width="6.49" height="22.34"/><rect class="cls-8" x="380.13" y="530.43" width="6.49" height="22.34"/><rect class="cls-8" x="390" y="530.43" width="6.49" height="22.34"/><rect class="cls-8" x="423.77" y="530.43" width="6.49" height="22.34"/><rect class="cls-8" x="433.64" y="530.43" width="6.49" height="22.34"/><rect class="cls-8" x="467.4" y="530.43" width="6.49" height="22.34"/><rect class="cls-6" x="336.5" y="596.6" width="6.49" height="22.34"/><rect class="cls-6" x="346.37" y="596.6" width="6.49" height="22.34"/><rect class="cls-8" x="380.13" y="596.6" width="6.49" height="22.34"/><rect class="cls-8" x="390" y="596.6" width="6.49" height="22.34"/><rect class="cls-8" x="423.77" y="596.6" width="6.49" height="22.34"/><rect class="cls-8" x="433.64" y="596.6" width="6.49" height="22.34"/><rect class="cls-8" x="467.4" y="596.6" width="6.49" height="22.34"/><rect class="cls-4" x="355.95" y="671.62" width="8.02" height="8.02" transform="translate(719.92 1351.26) rotate(180)"/><rect class="cls-4" x="347.93" y="679.64" width="16.04" height="8.02" transform="translate(711.9 1367.29) rotate(180)"/><rect class="cls-4" x="339.92" y="687.66" width="24.05" height="8.02" transform="translate(703.88 1383.33) rotate(180)"/><rect class="cls-8" x="315.6" y="687.66" width="24.05" height="8.02" transform="translate(655.26 1383.33) rotate(180)"/><rect class="cls-4" x="266.87" y="362.08" width="37.33" height="162.67"/><rect class="cls-4" x="304.2" y="384.47" width="21.39" height="5.45"/><rect class="cls-4" x="304.2" y="498.94" width="21.39" height="5.45"/><rect class="cls-5" x="266.87" y="362.08" width="31.96" height="162.67"/><rect class="cls-6" x="273.26" y="454.8" width="20" height="4.15"/><rect class="cls-6" x="273.26" y="461.84" width="20" height="4.15"/><rect class="cls-6" x="273.26" y="468.88" width="20" height="4.15"/><rect class="cls-6" x="273.26" y="475.92" width="20" height="4.15"/><rect class="cls-6" x="273.26" y="482.96" width="20" height="4.15"/><rect class="cls-6" x="273.26" y="490" width="20" height="4.15"/><rect class="cls-6" x="273.26" y="497.05" width="20" height="4.15"/><rect class="cls-6" x="273.26" y="504.09" width="20" height="4.15"/><rect class="cls-6" x="273.26" y="511.13" width="20" height="4.15"/><rect class="cls-4" x="273.26" y="412.55" width="20" height="4.15"/><rect class="cls-4" x="273.26" y="419.59" width="20" height="4.15"/><rect class="cls-4" x="273.26" y="426.63" width="20" height="4.15"/><rect class="cls-4" x="273.26" y="433.67" width="20" height="4.15"/><rect class="cls-4" x="273.26" y="440.71" width="20" height="4.15"/><rect class="cls-4" x="273.26" y="447.75" width="20" height="4.15"/><rect class="cls-4" x="273.26" y="370.3" width="20" height="4.15"/><rect class="cls-4" x="273.26" y="377.34" width="20" height="4.15"/><rect class="cls-4" x="273.26" y="384.38" width="20" height="4.15"/><rect class="cls-4" x="273.26" y="391.42" width="20" height="4.15"/><rect class="cls-4" x="273.26" y="398.46" width="20" height="4.15"/><rect class="cls-4" x="273.26" y="405.5" width="20" height="4.15"/><rect class="cls-4" x="273.26" y="412.55" width="20" height="4.15"/><polygon class="cls-5" points="390.38 308.04 411.14 288.54 411.14 308.04 390.38 308.04"/><rect class="cls-4" x="411.14" y="288.54" width="16.93" height="19.5"/><polygon class="cls-5" points="363.77 308.04 384.53 288.54 384.53 308.04 363.77 308.04"/><rect class="cls-4" x="384.53" y="288.54" width="16.93" height="19.5"/><rect class="cls-14" x="298.75" y="410.61" width="54.81" height="1.87" transform="translate(-85.39 737.69) rotate(-90)"/><rect class="cls-14" x="317.96" y="440.73" width="5.48" height="1.87" transform="translate(-120.97 762.36) rotate(-90)"/><rect class="cls-14" x="298.94" y="476.22" width="54.42" height="1.87" transform="translate(-151 803.3) rotate(-90)"/><rect class="cls-7" x="304.2" y="383.2" width="15.94" height="1.87"/><rect class="cls-7" x="304.2" y="498" width="15.94" height="1.87"/><rect class="cls-14" x="317.96" y="506.19" width="5.48" height="1.87" transform="translate(-186.43 827.82) rotate(-90)"/><rect class="cls-14" x="298.94" y="541.55" width="54.42" height="1.87" transform="translate(-216.34 868.64) rotate(-90)"/><rect class="cls-14" x="317.96" y="571.64" width="5.48" height="1.87" transform="translate(-251.88 893.27) rotate(-90)"/><g class="cls-11"><rect class="cls-3" x="690.1" y="603.02" width="36.21" height="91.79"/></g><rect class="cls-3" x="770.25" y="642.65" width="12.9" height="52.47"/><rect class="cls-3" x="801.75" y="642.65" width="12.9" height="52.47"/><circle class="cls-8" cx="960.68" cy="341.93" r="17.33"/><circle class="cls-8" cx="940.1" cy="347.35" r="11.91"/><circle class="cls-8" cx="981.25" cy="347.35" r="11.91"/><rect class="cls-8" x="940.1" y="341.93" width="41.15" height="17.33"/><circle class="cls-4" cx="1084.73" cy="407.88" r="10.51"/><circle class="cls-4" cx="1072.25" cy="411.16" r="7.23"/><circle class="cls-4" cx="1097.21" cy="411.16" r="7.23"/><rect class="cls-4" x="1072.25" y="407.88" width="24.96" height="10.51"/><circle class="cls-4" cx="37.26" cy="612.91" r="10.51"/><circle class="cls-4" cx="24.78" cy="616.2" r="7.23"/><circle class="cls-4" cx="49.74" cy="616.2" r="7.23"/><rect class="cls-4" x="24.78" y="612.91" width="24.96" height="10.51"/><rect class="cls-4" x="1043.47" y="671.91" width="11.9" height="23.81" transform="translate(2098.84 1367.62) rotate(180)"/><rect class="cls-4" x="625.05" y="507.85" width="235.37" height="140.14" rx="7.47" ry="7.47" transform="translate(1320.66 -164.82) rotate(90)"/><rect class="cls-8" x="632.91" y="507.85" width="235.37" height="140.14" rx="7.47" ry="7.47" transform="translate(1328.51 -172.68) rotate(90)"/><path class="cls-6" d="M820.67,688.13V467.71a7.48,7.48,0,0,0-7.48-7.48h-1.87a7.48,7.48,0,0,1,7.48,7.48V688.13a7.47,7.47,0,0,1-7.48,7.47h1.87A7.47,7.47,0,0,0,820.67,688.13Z"/><rect class="cls-6" x="642.63" y="516.05" width="210.67" height="121.46" transform="translate(1324.75 -171.19) rotate(90)"/><rect class="cls-4" x="644.88" y="516.05" width="210.67" height="121.46" transform="translate(1326.99 -173.43) rotate(90)"/><rect class="cls-6" x="707.45" y="487.69" width="4.74" height="16.32" transform="translate(213.98 1205.67) rotate(-90)"/><rect class="cls-6" x="707.45" y="480.48" width="4.74" height="16.32" transform="translate(221.19 1198.46) rotate(-90)"/><rect class="cls-6" x="707.45" y="502" width="4.74" height="16.32" transform="translate(199.67 1219.98) rotate(-90)"/><rect class="cls-6" x="707.45" y="494.78" width="4.74" height="16.32" transform="translate(206.88 1212.77) rotate(-90)"/><rect class="cls-6" x="707.45" y="516.3" width="4.74" height="16.32" transform="translate(185.36 1234.29) rotate(-90)"/><rect class="cls-6" x="707.45" y="509.09" width="4.74" height="16.32" transform="translate(192.57 1227.08) rotate(-90)"/><rect class="cls-6" x="707.45" y="530.61" width="4.74" height="16.32" transform="translate(171.05 1248.6) rotate(-90)"/><rect class="cls-6" x="707.45" y="523.4" width="4.74" height="16.32" transform="translate(178.26 1241.39) rotate(-90)"/><rect class="cls-6" x="707.45" y="544.92" width="4.74" height="16.32" transform="translate(156.74 1262.91) rotate(-90)"/><rect class="cls-6" x="707.45" y="537.71" width="4.74" height="16.32" transform="translate(163.95 1255.69) rotate(-90)"/><rect class="cls-6" x="707.45" y="559.23" width="4.74" height="16.32" transform="translate(142.44 1277.21) rotate(-90)"/><rect class="cls-6" x="707.45" y="552.02" width="4.74" height="16.32" transform="translate(149.65 1270) rotate(-90)"/><rect class="cls-6" x="731.36" y="487.69" width="4.74" height="16.32" transform="translate(237.89 1229.58) rotate(-90)"/><rect class="cls-6" x="731.36" y="501.92" width="4.74" height="16.32" transform="translate(223.66 1243.81) rotate(-90)"/><rect class="cls-6" x="731.36" y="552.02" width="4.74" height="16.32" transform="translate(173.56 1293.91) rotate(-90)"/><rect class="cls-6" x="731.36" y="566.57" width="4.74" height="16.32" transform="translate(159.01 1308.46) rotate(-90)"/><rect class="cls-6" x="731.36" y="573.78" width="4.74" height="16.32" transform="translate(151.8 1315.67) rotate(-90)"/><rect class="cls-6" x="731.36" y="602.37" width="4.74" height="16.32" transform="translate(123.21 1344.27) rotate(-90)"/><rect class="cls-6" x="731.36" y="523.36" width="4.74" height="16.32" transform="translate(202.21 1265.26) rotate(-90)"/><rect class="cls-6" x="739.77" y="472.07" width="4.74" height="33.13" transform="translate(253.5 1230.78) rotate(-90)"/><rect class="cls-6" x="739.77" y="507.94" width="4.74" height="33.13" transform="translate(217.64 1266.64) rotate(-90)"/><rect class="cls-6" x="739.77" y="522.23" width="4.74" height="33.13" transform="translate(203.34 1280.94) rotate(-90)"/><rect class="cls-6" x="739.77" y="529.19" width="4.74" height="33.13" transform="translate(196.38 1287.9) rotate(-90)"/><rect class="cls-6" x="739.77" y="550.7" width="4.74" height="33.13" transform="translate(174.88 1309.4) rotate(-90)"/><rect class="cls-6" x="739.77" y="579.67" width="4.74" height="33.13" transform="translate(145.91 1338.37) rotate(-90)"/><rect class="cls-6" x="739.77" y="601.05" width="4.74" height="33.13" transform="translate(124.53 1359.75) rotate(-90)"/><rect class="cls-6" x="756.41" y="469.6" width="4.74" height="66.41" transform="translate(255.98 1261.59) rotate(-90)"/><rect class="cls-6" x="756.41" y="484.02" width="4.74" height="66.41" transform="translate(241.55 1276.01) rotate(-90)"/><rect class="cls-6" x="756.41" y="519.82" width="4.74" height="66.41" transform="translate(205.75 1311.81) rotate(-90)"/><rect class="cls-6" x="756.41" y="555.88" width="4.74" height="66.41" transform="translate(169.7 1347.87) rotate(-90)"/><rect class="cls-6" x="756.41" y="570.18" width="4.74" height="66.41" transform="translate(155.4 1362.16) rotate(-90)"/><rect class="cls-6" x="757.64" y="644.27" width="41.18" height="41.18" transform="translate(-108.24 153.14) rotate(-10.51)"/><rect class="cls-4" x="772.23" y="651.95" width="16.37" height="2.54" transform="translate(-106.08 153.34) rotate(-10.51)"/><rect class="cls-4" x="763.75" y="657.81" width="25.86" height="2.54" transform="translate(-107.21 152.76) rotate(-10.51)"/><rect class="cls-4" x="762.99" y="654.54" width="6.88" height="2.54" transform="translate(-106.78 150.84) rotate(-10.51)"/><rect class="cls-4" x="764.76" y="663.65" width="16.37" height="2.54" transform="translate(1654.22 1177.66) rotate(169.49)"/><rect class="cls-4" x="783.49" y="661.05" width="6.88" height="2.54" transform="translate(1681.49 1169.96) rotate(169.49)"/><polygon class="cls-8" points="680.38 692.1 664.97 692.1 664.97 569.83 672.68 559.09 680.38 569.83 680.38 692.1"/><rect class="cls-4" x="664.97" y="570.56" width="3.15" height="121.54"/><rect class="cls-4" x="671.02" y="570.56" width="3.15" height="121.54"/><rect class="cls-4" x="677.23" y="570.56" width="3.15" height="121.54"/><polygon class="cls-4" points="672.68 559.09 675.78 563.42 669.57 563.42 672.68 559.09"/><rect class="cls-8" x="664.75" y="677.44" width="15.78" height="18.21"/><rect class="cls-5" x="664.75" y="681.44" width="15.78" height="4.15"/><rect class="cls-8" x="402.62" y="571.36" width="184.62" height="124.3"/><rect class="cls-5" x="402.62" y="558.08" width="184.62" height="14.1"/><circle class="cls-4" cx="412.47" cy="565.13" r="2.38"/><circle class="cls-4" cx="419.79" cy="565.13" r="2.38"/><circle class="cls-4" cx="427.12" cy="565.13" r="2.38"/><rect class="cls-5" x="420.34" y="587.32" width="149.18" height="108.34"/><rect class="cls-4" x="439.25" y="613.91" width="21.04" height="1.19"/><rect class="cls-4" x="439.25" y="619.17" width="21.04" height="1.19"/><rect class="cls-4" x="439.25" y="624.43" width="21.04" height="1.19"/><rect class="cls-4" x="439.25" y="629.69" width="21.04" height="1.19"/><rect class="cls-4" x="439.25" y="634.95" width="21.04" height="1.19"/><rect class="cls-4" x="439.25" y="640.21" width="21.04" height="1.19"/><rect class="cls-4" x="439.25" y="645.47" width="21.04" height="1.19"/><rect class="cls-4" x="439.25" y="650.74" width="21.04" height="1.19"/><rect class="cls-4" x="439.25" y="656" width="21.04" height="1.19"/><rect class="cls-4" x="439.25" y="661.26" width="21.04" height="1.19"/><rect class="cls-4" x="439.25" y="666.52" width="21.04" height="1.19"/><rect class="cls-4" x="439.25" y="671.78" width="21.04" height="1.19"/><rect class="cls-4" x="439.25" y="677.04" width="21.04" height="1.19"/><rect class="cls-4" x="439.25" y="682.3" width="21.04" height="1.19"/><rect class="cls-4" x="439.25" y="687.56" width="21.04" height="1.19"/><rect class="cls-4" x="439.25" y="692.82" width="21.04" height="1.19"/><rect class="cls-4" x="470.11" y="671.78" width="21.04" height="1.19"/><rect class="cls-4" x="470.11" y="677.04" width="21.04" height="1.19"/><rect class="cls-4" x="470.11" y="682.3" width="21.04" height="1.19"/><rect class="cls-4" x="470.11" y="687.56" width="21.04" height="1.19"/><rect class="cls-4" x="470.11" y="692.82" width="21.04" height="1.19"/><rect class="cls-4" x="500.98" y="613.91" width="21.04" height="1.19"/><rect class="cls-4" x="500.98" y="619.17" width="21.04" height="1.19"/><rect class="cls-4" x="500.98" y="624.43" width="21.04" height="1.19"/><rect class="cls-4" x="500.98" y="629.69" width="21.04" height="1.19"/><rect class="cls-4" x="500.98" y="634.95" width="21.04" height="1.19"/><rect class="cls-4" x="500.98" y="640.21" width="21.04" height="1.19"/><rect class="cls-4" x="500.98" y="645.47" width="21.04" height="1.19"/><rect class="cls-4" x="500.98" y="650.74" width="21.04" height="1.19"/><rect class="cls-4" x="500.98" y="656" width="21.04" height="1.19"/><rect class="cls-4" x="500.98" y="661.26" width="21.04" height="1.19"/><rect class="cls-4" x="500.98" y="666.52" width="21.04" height="1.19"/><rect class="cls-4" x="500.98" y="671.78" width="21.04" height="1.19"/><rect class="cls-4" x="500.98" y="677.04" width="21.04" height="1.19"/><rect class="cls-4" x="500.98" y="682.3" width="21.04" height="1.19"/><rect class="cls-4" x="500.98" y="687.56" width="21.04" height="1.19"/><rect class="cls-4" x="500.98" y="692.82" width="21.04" height="1.19"/><rect class="cls-4" x="531.84" y="613.91" width="21.04" height="1.19"/><rect class="cls-4" x="531.84" y="619.17" width="21.04" height="1.19"/><rect class="cls-4" x="531.84" y="624.43" width="21.04" height="1.19"/><rect class="cls-4" x="531.84" y="629.69" width="21.04" height="1.19"/><rect class="cls-4" x="531.84" y="634.95" width="21.04" height="1.19"/><rect class="cls-4" x="531.84" y="640.21" width="21.04" height="1.19"/><rect class="cls-4" x="531.84" y="645.47" width="21.04" height="1.19"/><rect class="cls-4" x="531.84" y="650.74" width="21.04" height="1.19"/><rect class="cls-4" x="531.84" y="656" width="21.04" height="1.19"/><rect class="cls-4" x="531.84" y="661.26" width="21.04" height="1.19"/><rect class="cls-4" x="531.84" y="666.52" width="21.04" height="1.19"/><rect class="cls-4" x="531.84" y="671.78" width="21.04" height="1.19"/><rect class="cls-4" x="531.84" y="677.04" width="21.04" height="1.19"/><rect class="cls-4" x="531.84" y="682.3" width="21.04" height="1.19"/><rect class="cls-4" x="531.84" y="687.56" width="21.04" height="1.19"/><rect class="cls-4" x="531.84" y="692.82" width="21.04" height="1.19"/><rect class="cls-4" x="439.25" y="613.34" width="51.91" height="51.91"/><rect class="cls-5" x="439.25" y="665.25" width="55.35" height="8.62"/><rect class="cls-5" x="460.91" y="624.55" width="19.09" height="19.09"/><path class="cls-6" d="M469.28,635.26v15.49H453.8V635.26h15.48m1.8-1.8H452v19.09h19.08V633.46Z"/><rect class="cls-5" x="907.69" y="475.75" width="123.21" height="6.74" transform="translate(1938.6 958.25) rotate(180)"/><rect class="cls-5" x="320.14" y="306.75" width="190.9" height="6.74" transform="translate(831.17 620.25) rotate(180)"/></svg>