<svg id="Layer_1" data-name="Layer 1" xmlns="http://www.w3.org/2000/svg" xmlns:xlink="http://www.w3.org/1999/xlink" viewBox="0 0 1590.45 729.27"><defs><style>.cls-1,.cls-12,.cls-15,.cls-2,.cls-4{fill:#65ffcd;}.cls-1,.cls-15,.cls-5,.cls-6{stroke:#65ffcd;}.cls-1,.cls-14,.cls-15,.cls-5,.cls-6{stroke-miterlimit:10;}.cls-1,.cls-5,.cls-6{stroke-width:0.5px;}.cls-1{clip-rule:evenodd;}.cls-2,.cls-6{fill-rule:evenodd;}.cls-3{clip-path:url(#clip-path);}.cls-5,.cls-6{fill:none;}.cls-7{fill:#090329;}.cls-8{opacity:0.2;}.cls-9{fill:#7c00ff;}.cls-10,.cls-14{fill:#2a066b;}.cls-11{fill:#6400d4;}.cls-12,.cls-19{opacity:0.8;}.cls-13{fill:#771bef;}.cls-14{stroke:#2a066b;stroke-width:2px;}.cls-15{stroke-width:0.75px;}.cls-16{opacity:0.6;}.cls-17{opacity:0.4;}.cls-18{opacity:0.3;}.cls-19{fill:#00ffc7;}.cls-20{fill:#a838ff;}</style><clipPath id="clip-path"><path class="cls-1" d="M1005,1120.22v-9.81l7.9-4.3,7.91,4.3v9.81l-7.91,4.29Zm7.9-15.38-9,4.89v11.16l9,4.89,9-4.89v-11.16Z"/></clipPath></defs><title>yld_illustration</title><path class="cls-2" d="M1005,1120.22v-9.81l7.9-4.3,7.91,4.3v9.81l-7.91,4.29Zm7.9-15.38-9,4.89v11.16l9,4.89,9-4.89v-11.16Z"/><g class="cls-3"><rect class="cls-4" x="894.22" y="623.91" width="748.12" height="624.37"/><rect class="cls-5" x="894.22" y="623.91" width="748.12" height="624.37"/></g><path class="cls-6" d="M1005,1120.22v-9.81l7.9-4.3,7.91,4.3v9.81l-7.91,4.29Zm7.9-15.38-9,4.89v11.16l9,4.89,9-4.89v-11.16Z"/><rect class="cls-7" width="1588.39" height="729.56"/><g class="cls-8"><rect class="cls-9" x="894.51" y="568.17" width="30.05" height="122.79"/></g><rect class="cls-10" x="906.11" y="420.83" width="36.7" height="230.67"/><rect class="cls-10" x="974.26" y="339.28" width="36.7" height="230.67"/><rect class="cls-11" x="942.81" y="420.83" width="136.3" height="308.44" transform="translate(2021.91 1150.09) rotate(180)"/><rect class="cls-11" x="1010.96" y="339.28" width="68.15" height="230.67" transform="translate(2090.07 909.22) rotate(180)"/><rect class="cls-10" x="974.26" y="361.19" width="104.85" height="5.24"/><rect class="cls-10" x="974.26" y="388.32" width="104.85" height="5.24"/><rect class="cls-10" x="974.26" y="415.45" width="104.85" height="5.24"/><rect class="cls-10" x="906.11" y="442.58" width="173" height="5.24"/><rect class="cls-10" x="906.11" y="469.71" width="173" height="5.24"/><rect class="cls-10" x="906.11" y="496.84" width="173" height="5.24"/><rect class="cls-10" x="906.11" y="523.97" width="173" height="5.24"/><rect class="cls-10" x="906.11" y="551.1" width="173" height="5.24"/><rect class="cls-10" x="906.11" y="578.23" width="173" height="5.24"/><rect class="cls-10" x="906.11" y="605.36" width="173" height="5.24"/><rect class="cls-10" x="906.11" y="632.49" width="173" height="5.24"/><rect class="cls-4" x="906.11" y="442.58" width="36.7" height="5.24"/><rect class="cls-4" x="906.11" y="469.71" width="36.7" height="5.24"/><rect class="cls-4" x="906.11" y="496.84" width="36.7" height="5.24"/><rect class="cls-4" x="906.11" y="523.97" width="36.7" height="5.24"/><rect class="cls-4" x="906.11" y="551.1" width="36.7" height="5.24"/><rect class="cls-4" x="906.11" y="578.23" width="36.7" height="5.24"/><rect class="cls-4" x="906.11" y="605.36" width="36.7" height="5.24"/><rect class="cls-4" x="906.11" y="632.49" width="36.7" height="5.24"/><rect class="cls-4" x="974.26" y="361.19" width="36.7" height="5.24"/><rect class="cls-4" x="974.26" y="388.32" width="36.7" height="5.24"/><rect class="cls-4" x="974.26" y="415.45" width="36.7" height="5.24"/><rect class="cls-10" x="992.64" y="662.79" width="21.21" height="42.42" transform="translate(2006.48 1368.01) rotate(180)"/><rect class="cls-12" x="991.7" y="683.07" width="42.42" height="1.87" transform="translate(328.91 1696.91) rotate(-90)"/><rect class="cls-10" x="992.64" y="705.21" width="8.02" height="8.02"/><rect class="cls-10" x="992.64" y="713.23" width="16.04" height="8.02"/><rect class="cls-10" x="992.64" y="721.25" width="24.05" height="8.02"/><rect class="cls-13" x="1016.69" y="721.25" width="24.05" height="8.02"/><rect class="cls-13" x="1008.67" y="713.23" width="24.05" height="8.02"/><rect class="cls-13" x="1000.65" y="705.21" width="24.05" height="8.02"/><polygon class="cls-10" points="1059.88 320.9 1028.11 320.87 1019.53 331.09 1026.68 338.89 1062.16 338.89 1069.72 331.06 1059.88 320.9"/><polygon class="cls-11" points="1044.07 341.28 1034.23 331.09 1044.07 320.9 1046.46 323.21 1038.86 331.09 1046.46 338.96 1044.07 341.28"/><polygon class="cls-11" points="1059.88 341.28 1057.49 338.96 1065.09 331.09 1057.49 323.21 1059.88 320.9 1069.72 331.09 1059.88 341.28"/><rect class="cls-11" x="1041.92" y="329.42" width="19.49" height="3.33" transform="translate(349.94 1181.5) rotate(-67.95)"/><rect class="cls-11" x="1095.15" y="238.76" width="87.27" height="489.99"/><rect class="cls-10" x="1133.33" y="260.96" width="141.81" height="468.31"/><rect class="cls-14" x="1096.28" y="293.32" width="37.06" height="0.64"/><rect class="cls-14" x="1096.28" y="325.5" width="37.06" height="0.64"/><rect class="cls-14" x="1096.28" y="357.68" width="37.06" height="0.64"/><rect class="cls-14" x="1096.28" y="389.86" width="37.06" height="0.64"/><rect class="cls-14" x="1096.28" y="422.04" width="37.06" height="0.64"/><rect class="cls-14" x="1096.28" y="454.21" width="37.06" height="0.64"/><rect class="cls-14" x="1096.28" y="486.39" width="37.06" height="0.64"/><rect class="cls-14" x="1096.28" y="518.57" width="37.06" height="0.64"/><rect class="cls-14" x="1096.28" y="550.75" width="37.06" height="0.64"/><rect class="cls-14" x="1096.28" y="582.93" width="37.06" height="0.64"/><rect class="cls-14" x="1096.28" y="615.11" width="37.06" height="0.64"/><rect class="cls-15" x="1133.74" y="293.03" width="141.11" height="1.23"/><rect class="cls-15" x="1133.74" y="325.21" width="141.11" height="1.23"/><rect class="cls-15" x="1133.74" y="357.38" width="141.11" height="1.23"/><rect class="cls-15" x="1133.74" y="389.56" width="141.11" height="1.23"/><rect class="cls-15" x="1133.74" y="421.74" width="141.11" height="1.23"/><rect class="cls-15" x="1133.74" y="453.92" width="141.11" height="1.23"/><rect class="cls-15" x="1133.74" y="486.1" width="141.11" height="1.23"/><rect class="cls-15" x="1133.74" y="518.28" width="141.11" height="1.23"/><rect class="cls-15" x="1133.74" y="550.45" width="141.11" height="1.23"/><rect class="cls-15" x="1133.74" y="582.63" width="141.11" height="1.23"/><rect class="cls-15" x="1133.74" y="614.81" width="141.11" height="1.23"/><rect class="cls-9" x="1215.73" y="676.74" width="12.9" height="52.47"/><rect class="cls-9" x="1247.23" y="676.74" width="12.9" height="52.47"/><circle class="cls-11" cx="1200.23" cy="261.26" r="22.5"/><rect class="cls-10" x="1133.33" y="238.76" width="141.51" height="51.15"/><circle class="cls-10" cx="1204.73" cy="261.26" r="22.5"/><path class="cls-4" d="M1219.09,266.26c0-2-2.49-3.87-6.31-5,.89-3.89.49-7-1.23-8a2.7,2.7,0,0,0-1.37-.34v1.36a1.48,1.48,0,0,1,.7.16c.83.48,1.19,2.29.91,4.63-.07.57-.18,1.18-.31,1.8a29.13,29.13,0,0,0-3.89-.67,29.68,29.68,0,0,0-2.54-3.06c2-1.85,3.86-2.87,5.14-2.87V252.9h0c-1.69,0-3.89,1.2-6.11,3.28-2.23-2.07-4.43-3.26-6.11-3.26v1.37c1.26,0,3.14,1,5.13,2.85a29.43,29.43,0,0,0-2.52,3.05,29.13,29.13,0,0,0-3.89.67c-.14-.61-.24-1.2-.32-1.77-.29-2.34.07-4.15.89-4.64a1.41,1.41,0,0,1,.71-.16v-1.36h0a2.72,2.72,0,0,0-1.38.34c-1.72,1-2.11,4.08-1.22,8-3.8,1.17-6.28,3-6.28,5s2.49,3.87,6.3,5c-.88,3.89-.49,7,1.24,8a2.61,2.61,0,0,0,1.37.35c1.69,0,3.89-1.2,6.11-3.28,2.23,2.07,4.43,3.25,6.11,3.25a2.72,2.72,0,0,0,1.38-.34c1.72-1,2.11-4.08,1.22-8C1216.61,270.13,1219.09,268.24,1219.09,266.26Zm-8-4.08c-.23.79-.51,1.6-.83,2.42-.25-.49-.51-1-.8-1.47s-.58-1-.88-1.43C1209.49,261.83,1210.33,262,1211.13,262.18Zm-2.8,6.52c-.48.82-1,1.6-1.48,2.33q-1.36.12-2.76.12c-.92,0-1.85,0-2.75-.11-.51-.73-1-1.51-1.48-2.33s-.89-1.61-1.27-2.43c.37-.82.8-1.64,1.26-2.44s1-1.61,1.48-2.34q1.37-.12,2.76-.12c.92,0,1.85,0,2.75.12.51.73,1,1.5,1.48,2.32s.89,1.62,1.27,2.44C1209.21,267.07,1208.79,267.89,1208.33,268.7Zm2-.8c.33.82.61,1.64.85,2.43-.81.2-1.65.36-2.52.49.3-.47.6-.95.88-1.45S1210.05,268.39,1210.3,267.9Zm-6.2,6.52a24,24,0,0,1-1.7-1.95c.55,0,1.11,0,1.68,0s1.15,0,1.7,0A23.89,23.89,0,0,1,1204.1,274.42Zm-4.55-3.6c-.87-.13-1.7-.28-2.51-.48.23-.79.51-1.6.83-2.42.25.49.51,1,.8,1.47S1199.25,270.36,1199.55,270.82Zm4.52-12.72a25.82,25.82,0,0,1,1.7,1.95c-.55,0-1.11,0-1.68,0s-1.14,0-1.7,0A25.71,25.71,0,0,1,1204.07,258.1Zm-4.52,3.6c-.3.47-.6.95-.89,1.45s-.54,1-.79,1.47a25.22,25.22,0,0,1-.84-2.44Q1198.23,261.9,1199.55,261.7Zm-5.54,7.66c-2.16-.93-3.56-2.14-3.56-3.1s1.4-2.18,3.56-3.09a17.73,17.73,0,0,1,1.7-.62,27.35,27.35,0,0,0,1.37,3.72,31.32,31.32,0,0,0-1.36,3.71C1195.12,269.79,1194.54,269.58,1194,269.36Zm3.29,8.73c-.83-.47-1.19-2.29-.91-4.63.07-.57.18-1.18.31-1.79a29.16,29.16,0,0,0,3.89.66,29.68,29.68,0,0,0,2.54,3.06c-2,1.85-3.87,2.87-5.14,2.87A1.44,1.44,0,0,1,1197.3,278.09Zm14.51-4.66c.28,2.34-.07,4.16-.9,4.64a1.34,1.34,0,0,1-.7.16c-1.27,0-3.14-1-5.14-2.85a28.26,28.26,0,0,0,2.53-3.05,29.09,29.09,0,0,0,3.89-.68C1211.63,272.27,1211.74,272.87,1211.81,273.43Zm2.35-4.07c-.53.22-1.1.42-1.69.61a29.42,29.42,0,0,0-1.38-3.72,28.54,28.54,0,0,0,1.36-3.71c.6.19,1.18.4,1.72.63,2.16.92,3.56,2.13,3.56,3.09S1216.33,268.44,1214.16,269.36Z"/><circle class="cls-4" cx="1204.08" cy="266.26" r="2.79"/><polygon class="cls-11" points="1160.09 238.76 1180.86 219.25 1180.86 238.76 1160.09 238.76"/><rect class="cls-10" x="1180.86" y="219.25" width="16.93" height="19.5"/><polygon class="cls-11" points="1133.48 238.76 1154.25 219.25 1154.25 238.76 1133.48 238.76"/><rect class="cls-10" x="1154.25" y="219.25" width="16.93" height="19.5"/><rect class="cls-12" x="1201.44" y="702.07" width="52.53" height="1.87" transform="translate(524.7 1930.7) rotate(-90)"/><rect class="cls-12" x="1232.93" y="702.07" width="52.53" height="1.87" transform="translate(556.19 1962.2) rotate(-90)"/><rect class="cls-10" x="1203.21" y="508.56" width="8.3" height="127.32"/><g class="cls-8"><rect class="cls-13" x="520.77" y="627.77" width="19.97" height="101.77"/></g><g class="cls-16"><rect class="cls-9" x="573.78" y="605.68" width="30.05" height="122.79"/></g><g class="cls-17"><rect class="cls-9" x="696.9" y="566.39" width="30.05" height="122.79"/></g><g class="cls-18"><rect class="cls-13" x="485.04" y="643.52" width="24.1" height="86.01"/></g><g class="cls-16"><rect class="cls-13" x="460.81" y="674.84" width="16.02" height="54.69"/></g><g class="cls-18"><rect class="cls-13" x="446.57" y="691.48" width="14.24" height="38.05"/></g><g class="cls-16"><rect class="cls-13" x="509.88" y="691.48" width="24.1" height="38.05"/></g><g class="cls-16"><rect class="cls-13" x="429.53" y="710.5" width="12.05" height="19.02"/></g><rect class="cls-10" x="530.97" y="689.05" width="6.62" height="40.51"/><rect class="cls-11" x="509.28" y="688.83" width="23.82" height="40.44"/><rect class="cls-10" x="512.22" y="691.69" width="17.93" height="28.24"/><rect class="cls-10" x="516.14" y="722.64" width="10.09" height="3.53"/><rect class="cls-10" x="1373.59" y="450.89" width="47.76" height="278.38"/><rect class="cls-4" x="1381.56" y="461.13" width="31.82" height="1.93"/><rect class="cls-4" x="1381.56" y="468.86" width="31.82" height="1.93"/><rect class="cls-4" x="1381.56" y="476.59" width="31.82" height="1.93"/><rect class="cls-4" x="1381.56" y="484.32" width="31.82" height="1.93"/><rect class="cls-4" x="1381.56" y="492.05" width="31.82" height="1.93"/><rect class="cls-4" x="1381.56" y="499.79" width="31.82" height="1.93"/><rect class="cls-4" x="1381.56" y="507.52" width="31.82" height="1.93"/><rect class="cls-10" x="1391.71" y="436.07" width="11.53" height="14.82"/><rect class="cls-4" x="1381.56" y="523.72" width="31.82" height="1.93"/><rect class="cls-4" x="1381.56" y="515.99" width="31.82" height="1.93"/><rect class="cls-4" x="1381.56" y="531.45" width="31.82" height="1.93"/><rect class="cls-4" x="1381.56" y="539.18" width="31.82" height="1.93"/><rect class="cls-4" x="1381.56" y="546.91" width="31.82" height="1.93"/><rect class="cls-4" x="1381.56" y="555.61" width="31.82" height="1.93"/><rect class="cls-4" x="1381.56" y="563.34" width="31.82" height="1.93"/><rect class="cls-4" x="1381.56" y="571.07" width="31.82" height="1.93"/><rect class="cls-4" x="1381.56" y="578.8" width="31.82" height="1.93"/><rect class="cls-4" x="1381.56" y="586.53" width="31.82" height="1.93"/><g class="cls-8"><rect class="cls-9" x="1508.29" y="643.31" width="24.1" height="86.01"/></g><g class="cls-16"><rect class="cls-9" x="1540.6" y="674.63" width="16.02" height="54.69"/></g><g class="cls-18"><rect class="cls-9" x="1557.1" y="691.27" width="14.24" height="38.05"/></g><g class="cls-16"><rect class="cls-9" x="1576.34" y="710.3" width="12.05" height="19.02"/></g><g class="cls-8"><rect class="cls-9" x="1428.83" y="513.42" width="30.05" height="130.89"/></g><g class="cls-17"><rect class="cls-13" x="1471.49" y="561.09" width="19.97" height="83.23"/></g><polygon class="cls-9" points="1453.2 591.17 1470.08 575.32 1470.08 591.17 1453.2 591.17"/><rect class="cls-10" x="1470.08" y="575.32" width="13.76" height="15.85"/><rect class="cls-10" x="1462.12" y="591.15" width="46.8" height="138.17"/><rect class="cls-9" x="1415.25" y="591.15" width="46.87" height="138.17"/><rect class="cls-10" x="1425.35" y="599.27" width="7.26" height="19"/><rect class="cls-10" x="1425.35" y="630.35" width="7.26" height="19"/><rect class="cls-4" x="1472.56" y="630.35" width="7.26" height="19"/><rect class="cls-4" x="1445.01" y="599.27" width="7.26" height="19"/><rect class="cls-13" x="1492.3" y="599.27" width="7.26" height="19"/><polygon class="cls-9" points="1431.57 591.17 1448.45 575.32 1448.45 591.17 1431.57 591.17"/><rect class="cls-10" x="1448.45" y="575.32" width="13.76" height="15.85"/><g class="cls-17"><rect class="cls-9" x="1275.15" y="595.67" width="30.05" height="133.6"/></g><rect class="cls-13" x="1295.96" y="512.74" width="84.55" height="216.53"/><rect class="cls-10" x="1330.53" y="512.74" width="77.19" height="216.53"/><rect class="cls-11" x="1292.58" y="561.89" width="37.95" height="3.19"/><rect class="cls-10" x="1295.96" y="515.93" width="34.57" height="5.9"/><rect class="cls-10" x="1295.96" y="565.08" width="34.57" height="5.9"/><rect class="cls-11" x="1292.58" y="611.09" width="37.95" height="3.19"/><rect class="cls-10" x="1295.96" y="614.28" width="34.57" height="5.9"/><rect class="cls-11" x="1292.58" y="660.24" width="37.95" height="3.19"/><rect class="cls-10" x="1295.96" y="663.43" width="34.57" height="5.9"/><rect class="cls-11" x="1292.58" y="512.74" width="118.67" height="3.19"/><rect class="cls-4" x="1305.29" y="530.22" width="6.49" height="22.34"/><rect class="cls-4" x="1315.16" y="530.22" width="6.49" height="22.34"/><rect class="cls-13" x="1348.93" y="530.22" width="6.49" height="22.34"/><rect class="cls-13" x="1358.8" y="530.22" width="6.49" height="22.34"/><rect class="cls-13" x="1392.56" y="530.22" width="6.49" height="22.34"/><rect class="cls-4" x="1305.29" y="578.93" width="6.49" height="22.34"/><rect class="cls-4" x="1315.16" y="578.93" width="6.49" height="22.34"/><rect class="cls-13" x="1348.93" y="578.93" width="6.49" height="22.34"/><rect class="cls-13" x="1358.8" y="578.93" width="6.49" height="22.34"/><rect class="cls-13" x="1392.56" y="578.93" width="6.49" height="22.34"/><rect class="cls-4" x="1305.29" y="628.65" width="6.49" height="22.34"/><rect class="cls-4" x="1315.16" y="628.65" width="6.49" height="22.34"/><rect class="cls-13" x="1392.56" y="628.65" width="6.49" height="22.34"/><rect class="cls-12" x="1276.87" y="540.92" width="40.06" height="1.87" transform="translate(755.04 1838.75) rotate(-90)"/><rect class="cls-12" x="1276.87" y="590.12" width="40.06" height="1.87" transform="translate(705.84 1887.95) rotate(-90)"/><rect class="cls-12" x="1276.79" y="639.27" width="40.06" height="1.87" transform="translate(656.61 1937.02) rotate(-90)"/><rect class="cls-12" x="1267.23" y="698.06" width="59.34" height="1.87" transform="translate(597.9 1995.89) rotate(-90)"/><rect class="cls-10" x="1310.5" y="714.64" width="4.87" height="4.87" transform="translate(2625.88 1434.16) rotate(180)"/><rect class="cls-10" x="1305.63" y="719.52" width="9.75" height="4.87" transform="translate(2621.01 1443.91) rotate(180)"/><rect class="cls-13" x="1291" y="719.52" width="14.62" height="4.87" transform="translate(2596.63 1443.91) rotate(180)"/><rect class="cls-10" x="1300.75" y="724.39" width="14.62" height="4.87" transform="translate(2616.13 1453.66) rotate(180)"/><rect class="cls-13" x="1295.88" y="714.64" width="4.87" height="4.87" transform="translate(2596.63 1434.16) rotate(180)"/><rect class="cls-13" x="1286.13" y="724.39" width="14.62" height="4.87" transform="translate(2586.88 1453.66) rotate(180)"/><rect class="cls-11" x="1409.74" y="673.38" width="52.41" height="4.87" transform="translate(2871.88 1351.64) rotate(180)"/><polygon class="cls-10" points="1482.86 692.88 1482.86 683.13 1473.11 683.13 1482.86 692.88"/><polygon class="cls-10" points="1431.11 692.88 1431.11 683.13 1421.36 683.13 1431.11 692.88"/><polygon class="cls-10" points="1453.49 692.88 1453.49 683.13 1443.74 683.13 1453.49 692.88"/><rect class="cls-10" x="1414.61" y="678.26" width="78" height="4.87" transform="translate(2907.23 1361.39) rotate(180)"/><circle class="cls-10" cx="553.58" cy="534.89" r="24.75"/><circle class="cls-10" cx="524.19" cy="542.63" r="17.02"/><circle class="cls-10" cx="582.98" cy="542.63" r="17.02"/><rect class="cls-10" x="524.19" y="534.89" width="58.79" height="24.75"/><path class="cls-13" d="M525.74,597.09h-7.82a13.7,13.7,0,0,1-13.69-13.69V569.71a2,2,0,1,1,3.91,0V583.4a9.79,9.79,0,0,0,9.78,9.78h7.82Z"/><path class="cls-13" d="M533.57,597.09h-7.83a13.71,13.71,0,0,1-13.69-13.69V569.71a2,2,0,0,1,3.92,0V583.4a9.79,9.79,0,0,0,9.77,9.78h7.83Z"/><path class="cls-13" d="M537.48,597.09h-3.91a13.7,13.7,0,0,1-13.69-13.69V569.71a2,2,0,1,1,3.91,0V583.4a9.79,9.79,0,0,0,9.78,9.78h3.91a2,2,0,0,1,0,3.91Z"/><circle class="cls-13" cx="506.22" cy="544.52" r="25.19"/><circle class="cls-13" cx="536.13" cy="552.39" r="17.32"/><circle class="cls-13" cx="476.31" cy="552.39" r="17.32"/><rect class="cls-13" x="476.31" y="544.52" width="59.82" height="25.19" transform="translate(1012.44 1114.23) rotate(180)"/><rect class="cls-10" x="512.05" y="569.71" width="3.91" height="7.82"/><rect class="cls-10" x="519.88" y="569.71" width="3.91" height="7.82"/><rect class="cls-10" x="504.23" y="569.71" width="3.91" height="7.82"/><path class="cls-13" d="M537.71,593.23h3.91a13.71,13.71,0,0,1,13.69,13.69v90.89a2,2,0,0,1-3.91,0V606.92a9.79,9.79,0,0,0-9.78-9.78h-3.91a2,2,0,1,1,0-3.91Z"/><polygon class="cls-13" points="551.61 641.53 595.49 641.53 585.74 675.66 575.99 675.66 575.99 729.28 536.99 729.28 536.99 675.66 551.61 641.53"/><rect class="cls-10" x="649.11" y="587.91" width="73.12" height="141.37"/><polygon class="cls-10" points="590.61 641.53 595.49 641.53 595.49 675.66 595.49 729.28 575.99 729.28 575.99 675.66 590.61 641.53"/><rect class="cls-13" x="595.49" y="587.91" width="78" height="141.37"/><rect class="cls-11" x="663.74" y="581.16" width="68.25" height="6.74" transform="translate(1395.73 1169.07) rotate(180)"/><rect class="cls-11" x="585.74" y="581.16" width="78" height="6.74" transform="translate(1249.48 1169.07) rotate(180)"/><rect class="cls-11" x="663.74" y="661.03" width="63.37" height="4.87" transform="translate(1390.85 1326.94) rotate(180)"/><rect class="cls-11" x="590.61" y="656.16" width="82.87" height="4.87" transform="translate(1264.1 1317.19) rotate(180)"/><polygon class="cls-10" points="663.74 602.53 663.74 592.78 653.99 592.78 663.74 602.53"/><polygon class="cls-10" points="614.99 602.53 614.99 592.78 605.24 592.78 614.99 602.53"/><polygon class="cls-10" points="639.36 602.53 639.36 592.78 629.61 592.78 639.36 602.53"/><rect class="cls-10" x="653.99" y="607.41" width="9.75" height="34.12" transform="translate(1317.73 1248.94) rotate(180)"/><rect class="cls-4" x="605.24" y="607.41" width="9.75" height="34.12" transform="translate(1220.23 1248.94) rotate(180)"/><rect class="cls-10" x="629.61" y="607.41" width="9.75" height="34.12" transform="translate(1268.98 1248.94) rotate(180)"/><rect class="cls-10" x="595.49" y="587.91" width="78" height="4.87" transform="translate(1268.98 1180.69) rotate(180)"/><polygon class="cls-10" points="663.74 675.66 663.74 665.91 653.99 665.91 663.74 675.66"/><polygon class="cls-10" points="614.99 675.66 614.99 665.91 605.24 665.91 614.99 675.66"/><polygon class="cls-10" points="639.36 675.66 639.36 665.91 629.61 665.91 639.36 675.66"/><rect class="cls-4" x="653.99" y="680.53" width="9.75" height="34.12" transform="translate(1317.73 1395.19) rotate(180)"/><rect class="cls-10" x="629.61" y="680.53" width="9.75" height="34.12" transform="translate(1268.98 1395.19) rotate(180)"/><rect class="cls-4" x="556.49" y="680.53" width="9.75" height="19.5" transform="translate(1122.73 1380.57) rotate(180)"/><rect class="cls-10" x="595.49" y="661.03" width="78" height="4.87" transform="translate(1268.98 1326.94) rotate(180)"/><rect class="cls-10" x="614.99" y="714.66" width="4.87" height="4.87" transform="translate(1234.85 1434.19) rotate(180)"/><rect class="cls-10" x="610.11" y="719.53" width="9.75" height="4.87" transform="translate(1229.98 1443.94) rotate(180)"/><rect class="cls-13" x="595.49" y="719.53" width="14.62" height="4.87" transform="translate(1205.6 1443.94) rotate(180)"/><rect class="cls-10" x="546.74" y="724.41" width="9.75" height="4.87" transform="translate(1103.23 1453.69) rotate(180)"/><rect class="cls-13" x="532.11" y="724.41" width="14.62" height="4.87" transform="translate(1078.85 1453.69) rotate(180)"/><rect class="cls-10" x="551.61" y="719.53" width="4.87" height="4.87" transform="translate(1108.1 1443.94) rotate(180)"/><rect class="cls-13" x="536.99" y="719.53" width="14.62" height="4.87" transform="translate(1088.6 1443.94) rotate(180)"/><rect class="cls-10" x="605.24" y="724.41" width="14.62" height="4.87" transform="translate(1225.1 1453.69) rotate(180)"/><rect class="cls-13" x="600.36" y="714.66" width="4.87" height="4.87" transform="translate(1205.6 1434.19) rotate(180)"/><rect class="cls-13" x="590.61" y="724.41" width="14.62" height="4.87" transform="translate(1195.85 1453.69) rotate(180)"/><polygon class="cls-10" points="556.49 665.91 556.49 646.41 564.15 646.41 556.49 665.91"/><rect class="cls-13" x="541.86" y="646.41" width="14.62" height="19.5" transform="translate(1098.35 1312.32) rotate(180)"/><rect class="cls-4" x="546.74" y="651.28" width="4.87" height="9.75" transform="translate(1098.35 1312.32) rotate(180)"/><polygon class="cls-10" points="575.99 665.91 575.99 646.41 583.65 646.41 575.99 665.91"/><rect class="cls-13" x="561.36" y="646.41" width="14.62" height="19.5" transform="translate(1137.35 1312.32) rotate(180)"/><rect class="cls-4" x="566.24" y="651.28" width="4.87" height="9.75" transform="translate(1137.35 1312.32) rotate(180)"/><rect class="cls-7" x="673.49" y="587.91" width="48.75" height="4.87" transform="translate(1395.73 1180.69) rotate(180)"/><rect class="cls-7" x="673.49" y="665.91" width="48.75" height="4.87" transform="translate(1395.73 1336.69) rotate(180)"/><rect class="cls-12" x="673.56" y="659.16" width="34.47" height="1.87"/><rect class="cls-12" x="673.16" y="581.16" width="34.53" height="1.87"/><circle class="cls-10" cx="867.2" cy="198.13" r="34.06"/><circle class="cls-10" cx="907.64" cy="208.78" r="23.41"/><circle class="cls-10" cx="826.76" cy="208.78" r="23.41"/><rect class="cls-10" x="826.76" y="198.13" width="80.88" height="34.06" transform="translate(1734.4 430.32) rotate(180)"/><path class="cls-13" d="M905.5,283.71h10.77a18.86,18.86,0,0,0,18.83-18.84V246a2.69,2.69,0,0,0-5.38,0v18.83a13.47,13.47,0,0,1-13.45,13.46H905.5Z"/><path class="cls-13" d="M894.74,283.71H905.5a18.86,18.86,0,0,0,18.84-18.84V246a2.69,2.69,0,0,0-5.38,0v18.83a13.48,13.48,0,0,1-13.46,13.46H894.74Z"/><path class="cls-13" d="M889.36,283.71h5.38a18.86,18.86,0,0,0,18.84-18.84V246a2.7,2.7,0,0,0-5.39,0v18.83a13.47,13.47,0,0,1-13.45,13.46h-5.38a2.69,2.69,0,0,0,0,5.38Z"/><circle class="cls-13" cx="932.37" cy="211.38" r="34.66"/><circle class="cls-13" cx="891.21" cy="222.21" r="23.83"/><circle class="cls-13" cx="973.52" cy="222.21" r="23.83"/><rect class="cls-13" x="891.21" y="211.38" width="82.31" height="34.66"/><rect class="cls-10" x="918.96" y="246.04" width="5.38" height="10.76"/><rect class="cls-10" x="908.19" y="246.04" width="5.38" height="10.76"/><rect class="cls-10" x="929.72" y="246.04" width="5.38" height="10.76"/><path class="cls-13" d="M889,278.41h-5.38a18.86,18.86,0,0,0-18.84,18.83v125a2.7,2.7,0,1,0,5.39,0v-125a13.46,13.46,0,0,1,13.45-13.45H889a2.69,2.69,0,1,0,0-5.38Z"/><rect class="cls-13" x="708.07" y="341.65" width="38.18" height="387.61"/><rect class="cls-10" x="746.25" y="341.65" width="141.81" height="387.63"/><rect class="cls-11" x="702.62" y="341.65" width="43.63" height="5.45"/><rect class="cls-11" x="702.62" y="407.1" width="43.63" height="5.45"/><rect class="cls-11" x="702.62" y="472.55" width="43.63" height="5.45"/><rect class="cls-11" x="702.62" y="538.01" width="43.63" height="5.45"/><rect class="cls-11" x="702.62" y="603.46" width="43.63" height="5.45"/><rect class="cls-11" x="702.62" y="668.91" width="43.63" height="5.45"/><rect class="cls-10" x="746.25" y="341.65" width="147.27" height="5.45"/><rect class="cls-10" x="746.25" y="407.1" width="147.27" height="5.45"/><rect class="cls-10" x="746.25" y="472.55" width="147.27" height="5.45"/><rect class="cls-10" x="746.25" y="538.01" width="147.27" height="5.45"/><rect class="cls-10" x="746.25" y="603.46" width="147.27" height="5.45"/><rect class="cls-10" x="746.25" y="668.91" width="147.27" height="5.45"/><rect class="cls-10" x="702.62" y="347.11" width="43.63" height="5.45"/><rect class="cls-10" x="702.62" y="412.56" width="43.63" height="5.45"/><rect class="cls-10" x="702.62" y="478.01" width="43.63" height="5.45"/><rect class="cls-10" x="702.62" y="543.46" width="43.63" height="5.45"/><rect class="cls-10" x="702.62" y="608.91" width="43.63" height="5.45"/><rect class="cls-10" x="702.62" y="674.37" width="43.63" height="5.45"/><rect class="cls-4" x="718.98" y="366.52" width="6.49" height="22.34"/><rect class="cls-4" x="728.85" y="366.52" width="6.49" height="22.34"/><rect class="cls-13" x="762.61" y="366.52" width="6.49" height="22.34"/><rect class="cls-13" x="772.48" y="366.52" width="6.49" height="22.34"/><rect class="cls-13" x="806.25" y="366.52" width="6.49" height="22.34"/><rect class="cls-13" x="816.12" y="366.52" width="6.49" height="22.34"/><rect class="cls-13" x="849.88" y="366.52" width="6.49" height="22.34"/><rect class="cls-4" x="718.98" y="431.69" width="6.49" height="22.34"/><rect class="cls-4" x="728.85" y="431.69" width="6.49" height="22.34"/><rect class="cls-13" x="762.61" y="431.69" width="6.49" height="22.34"/><rect class="cls-13" x="772.48" y="431.69" width="6.49" height="22.34"/><rect class="cls-13" x="806.25" y="431.69" width="6.49" height="22.34"/><rect class="cls-13" x="816.12" y="431.69" width="6.49" height="22.34"/><rect class="cls-13" x="849.88" y="431.69" width="6.49" height="22.34"/><rect class="cls-4" x="718.98" y="497.87" width="6.49" height="22.34"/><rect class="cls-4" x="728.85" y="497.87" width="6.49" height="22.34"/><rect class="cls-13" x="762.61" y="497.87" width="6.49" height="22.34"/><rect class="cls-13" x="772.48" y="497.87" width="6.49" height="22.34"/><rect class="cls-13" x="806.25" y="497.87" width="6.49" height="22.34"/><rect class="cls-13" x="816.12" y="497.87" width="6.49" height="22.34"/><rect class="cls-13" x="849.88" y="497.87" width="6.49" height="22.34"/><rect class="cls-4" x="718.98" y="564.04" width="6.49" height="22.34"/><rect class="cls-4" x="728.85" y="564.04" width="6.49" height="22.34"/><rect class="cls-13" x="762.61" y="564.04" width="6.49" height="22.34"/><rect class="cls-13" x="772.48" y="564.04" width="6.49" height="22.34"/><rect class="cls-13" x="806.25" y="564.04" width="6.49" height="22.34"/><rect class="cls-13" x="816.12" y="564.04" width="6.49" height="22.34"/><rect class="cls-13" x="849.88" y="564.04" width="6.49" height="22.34"/><rect class="cls-4" x="718.98" y="630.21" width="6.49" height="22.34"/><rect class="cls-4" x="728.85" y="630.21" width="6.49" height="22.34"/><rect class="cls-13" x="762.61" y="630.21" width="6.49" height="22.34"/><rect class="cls-13" x="772.48" y="630.21" width="6.49" height="22.34"/><rect class="cls-13" x="806.25" y="630.21" width="6.49" height="22.34"/><rect class="cls-13" x="816.12" y="630.21" width="6.49" height="22.34"/><rect class="cls-13" x="849.88" y="630.21" width="6.49" height="22.34"/><rect class="cls-10" x="738.43" y="705.23" width="8.02" height="8.02" transform="translate(1484.88 1418.48) rotate(180)"/><rect class="cls-10" x="730.41" y="713.25" width="16.04" height="8.02" transform="translate(1476.86 1434.51) rotate(180)"/><rect class="cls-10" x="722.4" y="721.27" width="24.05" height="8.02" transform="translate(1468.85 1450.55) rotate(180)"/><rect class="cls-13" x="698.08" y="721.27" width="24.05" height="8.02" transform="translate(1420.22 1450.55) rotate(180)"/><rect class="cls-10" x="649.35" y="395.69" width="37.33" height="162.67"/><rect class="cls-10" x="686.68" y="418.08" width="21.39" height="5.45"/><rect class="cls-10" x="686.68" y="532.55" width="21.39" height="5.45"/><rect class="cls-11" x="649.35" y="395.69" width="31.96" height="162.67"/><rect class="cls-4" x="655.74" y="488.41" width="20" height="4.15"/><rect class="cls-4" x="655.74" y="495.45" width="20" height="4.15"/><rect class="cls-4" x="655.74" y="502.49" width="20" height="4.15"/><rect class="cls-4" x="655.74" y="509.53" width="20" height="4.15"/><rect class="cls-4" x="655.74" y="516.57" width="20" height="4.15"/><rect class="cls-4" x="655.74" y="523.61" width="20" height="4.15"/><rect class="cls-4" x="655.74" y="530.66" width="20" height="4.15"/><rect class="cls-4" x="655.74" y="537.7" width="20" height="4.15"/><rect class="cls-4" x="655.74" y="544.74" width="20" height="4.15"/><rect class="cls-10" x="655.74" y="446.16" width="20" height="4.15"/><rect class="cls-10" x="655.74" y="453.2" width="20" height="4.15"/><rect class="cls-10" x="655.74" y="460.24" width="20" height="4.15"/><rect class="cls-10" x="655.74" y="467.28" width="20" height="4.15"/><rect class="cls-10" x="655.74" y="474.32" width="20" height="4.15"/><rect class="cls-10" x="655.74" y="481.36" width="20" height="4.15"/><rect class="cls-10" x="655.74" y="403.91" width="20" height="4.15"/><rect class="cls-10" x="655.74" y="410.95" width="20" height="4.15"/><rect class="cls-10" x="655.74" y="417.99" width="20" height="4.15"/><rect class="cls-10" x="655.74" y="425.03" width="20" height="4.15"/><rect class="cls-10" x="655.74" y="432.07" width="20" height="4.15"/><rect class="cls-10" x="655.74" y="439.11" width="20" height="4.15"/><rect class="cls-10" x="655.74" y="446.16" width="20" height="4.15"/><polygon class="cls-11" points="772.86 341.65 793.63 322.15 793.63 341.65 772.86 341.65"/><rect class="cls-10" x="793.62" y="322.15" width="16.93" height="19.5"/><polygon class="cls-11" points="746.25 341.65 767.01 322.15 767.01 341.65 746.25 341.65"/><rect class="cls-10" x="767.02" y="322.15" width="16.93" height="19.5"/><rect class="cls-19" x="681.23" y="444.22" width="54.81" height="1.87" transform="translate(263.48 1153.78) rotate(-90)"/><rect class="cls-19" x="700.44" y="474.34" width="5.48" height="1.87" transform="translate(227.9 1178.45) rotate(-90)"/><rect class="cls-19" x="681.42" y="509.82" width="54.42" height="1.87" transform="translate(197.87 1219.39) rotate(-90)"/><rect class="cls-12" x="686.68" y="416.81" width="15.94" height="1.87"/><rect class="cls-12" x="686.68" y="531.61" width="15.94" height="1.87"/><rect class="cls-19" x="700.44" y="539.8" width="5.48" height="1.87" transform="translate(162.44 1243.91) rotate(-90)"/><rect class="cls-19" x="681.42" y="575.16" width="54.42" height="1.87" transform="translate(132.53 1284.73) rotate(-90)"/><rect class="cls-19" x="700.44" y="605.25" width="5.48" height="1.87" transform="translate(96.99 1309.36) rotate(-90)"/><g class="cls-16"><rect class="cls-9" x="1072.58" y="636.63" width="36.21" height="91.79"/></g><rect class="cls-9" x="1152.73" y="676.26" width="12.9" height="52.47"/><rect class="cls-9" x="1184.23" y="676.26" width="12.9" height="52.47"/><circle class="cls-13" cx="1343.16" cy="375.54" r="17.33"/><circle class="cls-13" cx="1322.58" cy="380.96" r="11.91"/><circle class="cls-13" cx="1363.73" cy="380.96" r="11.91"/><rect class="cls-13" x="1322.58" y="375.54" width="41.15" height="17.33"/><circle class="cls-10" cx="1467.21" cy="441.49" r="10.51"/><circle class="cls-10" cx="1454.73" cy="444.77" r="7.23"/><circle class="cls-10" cx="1479.69" cy="444.77" r="7.23"/><rect class="cls-10" x="1454.73" y="441.49" width="24.96" height="10.51"/><circle class="cls-10" cx="419.74" cy="646.52" r="10.51"/><circle class="cls-10" cx="407.26" cy="649.81" r="7.23"/><circle class="cls-10" cx="432.22" cy="649.81" r="7.23"/><rect class="cls-10" x="407.26" y="646.52" width="24.96" height="10.51"/><rect class="cls-10" x="1425.95" y="705.51" width="11.9" height="23.81" transform="translate(2863.81 1434.84) rotate(180)"/><rect class="cls-10" x="1007.53" y="541.46" width="235.37" height="140.14" rx="7.47" ry="7.47" transform="translate(1736.75 -513.69) rotate(90)"/><rect class="cls-13" x="1015.39" y="541.46" width="235.37" height="140.14" rx="7.47" ry="7.47" transform="translate(1744.6 -521.55) rotate(90)"/><path class="cls-4" d="M1203.15,721.74V501.32a7.48,7.48,0,0,0-7.48-7.48h-1.87a7.48,7.48,0,0,1,7.48,7.48V721.74a7.47,7.47,0,0,1-7.48,7.47h1.87A7.47,7.47,0,0,0,1203.15,721.74Z"/><rect class="cls-4" x="1025.11" y="549.66" width="210.67" height="121.46" transform="translate(1740.84 -520.06) rotate(90)"/><rect class="cls-10" x="1027.36" y="549.66" width="210.67" height="121.46" transform="translate(1743.08 -522.3) rotate(90)"/><rect class="cls-4" x="1089.93" y="521.3" width="4.74" height="16.32" transform="translate(562.85 1621.76) rotate(-90)"/><rect class="cls-4" x="1089.93" y="514.09" width="4.74" height="16.32" transform="translate(570.06 1614.55) rotate(-90)"/><rect class="cls-4" x="1089.93" y="535.6" width="4.74" height="16.32" transform="translate(548.54 1636.07) rotate(-90)"/><rect class="cls-4" x="1089.93" y="528.39" width="4.74" height="16.32" transform="translate(555.75 1628.86) rotate(-90)"/><rect class="cls-4" x="1089.93" y="549.91" width="4.74" height="16.32" transform="translate(534.23 1650.38) rotate(-90)"/><rect class="cls-4" x="1089.93" y="542.7" width="4.74" height="16.32" transform="translate(541.44 1643.17) rotate(-90)"/><rect class="cls-4" x="1089.93" y="564.22" width="4.74" height="16.32" transform="translate(519.92 1664.69) rotate(-90)"/><rect class="cls-4" x="1089.93" y="557.01" width="4.74" height="16.32" transform="translate(527.13 1657.48) rotate(-90)"/><rect class="cls-4" x="1089.93" y="578.53" width="4.74" height="16.32" transform="translate(505.61 1679) rotate(-90)"/><rect class="cls-4" x="1089.93" y="571.32" width="4.74" height="16.32" transform="translate(512.83 1671.78) rotate(-90)"/><rect class="cls-4" x="1089.93" y="592.84" width="4.74" height="16.32" transform="translate(491.31 1693.3) rotate(-90)"/><rect class="cls-4" x="1089.93" y="585.63" width="4.74" height="16.32" transform="translate(498.52 1686.09) rotate(-90)"/><rect class="cls-4" x="1113.84" y="521.3" width="4.74" height="16.32" transform="translate(586.76 1645.67) rotate(-90)"/><rect class="cls-4" x="1113.84" y="535.53" width="4.74" height="16.32" transform="translate(572.53 1659.91) rotate(-90)"/><rect class="cls-4" x="1113.84" y="585.63" width="4.74" height="16.32" transform="translate(522.43 1710) rotate(-90)"/><rect class="cls-4" x="1113.84" y="600.18" width="4.74" height="16.32" transform="translate(507.88 1724.55) rotate(-90)"/><rect class="cls-4" x="1113.84" y="607.39" width="4.74" height="16.32" transform="translate(500.67 1731.76) rotate(-90)"/><rect class="cls-4" x="1113.84" y="635.98" width="4.74" height="16.32" transform="translate(472.08 1760.36) rotate(-90)"/><rect class="cls-4" x="1113.84" y="556.97" width="4.74" height="16.32" transform="translate(551.08 1681.35) rotate(-90)"/><rect class="cls-4" x="1122.25" y="505.68" width="4.74" height="33.13" transform="translate(602.38 1646.87) rotate(-90)"/><rect class="cls-4" x="1122.25" y="541.55" width="4.74" height="33.13" transform="translate(566.51 1682.73) rotate(-90)"/><rect class="cls-4" x="1122.25" y="555.84" width="4.74" height="33.13" transform="translate(552.21 1697.03) rotate(-90)"/><rect class="cls-4" x="1122.25" y="562.8" width="4.74" height="33.13" transform="translate(545.26 1703.99) rotate(-90)"/><rect class="cls-4" x="1122.25" y="584.31" width="4.74" height="33.13" transform="translate(523.75 1725.49) rotate(-90)"/><rect class="cls-4" x="1122.25" y="613.28" width="4.74" height="33.13" transform="translate(494.78 1754.47) rotate(-90)"/><rect class="cls-4" x="1122.25" y="634.66" width="4.74" height="33.13" transform="translate(473.4 1775.85) rotate(-90)"/><rect class="cls-4" x="1138.89" y="503.21" width="4.74" height="66.41" transform="translate(604.85 1677.68) rotate(-90)"/><rect class="cls-4" x="1138.89" y="517.63" width="4.74" height="66.41" transform="translate(590.43 1692.1) rotate(-90)"/><rect class="cls-4" x="1138.89" y="553.43" width="4.74" height="66.41" transform="translate(554.62 1727.9) rotate(-90)"/><rect class="cls-4" x="1138.89" y="589.49" width="4.74" height="66.41" transform="translate(518.57 1763.96) rotate(-90)"/><rect class="cls-4" x="1138.89" y="603.79" width="4.74" height="66.41" transform="translate(504.27 1778.25) rotate(-90)"/><rect class="cls-4" x="1140.12" y="677.88" width="41.18" height="41.18" transform="translate(-107.95 223.49) rotate(-10.51)"/><rect class="cls-10" x="1154.71" y="685.56" width="16.37" height="2.54" transform="translate(-105.79 223.69) rotate(-10.51)"/><rect class="cls-10" x="1146.23" y="691.42" width="25.86" height="2.54" transform="translate(-106.92 223.11) rotate(-10.51)"/><rect class="cls-10" x="1145.47" y="688.15" width="6.88" height="2.54" transform="translate(-106.5 221.18) rotate(-10.51)"/><rect class="cls-10" x="1147.24" y="697.26" width="16.37" height="2.54" transform="translate(2418.89 1174.53) rotate(169.49)"/><rect class="cls-10" x="1165.97" y="694.66" width="6.88" height="2.54" transform="translate(2446.17 1166.83) rotate(169.49)"/><polygon class="cls-13" points="1062.86 725.71 1047.45 725.71 1047.45 603.44 1055.16 592.7 1062.86 603.44 1062.86 725.71"/><rect class="cls-10" x="1047.45" y="604.17" width="3.15" height="121.54"/><rect class="cls-10" x="1053.51" y="604.17" width="3.15" height="121.54"/><rect class="cls-10" x="1059.71" y="604.17" width="3.15" height="121.54"/><polygon class="cls-10" points="1055.16 592.7 1058.26 597.03 1052.05 597.03 1055.16 592.7"/><rect class="cls-13" x="1047.23" y="711.05" width="15.78" height="18.21"/><rect class="cls-11" x="1047.23" y="715.05" width="15.78" height="4.15"/><rect class="cls-20" x="785.1" y="591.69" width="177" height="15.03"/><rect class="cls-13" x="785.1" y="604.97" width="184.62" height="124.3"/><rect class="cls-11" x="785.1" y="591.69" width="184.62" height="14.1"/><circle class="cls-10" cx="794.95" cy="598.74" r="2.38"/><circle class="cls-10" cx="802.27" cy="598.74" r="2.38"/><circle class="cls-10" cx="809.6" cy="598.74" r="2.38"/><rect class="cls-11" x="802.82" y="620.93" width="149.18" height="108.34"/><rect class="cls-10" x="821.73" y="647.52" width="21.04" height="1.19"/><rect class="cls-10" x="821.73" y="652.78" width="21.04" height="1.19"/><rect class="cls-10" x="821.73" y="658.04" width="21.04" height="1.19"/><rect class="cls-10" x="821.73" y="663.3" width="21.04" height="1.19"/><rect class="cls-10" x="821.73" y="668.56" width="21.04" height="1.19"/><rect class="cls-10" x="821.73" y="673.82" width="21.04" height="1.19"/><rect class="cls-10" x="821.73" y="679.08" width="21.04" height="1.19"/><rect class="cls-10" x="821.73" y="684.35" width="21.04" height="1.19"/><rect class="cls-10" x="821.73" y="689.61" width="21.04" height="1.19"/><rect class="cls-10" x="821.73" y="694.87" width="21.04" height="1.19"/><rect class="cls-10" x="821.73" y="700.13" width="21.04" height="1.19"/><rect class="cls-10" x="821.73" y="705.39" width="21.04" height="1.19"/><rect class="cls-10" x="821.73" y="710.65" width="21.04" height="1.19"/><rect class="cls-10" x="821.73" y="715.91" width="21.04" height="1.19"/><rect class="cls-10" x="821.73" y="721.17" width="21.04" height="1.19"/><rect class="cls-10" x="821.73" y="726.43" width="21.04" height="1.19"/><rect class="cls-10" x="852.59" y="705.39" width="21.04" height="1.19"/><rect class="cls-10" x="852.59" y="710.65" width="21.04" height="1.19"/><rect class="cls-10" x="852.59" y="715.91" width="21.04" height="1.19"/><rect class="cls-10" x="852.59" y="721.17" width="21.04" height="1.19"/><rect class="cls-10" x="852.59" y="726.43" width="21.04" height="1.19"/><rect class="cls-10" x="883.46" y="647.52" width="21.04" height="1.19"/><rect class="cls-10" x="883.46" y="652.78" width="21.04" height="1.19"/><rect class="cls-10" x="883.46" y="658.04" width="21.04" height="1.19"/><rect class="cls-10" x="883.46" y="663.3" width="21.04" height="1.19"/><rect class="cls-10" x="883.46" y="668.56" width="21.04" height="1.19"/><rect class="cls-10" x="883.46" y="673.82" width="21.04" height="1.19"/><rect class="cls-10" x="883.46" y="679.08" width="21.04" height="1.19"/><rect class="cls-10" x="883.46" y="684.35" width="21.04" height="1.19"/><rect class="cls-10" x="883.46" y="689.61" width="21.04" height="1.19"/><rect class="cls-10" x="883.46" y="694.87" width="21.04" height="1.19"/><rect class="cls-10" x="883.46" y="700.13" width="21.04" height="1.19"/><rect class="cls-10" x="883.46" y="705.39" width="21.04" height="1.19"/><rect class="cls-10" x="883.46" y="710.65" width="21.04" height="1.19"/><rect class="cls-10" x="883.46" y="715.91" width="21.04" height="1.19"/><rect class="cls-10" x="883.46" y="721.17" width="21.04" height="1.19"/><rect class="cls-10" x="883.46" y="726.43" width="21.04" height="1.19"/><rect class="cls-10" x="914.32" y="647.52" width="21.04" height="1.19"/><rect class="cls-10" x="914.32" y="652.78" width="21.04" height="1.19"/><rect class="cls-10" x="914.32" y="658.04" width="21.04" height="1.19"/><rect class="cls-10" x="914.32" y="663.3" width="21.04" height="1.19"/><rect class="cls-10" x="914.32" y="668.56" width="21.04" height="1.19"/><rect class="cls-10" x="914.32" y="673.82" width="21.04" height="1.19"/><rect class="cls-10" x="914.32" y="679.08" width="21.04" height="1.19"/><rect class="cls-10" x="914.32" y="684.35" width="21.04" height="1.19"/><rect class="cls-10" x="914.32" y="689.61" width="21.04" height="1.19"/><rect class="cls-10" x="914.32" y="694.87" width="21.04" height="1.19"/><rect class="cls-10" x="914.32" y="700.13" width="21.04" height="1.19"/><rect class="cls-10" x="914.32" y="705.39" width="21.04" height="1.19"/><rect class="cls-10" x="914.32" y="710.65" width="21.04" height="1.19"/><rect class="cls-10" x="914.32" y="715.91" width="21.04" height="1.19"/><rect class="cls-10" x="914.32" y="721.17" width="21.04" height="1.19"/><rect class="cls-10" x="914.32" y="726.43" width="21.04" height="1.19"/><rect class="cls-10" x="821.73" y="646.95" width="51.91" height="51.91"/><rect class="cls-11" x="821.73" y="698.86" width="55.35" height="8.62"/><rect class="cls-11" x="843.39" y="658.16" width="19.09" height="19.09"/><path class="cls-4" d="M851.76,668.87v15.49H836.28V668.87h15.48m1.8-1.8H834.48v19.09h19.08V667.07Z"/><rect class="cls-11" x="1290.17" y="509.36" width="123.21" height="6.74" transform="translate(2703.56 1025.47) rotate(180)"/><rect class="cls-11" x="702.62" y="340.36" width="190.9" height="6.74" transform="translate(1596.14 687.47) rotate(180)"/></svg>