<?xml version="1.0" encoding="UTF-8"?>
<svg width="54px" height="54px" viewBox="0 0 54 54" version="1.1" xmlns="http://www.w3.org/2000/svg" xmlns:xlink="http://www.w3.org/1999/xlink">
    <!-- Generator: Sketch 53.2 (72643) - https://sketchapp.com -->
    <title>yldsvg</title>
    <desc>Created with Sketch.</desc>
    <g id="yldsvg" stroke="none" stroke-width="1" fill="none" fill-rule="evenodd">
        <rect id="Rectangle-7" fill="#333333" x="0" y="0" width="54" height="54"></rect>
        <path d="M16.9232099,23.3995183 C18.6229631,23.3995183 20.0006201,22.0190178 20.0006201,20.3163108 C20.0006201,18.6136037 18.6229631,17.2335526 16.9232099,17.2335526 C15.2234566,17.2335526 13.845351,18.6136037 13.845351,20.3163108 C13.845351,22.0190178 15.2234566,23.3995183 16.9232099,23.3995183 L16.9232099,23.3995183 Z M38.8674777,28.435289 C38.8674777,26.7348289 37.4871291,25.3520815 35.7900674,25.3520815 C34.0930058,25.3520815 32.7122086,26.7348289 32.7122086,28.435289 C32.7122086,30.1348504 34.0930058,31.5180472 35.7900674,31.5180472 C37.4871291,31.5180472 38.8674777,30.1348504 38.8674777,28.435289 L38.8674777,28.435289 Z M43,16 L43,35.4748526 L38.8961882,35.4748526 L38.8961882,34.9108786 C37.9545724,35.3661022 36.9039464,35.6285411 35.7900674,35.6285411 C31.8302569,35.6285411 28.6088454,32.4015315 28.6088454,28.435289 C28.6088454,24.4681478 31.8302569,21.2411382 35.7900674,21.2411382 C36.9039464,21.2411382 37.9545724,21.5040265 38.8961882,21.9592501 L38.8961882,16 L43,16 Z M28.6088454,16 L28.6088454,28.435289 L28.6088454,35.4748526 L24.5050336,35.4748526 L24.5050336,23.9095664 L16.9236585,41 L12.4331517,41 L14.6985922,35.8932269 L9,23.3995183 L13.5120397,23.3995183 L16.9232099,30.8785771 L20.2410708,23.3995183 L24.5050336,23.3995183 L24.5050336,16 L28.6088454,16 Z" id="Fill-1" fill="#FFFFFF"></path>
    </g>
</svg>