<svg width="33" height="24" xmlns="http://www.w3.org/2000/svg" xmlns:xlink="http://www.w3.org/1999/xlink"><defs><path id="a" d="M0 0h31.794v22.4H0z"/></defs><g fill="none" fill-rule="evenodd"><g transform="translate(.8 .8)"><mask id="b" fill="#fff"><use xlink:href="#a"/></mask><path d="M31.13 3.498a3.994 3.994 0 0 0-2.812-2.83C25.84 0 15.897 0 15.897 0S5.955 0 3.475.669a3.995 3.995 0 0 0-2.81 2.829C0 5.993 0 11.2 0 11.2s0 5.207.664 7.702a3.995 3.995 0 0 0 2.811 2.83c2.48.668 12.422.668 12.422.668s9.942 0 12.421-.669a3.995 3.995 0 0 0 2.811-2.829c.665-2.495.665-7.702.665-7.702s0-5.207-.665-7.702" fill="red" mask="url(#b)"/></g><path fill="#FFF" d="M13.445 16.727L21.755 12l-8.31-4.727z"/></g></svg>