<svg width="581" height="222" xmlns="http://www.w3.org/2000/svg" xmlns:xlink="http://www.w3.org/1999/xlink"><defs><path id="a" d="M0 .32h160.393v60.5H0z"/><path id="c" d="M0 221.857h580.42V.197H0z"/></defs><g fill="none" fill-rule="evenodd"><path fill="#3083D6" d="M0 220.991h236.22V66.297H0z"/><path d="M130.277 155.32L65.67 175.293c-4.466 1.38-8.988-1.967-8.988-6.653v-48.125a6.96 6.96 0 0 1 4.897-6.652l66.239-20.477c4.465-1.38 8.987 1.967 8.987 6.652v46.413a9.278 9.278 0 0 1-6.528 8.869" fill="#F7E034"/><path fill="#F7E034" d="M59.78 174.437l17.726 10.667 73.289-80.586-17.966-10.772-69.071 29.366z"/><g transform="translate(76.164 161.036)"><mask id="b" fill="#fff"><use xlink:href="#a"/></mask><path fill="#321EA8" mask="url(#b)" d="M160.393 60.82V39.715L74.63.32 0 23.16l69.046 37.66h91.04z"/></g><path fill="#13DBE5" d="M120.248 111.42l-7.051-4.261-14.086 5.025 6.316 3.818z"/><path d="M147.509 165.687L82.9 185.66c-4.465 1.38-8.987-1.967-8.987-6.653v-48.125a6.96 6.96 0 0 1 4.896-6.652l66.24-20.477c4.464-1.38 8.987 1.967 8.987 6.652v46.414a9.278 9.278 0 0 1-6.528 8.868" fill="#13DBE5"/><path d="M108.855 106.684l-11.93 3.688a1.283 1.283 0 0 1-1.66-1.228v-8.887c0-.564.367-1.062.904-1.228l12.232-3.782a1.283 1.283 0 0 1 1.66 1.229v8.57c0 .752-.49 1.416-1.206 1.638" fill="#F7E034"/><path fill="#F7E034" d="M95.837 110.214l3.274 1.97 13.533-14.88-3.318-1.99-12.754 5.423z"/><path d="M112.037 108.598l-11.93 3.688a1.283 1.283 0 0 1-1.66-1.228v-8.887c0-.563.367-1.062.904-1.228l12.232-3.781a1.283 1.283 0 0 1 1.66 1.228v8.57c0 .752-.49 1.417-1.206 1.638" fill="#13DBE5"/><path d="M109.183 106.812l-6.431 1.988a.691.691 0 0 1-.895-.662v-4.79c0-.304.197-.573.487-.662l6.594-2.038a.692.692 0 0 1 .895.662v4.62a.923.923 0 0 1-.65.882" fill="#F7E034"/><mask id="d" fill="#fff"><use xlink:href="#c"/></mask><path fill="#B614DD" mask="url(#d)" d="M171.778 188.177h236.557V33.876H171.778z"/><path d="M270.623 179.093a1.513 1.513 0 0 0 .324 1.689 1.525 1.525 0 0 0 .759.42c.29.063.609.041.926-.095l2.317-.998 3.98 8.068h4.335c.556-1.31.776-2.71.6-4.045l-.994-7.526c.555-.295 1.1-.612 1.635-.95l.036-.022c.52-.33 1.029-.679 1.526-1.047l.068-.05c.24-.178.477-.36.71-.548l.08-.065c.216-.174.43-.352.641-.533l.072-.06a25.83 25.83 0 0 0 .775-.701c.212-.199.421-.4.627-.606l13.447-13.484 1.959 3.97 10.797 21.882 1.302-1.306c4.06-4.072 6.107-9.608 5.435-14.703l-3.427-25.953 16.54-16.583c1.846-1.852 3.109-4.18 3.58-6.602l1.105-5.683a1.525 1.525 0 0 0-.42-1.377 1.515 1.515 0 0 0-1.373-.421l-5.668 1.109c-2.415.472-4.736 1.738-6.583 3.59L308.91 133.33l.204-.363-25.882-3.436c-5.08-.674-10.602 1.377-14.663 5.45l-1.302 1.305 25.782 12.79.3-.142-13.669 13.706a25.975 25.975 0 0 0-4.57 6.187l-7.505-.996c-2.406-.32-5.02.652-6.942 2.58l-.617.618 11.571 5.74-.995 2.324z" fill="#321EA8" mask="url(#d)"/><path fill="#FFF" mask="url(#d)" d="M240.347 188.177h10.723l51.67-51.811-5.36-5.376zm17.554-96.773l-86.123 86.357v10.416h.335l91.15-91.397zm35.092 35.188l-5.361-5.377-66.78 66.962h10.722zm-121.215 31.621v10.751l81.737-81.958-5.361-5.376z"/><path d="M253.884 72.259l38.46 5.105-9.637 17.2-14.237 6.738-38.31-19.005 1.936-1.94c6.034-6.051 14.238-9.1 21.788-8.098" fill="#F7E034" mask="url(#d)"/><path d="M230.663 129.17l11.153 1.48a38.6 38.6 0 0 1 6.79-9.193l68.431-68.617c2.744-2.752 6.194-4.633 9.783-5.335l8.421-1.648c1.583-.309 2.974 1.087 2.666 2.673l-1.643 8.445c-.7 3.598-2.576 7.057-5.32 9.809l-24.576 24.643 5.09 38.563c1 7.57-2.04 15.797-8.075 21.848l-1.935 1.94-18.953-38.414-19.983 20.037a38.503 38.503 0 0 1-9.168 6.808l1.477 11.183c.473 3.585-.967 7.48-3.824 10.345l-.916.919-8.507-17.242-3.443 1.483c-1.886.812-3.794-1.102-2.984-2.993l1.478-3.452-17.194-8.53.916-.919c2.857-2.865 6.741-4.308 10.316-3.834" fill="#F7E034" mask="url(#d)"/><path d="M337.907 48.53l-1.643 8.445c-.7 3.598-2.576 7.057-5.32 9.809L262.511 135.4c-3.449 3.458-7.5 6.226-11.863 8.105l-12.518 5.39a2.234 2.234 0 0 1-2.503-.482l101.656-101.93c.507.508.778 1.254.624 2.047" fill="#EF7C26" mask="url(#d)"/><path d="M243.206 150.388l-.041.018-2.4-4.864 11.475-11.507 1.333 10.097a45.205 45.205 0 0 1-10.367 6.256m64.19-51.176l-21.99 22.05-2.911-5.898 23.872-23.937z" fill="#EF7C26" mask="url(#d)"/><path fill="#210447" mask="url(#d)" d="M343.862 154.498H580.42V.197H343.862z"/><path fill="#22F45E" mask="url(#d)" d="M497.105 28.54L473.35 81.083h23.755z"/><path fill="#106851" mask="url(#d)" d="M497.105 28.54l23.756 52.544h-23.756z"/><path fill="#13DBE5" mask="url(#d)" d="M524.209 66.3h-27.224l-20.417 14.784v43.222h27.223V87.455h20.418z"/><path fill="#B614DD" mask="url(#d)" d="M503.791 124.306h40.835V81.084h-40.835z"/><path fill="#22F45E" mask="url(#d)" d="M470.826 56.972l-30.441 67.334h30.441z"/><path fill="#106851" mask="url(#d)" d="M470.826 56.972l30.442 67.334h-30.442z"/><path fill="#06382A" mask="url(#d)" d="M476.568 81.084v43.222h24.7l-20.813-46.037z"/><path fill="#B614DD" mask="url(#d)" d="M503.791 81.084L524.306 66.3l20.32 14.784-19.345 4.702z"/><path d="M381.536 36.401c0-8.831 5.93-16.273 14.014-18.543a19.168 19.168 0 0 0-5.19-.712c-10.606 0-19.204 8.62-19.204 19.255s8.598 19.257 19.204 19.257c1.798 0 3.539-.25 5.19-.713-8.084-2.27-14.014-9.712-14.014-18.544" fill="#13DBE5" mask="url(#d)"/><path fill="#F7E034" mask="url(#d)" d="M518.449 106.44h9.931v-15.8h-9.931zm61.971 48.058h-9.932l-30.827-19.907h9.931z"/><path fill="#6842C6" mask="url(#d)" d="M172.084 188.177h64.473v33.68zm171.779-33.679h64.472v33.68z"/></g></svg>