<?xml version="1.0" encoding="UTF-8"?>
<svg width="54px" height="58px" viewBox="0 0 54 58" version="1.1" xmlns="http://www.w3.org/2000/svg" xmlns:xlink="http://www.w3.org/1999/xlink">
    <!-- Generator: Sketch 54.1 (76490) - https://sketchapp.com -->
    <title>community_support</title>
    <desc>Created with Sketch.</desc>
    <g id="community_support" stroke="none" stroke-width="1" fill="none" fill-rule="evenodd">
        <g id="icon-copy-6" fill="#97ECFF">
            <g id="icon:-pair-programming" transform="translate(0.000000, 28.000000)">
                <polygon id="Fill-1" points="0 32 32 32 32 0 0 0"></polygon>
            </g>
        </g>
        <g id="Group-14" transform="translate(2.000000, 6.000000)">
            <path d="M10.4062552,22 L12.4089606,22 C12.3925406,22.2977594 12.3842903,22.5968486 12.3842903,22.8970476 C12.3842903,32.0033433 19.9892433,39.3970476 29.3842903,39.3970476 C29.590409,39.3970476 29.795666,39.3934889 30,39.3864313 L30,41.387514 C29.7955584,41.3938538 29.5903053,41.3970476 29.3842903,41.3970476 C18.8970863,41.3970476 10.3842903,33.1207182 10.3842903,22.8970476 C10.3842903,22.5970432 10.3916335,22.2979661 10.4062561,21.9999999 Z M11.0573115,17.9999999 C11.0940018,17.8695359 11.1321672,17.7394837 11.1718014,17.6098613 C12.5244787,13.1859764 15.4911598,9.52216172 19.3533838,7.18375988 L20.3536065,8.91619636 C16.9761335,10.9722461 14.3727316,14.1596595 13.1452608,18 L11.0573111,18 Z M40.1629533,38.134003 L39.1604273,36.3975771 C42.2751538,34.2686965 44.619372,31.1502638 45.70932,27.5149138 L48.0937679,26.1382521 C47.1930669,31.1024825 44.2598692,35.3813844 40.1629533,38.134003 Z M45.2766192,12.7536267 L43.539339,13.7566459 C41.3778384,10.6093802 38.1316441,8.22299867 34.3174876,7.10234787 L32.9426321,4.72102831 C38.088247,5.67044694 42.501793,8.64051785 45.2766192,12.7536267 Z" id="Combined-Shape" fill="#333333" fill-rule="nonzero"></path>
            <rect id="Rectangle" fill="#97ECFF" x="25" y="36" width="5" height="12"></rect>
            <path d="M29.3842903,12.3970476 C32.6979988,12.3970476 35.3842903,9.71075611 35.3842903,6.39704761 C35.3842903,3.08333911 32.6979988,0.397047613 29.3842903,0.397047613 C26.0705818,0.397047613 23.3842903,3.08333911 23.3842903,6.39704761 C23.3842903,9.71075611 26.0705818,12.3970476 29.3842903,12.3970476 Z M29.3842903,10.3970476 C27.1751513,10.3970476 25.3842903,8.60618661 25.3842903,6.39704761 C25.3842903,4.18790861 27.1751513,2.39704761 29.3842903,2.39704761 C31.5934293,2.39704761 33.3842903,4.18790861 33.3842903,6.39704761 C33.3842903,8.60618661 31.5934293,10.3970476 29.3842903,10.3970476 Z" id="Oval" fill="#333333" fill-rule="nonzero"></path>
            <path d="M29.9033043,46.390547 C33.4931551,46.390547 36.4033043,43.4803978 36.4033043,39.890547 C36.4033043,36.3006961 33.4931551,33.390547 29.9033043,33.390547 C26.3134534,33.390547 23.4033043,36.3006961 23.4033043,39.890547 C23.4033043,43.4803978 26.3134534,46.390547 29.9033043,46.390547 Z M29.9033043,44.390547 C27.4180229,44.390547 25.4033043,42.3758283 25.4033043,39.890547 C25.4033043,37.4052656 27.4180229,35.390547 29.9033043,35.390547 C32.3885856,35.390547 34.4033043,37.4052656 34.4033043,39.890547 C34.4033043,42.3758283 32.3885856,44.390547 29.9033043,44.390547 Z" id="Oval-Copy-2" fill="#333333" fill-rule="nonzero" transform="translate(29.903304, 39.890547) rotate(-180.000000) translate(-29.903304, -39.890547) "></path>
            <polygon id="Rectangle" fill="#97ECFF" transform="translate(10.489191, 26.938679) rotate(-120.000000) translate(-10.489191, -26.938679) " points="1.96757374 19.9386795 19.0108088 22.0561639 12.5108088 33.3144942 1.96757374 33.9386795"></polygon>
            <path d="M12.8970476,28.9033043 C16.2107561,28.9033043 18.8970476,26.2170128 18.8970476,22.9033043 C18.8970476,19.5895958 16.2107561,16.9033043 12.8970476,16.9033043 C9.58333911,16.9033043 6.89704761,19.5895958 6.89704761,22.9033043 C6.89704761,26.2170128 9.58333911,28.9033043 12.8970476,28.9033043 Z M12.8970476,26.9033043 C10.6879086,26.9033043 8.89704761,25.1124433 8.89704761,22.9033043 C8.89704761,20.6941653 10.6879086,18.9033043 12.8970476,18.9033043 C15.1061866,18.9033043 16.8970476,20.6941653 16.8970476,22.9033043 C16.8970476,25.1124433 15.1061866,26.9033043 12.8970476,26.9033043 Z" id="Oval" fill="#333333" fill-rule="nonzero" transform="translate(12.897048, 22.903304) rotate(-90.000000) translate(-12.897048, -22.903304) "></path>
            <path d="M45.890547,28.8842903 C49.2042555,28.8842903 51.890547,26.1979988 51.890547,22.8842903 C51.890547,19.5705818 49.2042555,16.8842903 45.890547,16.8842903 C42.5768385,16.8842903 39.890547,19.5705818 39.890547,22.8842903 C39.890547,26.1979988 42.5768385,28.8842903 45.890547,28.8842903 Z M45.890547,26.8842903 C43.681408,26.8842903 41.890547,25.0934293 41.890547,22.8842903 C41.890547,20.6751513 43.681408,18.8842903 45.890547,18.8842903 C48.099686,18.8842903 49.890547,20.6751513 49.890547,22.8842903 C49.890547,25.0934293 48.099686,26.8842903 45.890547,26.8842903 Z" id="Oval-Copy-2" fill="#333333" fill-rule="nonzero" transform="translate(45.890547, 22.884290) rotate(-270.000000) translate(-45.890547, -22.884290) "></path>
        </g>
    </g>
</svg>