<?xml version="1.0" encoding="UTF-8"?>
<svg width="72px" height="72px" viewBox="0 0 72 72" version="1.1" xmlns="http://www.w3.org/2000/svg" xmlns:xlink="http://www.w3.org/1999/xlink">
    <!-- Generator: Sketch 54.1 (76490) - https://sketchapp.com -->
    <title>Artboard</title>
    <desc>Created with Sketch.</desc>
    <g id="Artboard" stroke="none" stroke-width="1" fill="none" fill-rule="evenodd">
        <g id="joyent-vector-logo" transform="translate(0.000000, 28.000000)" fill="#828282" fill-rule="nonzero">
            <path d="M13.7752502,11.3420518 C14.7665533,12.3977252 16.1569523,12.9770581 17.6117218,12.95131 C18.8090099,13.0156803 19.9805498,12.6037102 20.8688604,11.7926441 C21.7056746,10.8785854 22.1305188,9.68129734 22.0532744,8.44538704 L22.0532744,0.643703281 C22.0532744,0.437718231 21.8859115,0.257481312 21.6670524,0.257481312 L21.6670524,0.257481312 L19.6329501,0.257481312 C19.426965,0.257481312 19.2467281,0.424844165 19.2467281,0.643703281 C19.2467281,0.643703281 19.2467281,0.643703281 19.2467281,0.643703281 L19.2467281,8.32952045 C19.2467281,9.78428987 18.6158989,10.402245 17.5602255,10.402245 C16.7877816,10.3764969 16.0539598,10.0288971 15.5518713,9.43669009 C15.4102565,9.28220131 15.1656493,9.26932724 15.0111605,9.42381603 C15.0111605,9.42381603 14.9982864,9.43669009 14.9982864,9.43669009 L13.7495021,10.801341 C13.6078874,10.9687039 13.6207614,11.2133111 13.7752502,11.3420518 Z M23.6110363,8.04629101 L23.6110363,8.00766881 C23.6110363,5.2397447 25.8511237,2.99965729 28.6061738,2.99965729 C28.6705441,2.99965729 28.7477885,2.99965729 28.8121588,2.99965729 C31.5672089,2.90953883 33.8845407,5.07238185 33.9746592,7.82743189 C33.9746592,7.86605409 33.9746592,7.90467629 33.9746592,7.94329848 L33.9746592,7.98192068 C33.9746592,10.7498448 31.7345717,12.9899322 28.9795217,12.9899322 C28.9151514,12.9899322 28.837907,12.9899322 28.7735366,12.9899322 C26.0184866,13.0800507 23.7011548,10.9172076 23.6110363,8.1621576 C23.6110363,8.1235354 23.6110363,8.0849132 23.6110363,8.04629101 Z M31.2968535,8.04629101 L31.2968535,8.00766881 C31.3483498,6.60439566 30.2540542,5.41998162 28.850781,5.36848536 C28.8250329,5.36848536 28.8121588,5.36848536 28.7864107,5.36848536 C27.4346338,5.34273723 26.301716,6.42415874 26.2759679,7.77593563 C26.2759679,7.84030596 26.2759679,7.91755035 26.2759679,7.98192068 L26.2759679,8.02054288 C26.2244717,9.42381603 27.3187672,10.6082301 28.7220404,10.6597263 C28.7477885,10.6597263 28.7606626,10.6597263 28.7864107,10.6597263 C30.1381876,10.6854745 31.2711054,9.60405295 31.2968535,8.25227606 C31.3097276,8.17503166 31.3097276,8.11066134 31.2968535,8.04629101 Z M44.1837932,8.04629101 L44.1837932,8.00766881 C44.1837932,5.26549284 46.1406512,2.99965729 48.9214493,2.99965729 C52.1270917,2.99965729 53.5947351,5.49722602 53.5947351,8.20077979 C53.5947351,8.31664639 53.5947351,8.43251298 53.5947351,8.56125363 C53.5818611,8.76723868 53.4144982,8.92172747 53.2085132,8.92172747 L46.8744729,8.92172747 C47.0547098,10.0546452 48.071761,10.8785854 49.2175528,10.801341 C49.9899968,10.8142151 50.7238185,10.5438597 51.3031515,10.0288971 C51.4447662,9.91303052 51.6507512,9.91303052 51.792366,10.0288971 L52.8094171,10.9300817 C52.9639059,11.0716964 52.9639059,11.3163037 52.8222912,11.4707925 C52.8222912,11.4707925 52.8094171,11.4836665 52.8094171,11.4836665 C50.8396851,13.4662726 47.6211687,13.4791467 45.6385626,11.5094147 C44.7116299,10.5824819 44.1709191,9.33369757 44.145171,8.02054288 L44.1837932,8.04629101 Z M50.9426776,7.23522487 C50.7495666,6.02506271 50.0672412,5.20112251 48.9214493,5.20112251 C47.7756575,5.20112251 47.0418357,6.01218864 46.8487248,7.23522487 L50.9426776,7.23522487 Z M55.0108824,3.57899024 L55.0108824,12.3977252 C55.0108824,12.6037102 55.1782452,12.7839472 55.3971043,12.7839472 L55.3971043,12.7839472 L57.3539623,12.7839472 C57.5599474,12.7839472 57.7401843,12.6165843 57.7401843,12.3977252 C57.7401843,12.3977252 57.7401843,12.3977252 57.7401843,12.3977252 L57.7401843,7.42833586 C57.7401843,6.1409293 58.5512504,5.16250031 59.6197978,5.16250031 C60.6883453,5.16250031 61.0874413,5.71608513 61.0874413,6.9648695 L61.0874413,12.3848511 C61.0874413,12.5908362 61.2548042,12.7710731 61.4736633,12.7710731 L61.4736633,12.7710731 L63.4305213,12.7710731 C63.6365063,12.7710731 63.8167432,12.6037102 63.8167432,12.3848511 C63.8167432,12.3848511 63.8167432,12.3848511 63.8167432,12.3848511 L63.8167432,6.56577346 C63.8167432,4.36430824 62.6194551,3.01253135 60.5596046,3.01253135 C59.4266869,3.02540542 58.3710135,3.60473837 57.7530583,4.54454516 L57.7530583,3.56611617 C57.7401843,3.37300519 57.5728214,3.2185164 57.3797104,3.20564234 L55.4228525,3.20564234 C55.1782452,3.2185164 55.0108824,3.37300519 55.0108824,3.57899024 L55.0108824,3.57899024 Z M69.4298358,12.95131 C70.0992873,12.9641841 70.7687387,12.8225693 71.3609457,12.5135918 C71.4896863,12.4492214 71.5669307,12.3204808 71.5798048,12.165992 L71.5798048,10.7755929 C71.5798048,10.5696079 71.4124419,10.3893709 71.2064569,10.3893709 C71.1678347,10.3893709 71.1163384,10.402245 71.0777162,10.4151191 C70.8073609,10.5052375 70.5241314,10.5438597 70.240902,10.5438597 C69.6100728,10.5438597 69.3654655,10.2348822 69.3654655,9.61692701 L69.3654655,5.52297415 L71.2450791,5.52297415 C71.4510641,5.52297415 71.6313011,5.35561129 71.6313011,5.13675218 L71.6313011,5.13675218 L71.6313011,3.57899024 C71.6313011,3.37300519 71.4639382,3.19276827 71.2450791,3.19276827 L71.2450791,3.19276827 L69.3654655,3.19276827 L69.3654655,1.12004371 C69.3654655,0.914058658 69.1981027,0.73382174 68.9792435,0.73382174 L68.9792435,0.73382174 L67.0095115,0.73382174 C66.8035265,0.73382174 66.6232895,0.901184593 66.6232895,1.12004371 C66.6232895,1.12004371 66.6232895,1.12004371 66.6232895,1.12004371 L66.6232895,3.2185164 L65.6062384,3.2185164 C65.4002533,3.2185164 65.2200164,3.38587926 65.2200164,3.60473837 L65.2200164,3.60473837 L65.2200164,5.13675218 C65.2200164,5.34273723 65.3873792,5.52297415 65.6062384,5.52297415 L65.6062384,5.52297415 L66.6232895,5.52297415 L66.6232895,10.0675193 C66.6361636,12.2818586 67.7690814,12.9384359 69.4298358,12.95131 L69.4298358,12.95131 Z M6.5528994,0.0901184593 C2.98678322,0.0901184593 0.102992525,2.97390916 0.102992525,6.54002533 C0.102992525,10.1061415 2.98678322,12.9899322 6.5528994,12.9899322 C10.1190156,12.9899322 13.0028063,10.1061415 13.0028063,6.54002533 L13.0028063,6.54002533 C13.0028063,2.98678322 10.1190156,0.0901184593 6.5528994,0.0901184593 Z M10.595356,7.45408399 C10.595356,7.60857278 10.4666153,7.73731343 10.3121266,7.73731343 L10.3121266,7.73731343 L7.7501875,7.73731343 L7.7501875,10.2992525 C7.7501875,10.4537413 7.62144684,10.5824819 7.46695805,10.5824819 C7.46695805,10.5824819 7.46695805,10.5824819 7.46695805,10.5824819 L5.63884074,10.5824819 C5.48435195,10.5824819 5.35561129,10.4537413 5.35561129,10.2992525 L5.35561129,10.2992525 L5.35561129,7.7501875 L2.8065463,7.7501875 C2.65205752,7.7501875 2.52331686,7.62144684 2.52331686,7.46695805 L2.52331686,5.63884074 C2.52331686,5.48435195 2.65205752,5.35561129 2.8065463,5.35561129 L5.36848536,5.35561129 L5.36848536,2.79367224 C5.36848536,2.63918345 5.49722602,2.51044279 5.6517148,2.51044279 L7.46695805,2.51044279 C7.62144684,2.51044279 7.7501875,2.63918345 7.7501875,2.79367224 L7.7501875,5.35561129 L10.2992525,5.35561129 C10.4537413,5.35561129 10.5824819,5.48435195 10.5824819,5.63884074 C10.5824819,5.63884074 10.5824819,5.63884074 10.5824819,5.63884074 L10.595356,7.45408399 Z M43.4628455,3.2185164 L41.4673653,3.2185164 C41.3000025,3.2185164 41.1583878,3.33438299 41.1068915,3.48887178 L39.1371595,9.66842327 L37.1288052,3.47599772 C37.077309,3.32150893 36.9228202,3.20564234 36.7554573,3.2185164 L34.5797402,3.2185164 C34.3737552,3.2185164 34.1935183,3.38587926 34.1935183,3.60473837 C34.1935183,3.65623463 34.2063923,3.69485683 34.2192664,3.74635309 L37.68239,12.6037102 C37.8497529,13.0156803 37.5021531,13.4533986 36.9099461,13.4533986 C36.4851019,13.4405245 36.0731318,13.4019023 35.6611617,13.2989098 C35.4680508,13.2345394 35.2491916,13.337532 35.1719473,13.530643 C35.1590732,13.5692652 35.1461991,13.6207614 35.1461991,13.6593836 L35.1461991,15.0369086 C35.1461991,15.1785234 35.2234435,15.3201381 35.3650582,15.3845084 C35.9830134,15.6548638 36.6653389,15.7707304 37.3347903,15.7321082 C39.047041,15.7321082 39.6134999,14.6378126 40.3086994,13.0156803 L43.7975712,3.69485683 C43.8619415,3.48887178 43.7460749,3.28288673 43.5400899,3.2185164 C43.5272158,3.23139047 43.4885936,3.2185164 43.4628455,3.2185164 Z" id="Shape"></path>
        </g>
    </g>
</svg>